%TF.GenerationSoftware,KiCad,Pcbnew,9.0.0*%
%TF.CreationDate,2025-03-26T11:16:54+02:00*%
%TF.ProjectId,xt-cf,78742d63-662e-46b6-9963-61645f706362,rev?*%
%TF.SameCoordinates,Original*%
%TF.FileFunction,Copper,L1,Top*%
%TF.FilePolarity,Positive*%
%FSLAX46Y46*%
G04 Gerber Fmt 4.6, Leading zero omitted, Abs format (unit mm)*
G04 Created by KiCad (PCBNEW 9.0.0) date 2025-03-26 11:16:54*
%MOMM*%
%LPD*%
G01*
G04 APERTURE LIST*
G04 Aperture macros list*
%AMRoundRect*
0 Rectangle with rounded corners*
0 $1 Rounding radius*
0 $2 $3 $4 $5 $6 $7 $8 $9 X,Y pos of 4 corners*
0 Add a 4 corners polygon primitive as box body*
4,1,4,$2,$3,$4,$5,$6,$7,$8,$9,$2,$3,0*
0 Add four circle primitives for the rounded corners*
1,1,$1+$1,$2,$3*
1,1,$1+$1,$4,$5*
1,1,$1+$1,$6,$7*
1,1,$1+$1,$8,$9*
0 Add four rect primitives between the rounded corners*
20,1,$1+$1,$2,$3,$4,$5,0*
20,1,$1+$1,$4,$5,$6,$7,0*
20,1,$1+$1,$6,$7,$8,$9,0*
20,1,$1+$1,$8,$9,$2,$3,0*%
G04 Aperture macros list end*
%TA.AperFunction,ComponentPad*%
%ADD10RoundRect,0.250000X0.550000X-0.950000X0.550000X0.950000X-0.550000X0.950000X-0.550000X-0.950000X0*%
%TD*%
%TA.AperFunction,ComponentPad*%
%ADD11O,1.600000X2.400000*%
%TD*%
%TA.AperFunction,ComponentPad*%
%ADD12C,1.600000*%
%TD*%
%TA.AperFunction,ConnectorPad*%
%ADD13R,1.778000X7.620000*%
%TD*%
%TA.AperFunction,ComponentPad*%
%ADD14O,1.600000X1.600000*%
%TD*%
%TA.AperFunction,ComponentPad*%
%ADD15R,1.800000X1.800000*%
%TD*%
%TA.AperFunction,ComponentPad*%
%ADD16C,1.800000*%
%TD*%
%TA.AperFunction,ComponentPad*%
%ADD17RoundRect,0.250000X-0.550000X0.950000X-0.550000X-0.950000X0.550000X-0.950000X0.550000X0.950000X0*%
%TD*%
%TA.AperFunction,SMDPad,CuDef*%
%ADD18R,4.500880X2.999740*%
%TD*%
%TA.AperFunction,ComponentPad*%
%ADD19C,0.899160*%
%TD*%
%TA.AperFunction,ComponentPad*%
%ADD20C,2.301240*%
%TD*%
%TA.AperFunction,ComponentPad*%
%ADD21C,1.750060*%
%TD*%
%TA.AperFunction,SMDPad,CuDef*%
%ADD22R,3.500120X0.381000*%
%TD*%
%TA.AperFunction,ComponentPad*%
%ADD23R,1.600000X1.600000*%
%TD*%
%TA.AperFunction,ComponentPad*%
%ADD24C,5.700000*%
%TD*%
%TA.AperFunction,ViaPad*%
%ADD25C,0.889000*%
%TD*%
%TA.AperFunction,Conductor*%
%ADD26C,0.368300*%
%TD*%
%TA.AperFunction,Conductor*%
%ADD27C,0.632460*%
%TD*%
G04 APERTURE END LIST*
D10*
%TO.P,U1,1,I1*%
%TO.N,/A4*%
X114180000Y-116620000D03*
D11*
%TO.P,U1,2,I2*%
%TO.N,/A5*%
X116720000Y-116620000D03*
%TO.P,U1,3,I3*%
%TO.N,/A6*%
X119260000Y-116620000D03*
%TO.P,U1,4,I4*%
%TO.N,/A7*%
X121800000Y-116620000D03*
%TO.P,U1,5,I5*%
%TO.N,/A8*%
X124340000Y-116620000D03*
%TO.P,U1,6,I6*%
%TO.N,/A9*%
X126880000Y-116620000D03*
%TO.P,U1,7,I7*%
%TO.N,/A13*%
X129420000Y-116620000D03*
%TO.P,U1,8,I8*%
%TO.N,/A14*%
X131960000Y-116620000D03*
%TO.P,U1,9,I9*%
%TO.N,/A15*%
X134500000Y-116620000D03*
%TO.P,U1,10,I10*%
%TO.N,/A16*%
X137040000Y-116620000D03*
%TO.P,U1,11,I11*%
%TO.N,/A17*%
X139580000Y-116620000D03*
%TO.P,U1,12,GND*%
%TO.N,GND*%
X142120000Y-116620000D03*
%TO.P,U1,13,I13*%
%TO.N,/A18*%
X142120000Y-109000000D03*
%TO.P,U1,14,I14*%
%TO.N,/A19*%
X139580000Y-109000000D03*
%TO.P,U1,15,IO15*%
%TO.N,/AEN*%
X137040000Y-109000000D03*
%TO.P,U1,16,IO16*%
%TO.N,/~{CF_CS0}*%
X134500000Y-109000000D03*
%TO.P,U1,17,IO17*%
%TO.N,/~{CF_CS1}*%
X131960000Y-109000000D03*
%TO.P,U1,18,IO18*%
%TO.N,/~{ROM_CS}*%
X129420000Y-109000000D03*
%TO.P,U1,19,IO19*%
%TO.N,/ROM_HI*%
X126880000Y-109000000D03*
%TO.P,U1,20,I020*%
%TO.N,/~{CF_RESET}*%
X124340000Y-109000000D03*
%TO.P,U1,21,IO21*%
%TO.N,/~{CF_DASP}*%
X121800000Y-109000000D03*
%TO.P,U1,22,IO22*%
%TO.N,Net-(U1-IO22)*%
X119260000Y-109000000D03*
%TO.P,U1,23,I23*%
%TO.N,/RESETDRV*%
X116720000Y-109000000D03*
%TO.P,U1,24,VCC*%
%TO.N,VCC*%
X114180000Y-109000000D03*
%TD*%
D12*
%TO.P,C1,1*%
%TO.N,VCC*%
X155250000Y-84000000D03*
%TO.P,C1,2*%
%TO.N,GND*%
X155250000Y-79000000D03*
%TD*%
D13*
%TO.P,BUS1,33,SD7*%
%TO.N,/D7*%
X177800000Y-130492500D03*
%TO.P,BUS1,34,SD6*%
%TO.N,/D6*%
X175260000Y-130492500D03*
%TO.P,BUS1,35,SD5*%
%TO.N,/D5*%
X172720000Y-130492500D03*
%TO.P,BUS1,36,SD4*%
%TO.N,/D4*%
X170180000Y-130492500D03*
%TO.P,BUS1,37,SD3*%
%TO.N,/D3*%
X167640000Y-130492500D03*
%TO.P,BUS1,38,SD2*%
%TO.N,/D2*%
X165100000Y-130492500D03*
%TO.P,BUS1,39,SD1*%
%TO.N,/D1*%
X162560000Y-130492500D03*
%TO.P,BUS1,40,SD0*%
%TO.N,/D0*%
X160020000Y-130492500D03*
%TO.P,BUS1,42,AEN*%
%TO.N,/AEN*%
X154940000Y-130492500D03*
%TO.P,BUS1,43,SA19*%
%TO.N,/A19*%
X152400000Y-130492500D03*
%TO.P,BUS1,44,SA18*%
%TO.N,/A18*%
X149860000Y-130492500D03*
%TO.P,BUS1,45,SA17*%
%TO.N,/A17*%
X147320000Y-130492500D03*
%TO.P,BUS1,46,SA16*%
%TO.N,/A16*%
X144780000Y-130492500D03*
%TO.P,BUS1,47,SA15*%
%TO.N,/A15*%
X142240000Y-130492500D03*
%TO.P,BUS1,48,SA14*%
%TO.N,/A14*%
X139700000Y-130492500D03*
%TO.P,BUS1,49,SA13*%
%TO.N,/A13*%
X137160000Y-130492500D03*
%TO.P,BUS1,50,SA12*%
%TO.N,/A12*%
X134620000Y-130492500D03*
%TO.P,BUS1,51,SA11*%
%TO.N,/A11*%
X132080000Y-130492500D03*
%TO.P,BUS1,52,SA10*%
%TO.N,/A10*%
X129540000Y-130492500D03*
%TO.P,BUS1,53,SA9*%
%TO.N,/A9*%
X127000000Y-130492500D03*
%TO.P,BUS1,54,SA8*%
%TO.N,/A8*%
X124460000Y-130492500D03*
%TO.P,BUS1,55,SA7*%
%TO.N,/A7*%
X121920000Y-130492500D03*
%TO.P,BUS1,56,SA6*%
%TO.N,/A6*%
X119380000Y-130492500D03*
%TO.P,BUS1,57,SA5*%
%TO.N,/A5*%
X116840000Y-130492500D03*
%TO.P,BUS1,58,SA4*%
%TO.N,/A4*%
X114300000Y-130492500D03*
%TO.P,BUS1,59,SA3*%
%TO.N,/A3*%
X111760000Y-130492500D03*
%TO.P,BUS1,60,SA2*%
%TO.N,/A2*%
X109220000Y-130492500D03*
%TO.P,BUS1,61,SA1*%
%TO.N,/A1*%
X106680000Y-130492500D03*
%TO.P,BUS1,62,SA0*%
%TO.N,/A0*%
X104140000Y-130492500D03*
%TD*%
D12*
%TO.P,R1,1*%
%TO.N,Net-(D1-K)*%
X106380000Y-103000000D03*
D14*
%TO.P,R1,2*%
%TO.N,Net-(U1-IO22)*%
X121620000Y-103000000D03*
%TD*%
D12*
%TO.P,R3,1*%
%TO.N,/CF_IORDY*%
X165500000Y-88870000D03*
D14*
%TO.P,R3,2*%
%TO.N,VCC*%
X165500000Y-73630000D03*
%TD*%
D12*
%TO.P,R4,1*%
%TO.N,/CF_DMARQ*%
X159750000Y-88870000D03*
D14*
%TO.P,R4,2*%
%TO.N,GND*%
X159750000Y-73630000D03*
%TD*%
D15*
%TO.P,D1,1,K*%
%TO.N,Net-(D1-K)*%
X108500000Y-97500000D03*
D16*
%TO.P,D1,2,A*%
%TO.N,VCC*%
X108500000Y-94960000D03*
%TD*%
D17*
%TO.P,U2,1,VPP*%
%TO.N,VCC*%
X147870000Y-73510000D03*
D11*
%TO.P,U2,2,A12*%
%TO.N,/A12*%
X145330000Y-73510000D03*
%TO.P,U2,3,A7*%
%TO.N,/A7*%
X142790000Y-73510000D03*
%TO.P,U2,4,A6*%
%TO.N,/A6*%
X140250000Y-73510000D03*
%TO.P,U2,5,A5*%
%TO.N,/A5*%
X137710000Y-73510000D03*
%TO.P,U2,6,A4*%
%TO.N,/A4*%
X135170000Y-73510000D03*
%TO.P,U2,7,A3*%
%TO.N,/A3*%
X132630000Y-73510000D03*
%TO.P,U2,8,A2*%
%TO.N,/A2*%
X130090000Y-73510000D03*
%TO.P,U2,9,A1*%
%TO.N,/A1*%
X127550000Y-73510000D03*
%TO.P,U2,10,A0*%
%TO.N,/A0*%
X125010000Y-73510000D03*
%TO.P,U2,11,D0*%
%TO.N,/D0*%
X122470000Y-73510000D03*
%TO.P,U2,12,D1*%
%TO.N,/D1*%
X119930000Y-73510000D03*
%TO.P,U2,13,D2*%
%TO.N,/D2*%
X117390000Y-73510000D03*
%TO.P,U2,14,GND*%
%TO.N,GND*%
X114850000Y-73510000D03*
%TO.P,U2,15,D3*%
%TO.N,/D3*%
X114850000Y-88750000D03*
%TO.P,U2,16,D4*%
%TO.N,/D4*%
X117390000Y-88750000D03*
%TO.P,U2,17,D5*%
%TO.N,/D5*%
X119930000Y-88750000D03*
%TO.P,U2,18,D6*%
%TO.N,/D6*%
X122470000Y-88750000D03*
%TO.P,U2,19,D7*%
%TO.N,/D7*%
X125010000Y-88750000D03*
%TO.P,U2,20,~{CE}*%
%TO.N,/~{ROM_CS}*%
X127550000Y-88750000D03*
%TO.P,U2,21,A10*%
%TO.N,/A10*%
X130090000Y-88750000D03*
%TO.P,U2,22,~{OE}*%
%TO.N,/~{MEMR}*%
X132630000Y-88750000D03*
%TO.P,U2,23,A11*%
%TO.N,/A11*%
X135170000Y-88750000D03*
%TO.P,U2,24,A9*%
%TO.N,/A9*%
X137710000Y-88750000D03*
%TO.P,U2,25,A8*%
%TO.N,/A8*%
X140250000Y-88750000D03*
%TO.P,U2,26,A13*%
%TO.N,/ROM_HI*%
X142790000Y-88750000D03*
%TO.P,U2,27,~{PGM}*%
%TO.N,VCC*%
X145330000Y-88750000D03*
%TO.P,U2,28,VCC*%
X147870000Y-88750000D03*
%TD*%
D18*
%TO.P,P1,*%
%TO.N,*%
X196250040Y-119316500D03*
D19*
X199747620Y-118567200D03*
D20*
X178249060Y-115687540D03*
D21*
X181248800Y-115687540D03*
D20*
X178249060Y-75447460D03*
D21*
X181248800Y-75447460D03*
D19*
X199747620Y-72567800D03*
D18*
X196250040Y-71818500D03*
D22*
%TO.P,P1,1,GND*%
%TO.N,GND*%
X175498240Y-111125000D03*
%TO.P,P1,2,D3*%
%TO.N,/D3*%
X175498240Y-109855000D03*
%TO.P,P1,3,D4*%
%TO.N,/D4*%
X175498240Y-108585000D03*
%TO.P,P1,4,D5*%
%TO.N,/D5*%
X175498240Y-107315000D03*
%TO.P,P1,5,D6*%
%TO.N,/D6*%
X175498240Y-106045000D03*
%TO.P,P1,6,D7*%
%TO.N,/D7*%
X175498240Y-104775000D03*
%TO.P,P1,7,~{CS0}*%
%TO.N,/~{CF_CS0}*%
X175498240Y-103505000D03*
%TO.P,P1,8,A10*%
%TO.N,GND*%
X175498240Y-102235000D03*
%TO.P,P1,9,~{ATASEL}*%
X175498240Y-100965000D03*
%TO.P,P1,10,A9*%
X175498240Y-99695000D03*
%TO.P,P1,11,A8*%
X175498240Y-98425000D03*
%TO.P,P1,12,A7*%
X175498240Y-97155000D03*
%TO.P,P1,13,VCC*%
%TO.N,VCC*%
X175498240Y-95885000D03*
%TO.P,P1,14,A6*%
%TO.N,GND*%
X175498240Y-94615000D03*
%TO.P,P1,15,A5*%
X175498240Y-93345000D03*
%TO.P,P1,16,A4*%
X175498240Y-92075000D03*
%TO.P,P1,17,A3*%
X175498240Y-90805000D03*
%TO.P,P1,18,A2*%
%TO.N,/A3*%
X175498240Y-89535000D03*
%TO.P,P1,19,A1*%
%TO.N,/A2*%
X175498240Y-88265000D03*
%TO.P,P1,20,A0*%
%TO.N,/A1*%
X175498240Y-86995000D03*
%TO.P,P1,21,D0*%
%TO.N,/D0*%
X175498240Y-85725000D03*
%TO.P,P1,22,D1*%
%TO.N,/D1*%
X175498240Y-84455000D03*
%TO.P,P1,23,D2*%
%TO.N,/D2*%
X175498240Y-83185000D03*
%TO.P,P1,24,~{IOCS16}*%
%TO.N,unconnected-(P1-~{IOCS16}-Pad24)*%
X175498240Y-81915000D03*
%TO.P,P1,25,~{CD2}*%
%TO.N,unconnected-(P1-~{CD2}-Pad25)*%
X175498240Y-80645000D03*
%TO.P,P1,26,~{CD1}*%
%TO.N,unconnected-(P1-~{CD1}-Pad26)*%
X175498240Y-110490000D03*
%TO.P,P1,27,D11*%
%TO.N,unconnected-(P1-D11-Pad27)*%
X175498240Y-109220000D03*
%TO.P,P1,28,D12*%
%TO.N,unconnected-(P1-D12-Pad28)*%
X175498240Y-107950000D03*
%TO.P,P1,29,D13*%
%TO.N,unconnected-(P1-D13-Pad29)*%
X175498240Y-106680000D03*
%TO.P,P1,30,D14*%
%TO.N,unconnected-(P1-D14-Pad30)*%
X175498240Y-105410000D03*
%TO.P,P1,31,D15*%
%TO.N,unconnected-(P1-D15-Pad31)*%
X175498240Y-104140000D03*
%TO.P,P1,32,~{CS1}*%
%TO.N,/~{CF_CS1}*%
X175498240Y-102870000D03*
%TO.P,P1,33,~{VS1}*%
%TO.N,unconnected-(P1-~{VS1}-Pad33)*%
X175498240Y-101600000D03*
%TO.P,P1,34,~{IORD}*%
%TO.N,/~{IOR}*%
X175498240Y-100330000D03*
%TO.P,P1,35,~{IOWR}*%
%TO.N,/~{IOW}*%
X175498240Y-99060000D03*
%TO.P,P1,36,~{WE}*%
%TO.N,VCC*%
X175498240Y-97790000D03*
%TO.P,P1,37,INTRQ*%
%TO.N,unconnected-(P1-INTRQ-Pad37)*%
X175498240Y-96520000D03*
%TO.P,P1,38,VCC*%
%TO.N,VCC*%
X175498240Y-95250000D03*
%TO.P,P1,39,~{CSEL}*%
%TO.N,GND*%
X175498240Y-93980000D03*
%TO.P,P1,40,~{VS2}*%
%TO.N,unconnected-(P1-~{VS2}-Pad40)*%
X175498240Y-92710000D03*
%TO.P,P1,41,~{RESET}*%
%TO.N,/~{CF_RESET}*%
X175498240Y-91440000D03*
%TO.P,P1,42,IORDY*%
%TO.N,/CF_IORDY*%
X175498240Y-90170000D03*
%TO.P,P1,43,~{INPACK}*%
%TO.N,/CF_DMARQ*%
X175498240Y-88900000D03*
%TO.P,P1,44,~{REG}*%
%TO.N,VCC*%
X175498240Y-87630000D03*
%TO.P,P1,45,~{DASP}*%
%TO.N,/~{CF_DASP}*%
X175498240Y-86360000D03*
%TO.P,P1,46,~{PDIAG}*%
%TO.N,unconnected-(P1-~{PDIAG}-Pad46)*%
X175498240Y-85090000D03*
%TO.P,P1,47,D8*%
%TO.N,unconnected-(P1-D8-Pad47)*%
X175498240Y-83820000D03*
%TO.P,P1,48,D9*%
%TO.N,unconnected-(P1-D9-Pad48)*%
X175498240Y-82550000D03*
%TO.P,P1,49,D10*%
%TO.N,unconnected-(P1-D10-Pad49)*%
X175498240Y-81280000D03*
%TO.P,P1,50,GND*%
%TO.N,GND*%
X175498240Y-80010000D03*
%TD*%
D12*
%TO.P,R2,1*%
%TO.N,/D7*%
X174870000Y-119000000D03*
D14*
%TO.P,R2,2*%
%TO.N,GND*%
X159630000Y-119000000D03*
%TD*%
D23*
%TO.P,C2,1*%
%TO.N,VCC*%
X107500000Y-111500000D03*
D12*
%TO.P,C2,2*%
%TO.N,GND*%
X107500000Y-114000000D03*
%TD*%
D24*
%TO.P,H2,1,1*%
%TO.N,GND*%
X190500000Y-123000000D03*
%TD*%
%TO.P,H1,1,1*%
%TO.N,GND*%
X190500000Y-67750000D03*
%TD*%
D25*
%TO.N,/A1*%
X105022650Y-83629297D03*
%TO.N,/A11*%
X132250000Y-122500000D03*
%TO.N,/A12*%
X134500000Y-123750000D03*
%TO.N,/A2*%
X105386600Y-107863400D03*
%TO.N,/A3*%
X105250000Y-86250000D03*
%TO.N,/D3*%
X167640000Y-116110000D03*
X167612040Y-108887960D03*
%TO.N,/D4*%
X170000000Y-116250000D03*
X169223279Y-108585000D03*
%TO.N,/D5*%
X170250000Y-107250000D03*
X172500000Y-116000000D03*
%TO.N,/D6*%
X171500000Y-106000000D03*
X174250000Y-116000000D03*
%TO.N,/D7*%
X172750000Y-104775000D03*
%TO.N,/~{CF_CS0}*%
X134500000Y-101500000D03*
%TO.N,/~{CF_CS1}*%
X132000000Y-100500000D03*
%TO.N,/~{CF_RESET}*%
X124625000Y-91875000D03*
%TO.N,/~{IOR}*%
X147500000Y-100250000D03*
%TO.N,/~{IOW}*%
X149750000Y-99000000D03*
%TO.N,GND*%
X179095393Y-104404607D03*
%TO.N,VCC*%
X150000000Y-95250000D03*
%TD*%
D26*
%TO.N,/A0*%
X125010000Y-75740000D02*
X124373300Y-76376700D01*
X125010000Y-73510000D02*
X125010000Y-75740000D01*
X104140000Y-119640000D02*
X104140000Y-130492500D01*
X103250000Y-118750000D02*
X104140000Y-119640000D01*
X124373300Y-76376700D02*
X110623300Y-76376700D01*
X110623300Y-76376700D02*
X103250000Y-83750000D01*
X103250000Y-83750000D02*
X103250000Y-118750000D01*
%TO.N,/A1*%
X175498240Y-86995000D02*
X169745000Y-86995000D01*
X154478547Y-85862450D02*
X154478548Y-85862450D01*
X106680000Y-120306700D02*
X103873300Y-117500000D01*
X103873300Y-117500000D02*
X103873300Y-84778647D01*
X168373300Y-85623300D02*
X156260602Y-85623300D01*
X106680000Y-130492500D02*
X106680000Y-120306700D01*
X153741820Y-85873300D02*
X153491820Y-85623300D01*
X156021452Y-85862450D02*
X155505093Y-85862450D01*
X151380100Y-83511579D02*
X151380100Y-70250000D01*
X153491820Y-85623300D02*
X151380100Y-83511579D01*
X151380100Y-83511579D02*
X151380100Y-83511580D01*
X127550000Y-71450000D02*
X127550000Y-73510000D01*
X156021452Y-85862450D02*
X156021453Y-85862450D01*
X154373789Y-85757691D02*
X154258180Y-85873300D01*
X153741820Y-85873300D02*
X153741821Y-85873300D01*
X156260602Y-85623300D02*
X156021452Y-85862450D01*
X169745000Y-86995000D02*
X168373300Y-85623300D01*
X151380100Y-70250000D02*
X128750000Y-70250000D01*
X155505093Y-85862450D02*
X154994907Y-85862450D01*
X154258180Y-85873300D02*
X153741820Y-85873300D01*
X154478547Y-85862450D02*
X154373789Y-85757691D01*
X103873300Y-84778647D02*
X105022650Y-83629297D01*
X128750000Y-70250000D02*
X127550000Y-71450000D01*
X154994907Y-85862450D02*
X154478547Y-85862450D01*
%TO.N,/A10*%
X127366700Y-85626700D02*
X114939397Y-85626700D01*
X123482450Y-102228547D02*
X122756573Y-101502671D01*
X114939397Y-85626700D02*
X112875000Y-87691097D01*
X112875000Y-91625000D02*
X122387550Y-101137550D01*
X122756573Y-101502671D02*
X122391452Y-101137550D01*
X130090000Y-88750000D02*
X130090000Y-88350000D01*
X128180850Y-117533273D02*
X128180850Y-106930850D01*
X128180850Y-106930850D02*
X123482450Y-102232450D01*
X122387550Y-101137550D02*
X122391452Y-101137550D01*
X130090000Y-88350000D02*
X127366700Y-85626700D01*
X122391452Y-101137550D02*
X122391453Y-101137550D01*
X123482450Y-102228548D02*
X123482450Y-102228547D01*
X112875000Y-87691097D02*
X112875000Y-91625000D01*
X129540000Y-130492500D02*
X129540000Y-118892423D01*
X129540000Y-118892423D02*
X128180850Y-117533273D01*
X123482450Y-102232450D02*
X123482450Y-102228548D01*
%TO.N,/A11*%
X132080000Y-122670000D02*
X132250000Y-122500000D01*
X132080000Y-130492500D02*
X132080000Y-122670000D01*
%TO.N,/A12*%
X134620000Y-130492500D02*
X134620000Y-123870000D01*
X134620000Y-123870000D02*
X134500000Y-123750000D01*
%TO.N,/A13*%
X137160000Y-124360000D02*
X137160000Y-130492500D01*
X129420000Y-116620000D02*
X137160000Y-124360000D01*
%TO.N,/A14*%
X131960000Y-116620000D02*
X139700000Y-124360000D01*
X139700000Y-124360000D02*
X139700000Y-130492500D01*
%TO.N,/A15*%
X142240000Y-124360000D02*
X142240000Y-130492500D01*
X134500000Y-116620000D02*
X142240000Y-124360000D01*
%TO.N,/A16*%
X137040000Y-116620000D02*
X144780000Y-124360000D01*
X144780000Y-124360000D02*
X144780000Y-130492500D01*
%TO.N,/A17*%
X147320000Y-125820000D02*
X147320000Y-130492500D01*
X139580000Y-116620000D02*
X139580000Y-118080000D01*
X139580000Y-118080000D02*
X147320000Y-125820000D01*
%TO.N,/A18*%
X140880850Y-117533273D02*
X149860000Y-126512423D01*
X140880850Y-110239150D02*
X140880850Y-117533273D01*
X142120000Y-109000000D02*
X140880850Y-110239150D01*
X149860000Y-126512423D02*
X149860000Y-130492500D01*
%TO.N,/A19*%
X152400000Y-121600000D02*
X152400000Y-130492500D01*
X152500000Y-121500000D02*
X152400000Y-121600000D01*
X141219150Y-107360850D02*
X149743273Y-107360850D01*
X149743273Y-107360850D02*
X160869150Y-118486727D01*
X158882423Y-121500000D02*
X152500000Y-121500000D01*
X160869150Y-119513273D02*
X158882423Y-121500000D01*
X139580000Y-109000000D02*
X141219150Y-107360850D01*
X160869150Y-118486727D02*
X160869150Y-119513273D01*
%TO.N,/A2*%
X166522083Y-86376699D02*
X162232764Y-86376699D01*
X175498240Y-88265000D02*
X168410384Y-88265000D01*
X153233640Y-86246600D02*
X153483640Y-86496600D01*
X105386600Y-107863400D02*
X105386600Y-117500000D01*
X150756800Y-83253400D02*
X150756800Y-83253399D01*
X162232764Y-86376699D02*
X162112863Y-86496600D01*
X154516359Y-86496600D02*
X154000000Y-86496601D01*
X152166149Y-85179109D02*
X152868520Y-85881480D01*
X152868520Y-85881480D02*
X153118519Y-86131479D01*
X168410384Y-88265000D02*
X166522083Y-86376699D01*
X151121921Y-84134880D02*
X151121921Y-84134879D01*
X153483640Y-86496600D02*
X153483641Y-86496600D01*
X153483641Y-86496600D02*
X153483640Y-86496601D01*
X109220000Y-130492500D02*
X109220000Y-121333400D01*
X130090000Y-73510000D02*
X130090000Y-70873300D01*
X153118519Y-86131479D02*
X153118519Y-86131480D01*
X150756800Y-83769759D02*
X151121921Y-84134880D01*
X153118519Y-86131480D02*
X153233640Y-86246600D01*
X153483640Y-86496601D02*
X154000000Y-86496601D01*
X150756800Y-83253400D02*
X150756800Y-83769759D01*
X150756800Y-71506800D02*
X150756800Y-83253400D01*
X150756800Y-83769759D02*
X150756800Y-83769758D01*
X154000000Y-86496601D02*
X154000000Y-86496600D01*
X109220000Y-121333400D02*
X105386600Y-117500000D01*
X130090000Y-70873300D02*
X150123300Y-70873300D01*
X162112863Y-86496600D02*
X154516359Y-86496600D01*
X150123300Y-70873300D02*
X150756800Y-71506800D01*
X151121921Y-84134879D02*
X152166149Y-85179109D01*
%TO.N,/A3*%
X105140850Y-86359150D02*
X105250000Y-86250000D01*
X150250000Y-84250000D02*
X156109150Y-90109150D01*
X111760000Y-130492500D02*
X111760000Y-122260000D01*
X160263273Y-90109150D02*
X162749123Y-87623300D01*
X162749123Y-87623300D02*
X166005723Y-87623300D01*
X106270250Y-108229420D02*
X106270250Y-107497380D01*
X166005723Y-87623300D02*
X167917423Y-89535000D01*
X150133500Y-72133500D02*
X150133500Y-82995221D01*
X150133500Y-84027939D02*
X150133500Y-84027938D01*
X150250000Y-84144439D02*
X150250000Y-84144438D01*
X111760000Y-122260000D02*
X106250000Y-116750000D01*
X150133500Y-84027939D02*
X150250000Y-84144439D01*
X106250000Y-105750000D02*
X105140850Y-104640850D01*
X149496600Y-71496600D02*
X150133500Y-72133500D01*
X105140850Y-104640850D02*
X105140850Y-86359150D01*
X106250000Y-116750000D02*
X106250000Y-108249670D01*
X150133500Y-82995221D02*
X150133500Y-83511579D01*
X106250000Y-108249670D02*
X106270250Y-108229420D01*
X132753400Y-71496600D02*
X149496600Y-71496600D01*
X150250000Y-84144438D02*
X150250000Y-84250000D01*
X106250000Y-107477130D02*
X106250000Y-105750000D01*
X167917423Y-89535000D02*
X175498240Y-89535000D01*
X156109150Y-90109150D02*
X160263273Y-90109150D01*
X132630000Y-73510000D02*
X132630000Y-71620000D01*
X132630000Y-71620000D02*
X132753400Y-71496600D01*
X150133500Y-83511579D02*
X150133500Y-84027939D01*
X106270250Y-107497380D02*
X106250000Y-107477130D01*
%TO.N,/A4*%
X114300000Y-130492500D02*
X114300000Y-116740000D01*
X114300000Y-116740000D02*
X114180000Y-116620000D01*
%TO.N,/A5*%
X116840000Y-116740000D02*
X116720000Y-116620000D01*
X116720000Y-116620000D02*
X116720000Y-115470000D01*
X116840000Y-130492500D02*
X116840000Y-116740000D01*
%TO.N,/A6*%
X119380000Y-116740000D02*
X119260000Y-116620000D01*
X119380000Y-130492500D02*
X119380000Y-116740000D01*
%TO.N,/A7*%
X121920000Y-116740000D02*
X121800000Y-116620000D01*
X121920000Y-130492500D02*
X121920000Y-116740000D01*
%TO.N,/A8*%
X124460000Y-116740000D02*
X124340000Y-116620000D01*
X124460000Y-130492500D02*
X124460000Y-116740000D01*
%TO.N,/A9*%
X127000000Y-116740000D02*
X126880000Y-116620000D01*
X127000000Y-130492500D02*
X127000000Y-116740000D01*
%TO.N,/AEN*%
X139302450Y-106737550D02*
X150001453Y-106737550D01*
X150001453Y-106737550D02*
X161492450Y-118228548D01*
X155000000Y-122750000D02*
X155000000Y-123500000D01*
X161492450Y-118228548D02*
X161492450Y-121560050D01*
X137040000Y-109000000D02*
X139302450Y-106737550D01*
X154940000Y-123560000D02*
X154940000Y-130492500D01*
X160302500Y-122750000D02*
X155000000Y-122750000D01*
X161492450Y-121560050D02*
X160302500Y-122750000D01*
X155000000Y-123500000D02*
X154940000Y-123560000D01*
%TO.N,/CF_DMARQ*%
X173314380Y-88900000D02*
X175498240Y-88900000D01*
X159880000Y-89000000D02*
X160490943Y-89000000D01*
X173309030Y-88905350D02*
X173314380Y-88900000D01*
X173302680Y-88911700D02*
X173309030Y-88905350D01*
X166629023Y-87365121D02*
X168175603Y-88911700D01*
X159750000Y-88870000D02*
X159880000Y-89000000D01*
X162490944Y-87000000D02*
X163007303Y-87000000D01*
X168175603Y-88911700D02*
X173302680Y-88911700D01*
X166263903Y-87000000D02*
X166629023Y-87365121D01*
X162490944Y-87000000D02*
X162490943Y-87000000D01*
X165747543Y-87000000D02*
X166263902Y-87000000D01*
X163007303Y-87000000D02*
X165747543Y-87000000D01*
X160490943Y-89000000D02*
X162490944Y-87000000D01*
X166263903Y-87000000D02*
X166263902Y-87000000D01*
%TO.N,/CF_IORDY*%
X165500000Y-88870000D02*
X166800000Y-90170000D01*
X166800000Y-90170000D02*
X175498240Y-90170000D01*
%TO.N,/D0*%
X156021452Y-80862450D02*
X156515127Y-80862450D01*
X166750000Y-72750000D02*
X166750000Y-82131480D01*
X169376700Y-84758180D02*
X169741820Y-85123300D01*
X166390850Y-72390850D02*
X166750000Y-72750000D01*
X122470000Y-73510000D02*
X122470000Y-71280000D01*
X160020000Y-124230000D02*
X163000000Y-121250000D01*
X163000000Y-112500000D02*
X184250000Y-112500000D01*
X170343520Y-85725000D02*
X175498240Y-85725000D01*
X164986727Y-72390850D02*
X166390850Y-72390850D01*
X154994907Y-80862450D02*
X155505093Y-80862450D01*
X160020000Y-130492500D02*
X160020000Y-124230000D01*
X155505093Y-80862450D02*
X156021452Y-80862450D01*
X152626700Y-79010603D02*
X154478548Y-80862450D01*
X152626700Y-78494243D02*
X152626700Y-79010602D01*
X152626700Y-68996600D02*
X152626700Y-78494243D01*
X166750000Y-82131480D02*
X169376700Y-84758180D01*
X163000000Y-121250000D02*
X163000000Y-112500000D01*
X156515127Y-80862450D02*
X164986727Y-72390850D01*
X154478548Y-80862450D02*
X154994907Y-80862450D01*
X184250000Y-92250000D02*
X177725000Y-85725000D01*
X124753400Y-68996600D02*
X152626700Y-68996600D01*
X184250000Y-112500000D02*
X184250000Y-92250000D01*
X169741820Y-85123300D02*
X170343520Y-85725000D01*
X122470000Y-71280000D02*
X124753400Y-68996600D01*
X152626700Y-79010602D02*
X152626700Y-79010603D01*
X177725000Y-85725000D02*
X175498240Y-85725000D01*
X154478548Y-80862450D02*
X154478547Y-80862450D01*
%TO.N,/D1*%
X184873300Y-112241821D02*
X184873300Y-112758179D01*
X164502423Y-71500000D02*
X167250000Y-71500000D01*
X162500000Y-130432500D02*
X162560000Y-130492500D01*
X154736727Y-80239150D02*
X155763273Y-80239150D01*
X170000000Y-84500000D02*
X170045000Y-84455000D01*
X153250000Y-68373300D02*
X153250000Y-78752423D01*
X170045000Y-84455000D02*
X175498240Y-84455000D01*
X122876700Y-68373300D02*
X153250000Y-68373300D01*
X175498240Y-84455000D02*
X177682100Y-84455000D01*
X184873300Y-112758179D02*
X184631479Y-113000000D01*
X177682100Y-84455000D02*
X184873300Y-91646200D01*
X119930000Y-71320000D02*
X122876700Y-68373300D01*
X184873300Y-91991821D02*
X184873300Y-92508180D01*
X184508179Y-113123300D02*
X183991821Y-113123300D01*
X163750000Y-122250000D02*
X162500000Y-123500000D01*
X184873300Y-92508180D02*
X184873300Y-112241821D01*
X119930000Y-73510000D02*
X119930000Y-71320000D01*
X163750000Y-116250000D02*
X163750000Y-122250000D01*
X155763273Y-80239150D02*
X164502423Y-71500000D01*
X184873300Y-91646200D02*
X184873300Y-91991821D01*
X183991821Y-113123300D02*
X166876700Y-113123300D01*
X184631479Y-113000000D02*
X184508179Y-113123300D01*
X153250000Y-78752423D02*
X154736727Y-80239150D01*
X170000000Y-74250000D02*
X170000000Y-84500000D01*
X167250000Y-71500000D02*
X170000000Y-74250000D01*
X166876700Y-113123300D02*
X163750000Y-116250000D01*
X184873300Y-91991821D02*
X184873300Y-91991820D01*
X162500000Y-123500000D02*
X162500000Y-130432500D01*
%TO.N,/D2*%
X185496600Y-90999500D02*
X185496600Y-113016359D01*
X167503400Y-113746600D02*
X165100000Y-116150000D01*
X117390000Y-71610000D02*
X117390000Y-73510000D01*
X177682100Y-83185000D02*
X185496600Y-90999500D01*
X165100000Y-116150000D02*
X165100000Y-130492500D01*
X175498240Y-83185000D02*
X177682100Y-83185000D01*
X176000000Y-67750000D02*
X121250000Y-67750000D01*
X177682100Y-83185000D02*
X179934620Y-80932480D01*
X179934620Y-71684620D02*
X176000000Y-67750000D01*
X121250000Y-67750000D02*
X117390000Y-71610000D01*
X185496600Y-113016359D02*
X184766358Y-113746600D01*
X184766358Y-113746600D02*
X167503400Y-113746600D01*
X179934620Y-80932480D02*
X179934620Y-71684620D01*
%TO.N,/D3*%
X168487040Y-109762960D02*
X167612040Y-108887960D01*
X114850000Y-91600000D02*
X114850000Y-88750000D01*
X175498240Y-109855000D02*
X175492890Y-109849650D01*
X167612040Y-108887960D02*
X163974080Y-105250000D01*
X128500000Y-105250000D02*
X114850000Y-91600000D01*
X175498240Y-109855000D02*
X168579080Y-109855000D01*
X163974080Y-105250000D02*
X128500000Y-105250000D01*
X167640000Y-130492500D02*
X167640000Y-116110000D01*
X168579080Y-109855000D02*
X168487040Y-109762960D01*
%TO.N,/D4*%
X167283179Y-106644900D02*
X166250460Y-106644900D01*
X128754780Y-104623300D02*
X117390000Y-93258520D01*
X169223279Y-108585000D02*
X167283179Y-106644900D01*
X117390000Y-93258520D02*
X117390000Y-88750000D01*
X175498240Y-108585000D02*
X169223279Y-108585000D01*
X164232260Y-104626700D02*
X164228860Y-104623300D01*
X170180000Y-116430000D02*
X170000000Y-116250000D01*
X166250460Y-106644900D02*
X164232260Y-104626700D01*
X170180000Y-130492500D02*
X170180000Y-116430000D01*
X175498240Y-108585000D02*
X175492890Y-108579650D01*
X164228860Y-104623300D02*
X128754780Y-104623300D01*
%TO.N,/D5*%
X167025000Y-106021600D02*
X167025001Y-106021600D01*
X164487040Y-104000000D02*
X164487039Y-104000000D01*
X172720000Y-116220000D02*
X172500000Y-116000000D01*
X175492890Y-107309650D02*
X172745380Y-107309650D01*
X170250000Y-107250000D02*
X168769759Y-107250000D01*
X164487039Y-104000000D02*
X163970680Y-104000000D01*
X119930000Y-94917040D02*
X119930000Y-88750000D01*
X172745380Y-107309650D02*
X172685730Y-107250000D01*
X172685730Y-107250000D02*
X170250000Y-107250000D01*
X129012960Y-104000000D02*
X119930000Y-94917040D01*
X167541359Y-106021600D02*
X167025000Y-106021600D01*
X168769759Y-107250000D02*
X167541359Y-106021600D01*
X163970680Y-104000000D02*
X129012960Y-104000000D01*
X164855560Y-104368520D02*
X164490440Y-104003400D01*
X167025000Y-106021600D02*
X166508640Y-106021600D01*
X175498240Y-107315000D02*
X175492890Y-107309650D01*
X172720000Y-130492500D02*
X172720000Y-116220000D01*
X166508640Y-106021600D02*
X164855560Y-104368520D01*
X164490440Y-104003400D02*
X164487040Y-104000000D01*
%TO.N,/D6*%
X166766820Y-105398300D02*
X164618520Y-103250000D01*
X166766820Y-105398299D02*
X166766820Y-105398300D01*
X175260000Y-125260000D02*
X173630850Y-123630850D01*
X173630850Y-123630850D02*
X173630850Y-116619150D01*
X173630850Y-116619150D02*
X174250000Y-116000000D01*
X175260000Y-130492500D02*
X175260000Y-125260000D01*
X168401239Y-106000000D02*
X167799539Y-105398300D01*
X175498240Y-106045000D02*
X175492890Y-106039650D01*
X171500000Y-106000000D02*
X168401239Y-106000000D01*
X122000000Y-96000000D02*
X122000000Y-89220000D01*
X175492890Y-106039650D02*
X173309030Y-106039650D01*
X164618520Y-103250000D02*
X129250000Y-103250000D01*
X173309030Y-106000000D02*
X171500000Y-106000000D01*
X129250000Y-103250000D02*
X122000000Y-96000000D01*
X167799539Y-105398300D02*
X166766820Y-105398299D01*
X122000000Y-89220000D02*
X122470000Y-88750000D01*
X173309030Y-106039650D02*
X173309030Y-106000000D01*
%TO.N,/D7*%
X122750000Y-91010000D02*
X122750000Y-95868520D01*
X129381480Y-102500000D02*
X164750000Y-102500000D01*
X168057718Y-104775000D02*
X172750000Y-104775000D01*
X167024999Y-104774999D02*
X168057718Y-104775000D01*
X164750000Y-102500000D02*
X165241820Y-102991821D01*
X172750000Y-104775000D02*
X175498240Y-104775000D01*
X177800000Y-130492500D02*
X177800000Y-121930000D01*
X125010000Y-88750000D02*
X122750000Y-91010000D01*
X122750000Y-95868520D02*
X129381480Y-102500000D01*
X165241820Y-102991821D02*
X167024999Y-104774999D01*
X177800000Y-121930000D02*
X174870000Y-119000000D01*
%TO.N,/~{CF_CS0}*%
X175498240Y-103505000D02*
X166636480Y-103505000D01*
X166636480Y-103505000D02*
X164888430Y-101756950D01*
X164888430Y-101756950D02*
X134756950Y-101756950D01*
X134756950Y-101756950D02*
X134500000Y-101500000D01*
%TO.N,/~{CF_CS1}*%
X134749670Y-100500000D02*
X132000000Y-100500000D01*
X173314380Y-102870000D02*
X171578030Y-101133650D01*
X171578030Y-101133650D02*
X135383320Y-101133650D01*
X135383320Y-101133650D02*
X134749670Y-100500000D01*
X175498240Y-102870000D02*
X173314380Y-102870000D01*
%TO.N,/~{CF_DASP}*%
X128376700Y-69619900D02*
X126250000Y-71746600D01*
X170085341Y-86348300D02*
X170085340Y-86348300D01*
X152003400Y-78752422D02*
X152003400Y-78236064D01*
X123500000Y-103250000D02*
X123500000Y-105250000D01*
X152003400Y-78236064D02*
X152003400Y-69619900D01*
X170085341Y-86348300D02*
X170601700Y-86348300D01*
X126250000Y-71746600D02*
X126250000Y-76000000D01*
X168737040Y-85000000D02*
X156002423Y-85000000D01*
X123500000Y-105250000D02*
X121800000Y-106950000D01*
X173309030Y-86348300D02*
X173309030Y-86354650D01*
X155763273Y-85239150D02*
X154736727Y-85239150D01*
X168753400Y-85016360D02*
X168737040Y-85000000D01*
X169483640Y-85746600D02*
X169118520Y-85381480D01*
X125250000Y-77000000D02*
X118487040Y-77000000D01*
X152003400Y-83253400D02*
X152003400Y-79268781D01*
X122010850Y-101760850D02*
X122133273Y-101760850D01*
X153750000Y-85000000D02*
X152003400Y-83253400D01*
X170085340Y-86348300D02*
X169483640Y-85746600D01*
X156002423Y-85000000D02*
X155763273Y-85239150D01*
X126250000Y-76000000D02*
X125250000Y-77000000D01*
X169118520Y-85381480D02*
X168753400Y-85016360D01*
X122859150Y-102486727D02*
X122859150Y-102609150D01*
X112251700Y-92001700D02*
X122010850Y-101760850D01*
X122133273Y-101760850D02*
X122859150Y-102486727D01*
X122859150Y-102609150D02*
X123500000Y-103250000D01*
X152003400Y-79268781D02*
X152003400Y-79268782D01*
X121800000Y-106950000D02*
X121800000Y-109000000D01*
X170601700Y-86348300D02*
X173309030Y-86348300D01*
X154497577Y-85000000D02*
X153750000Y-85000000D01*
X152003400Y-69619900D02*
X128376700Y-69619900D01*
X154736727Y-85239150D02*
X154497577Y-85000000D01*
X112251700Y-83235340D02*
X112251700Y-92001700D01*
X175492890Y-86354650D02*
X175498240Y-86360000D01*
X173309030Y-86354650D02*
X175492890Y-86354650D01*
X118487040Y-77000000D02*
X112251700Y-83235340D01*
X152003400Y-79268781D02*
X152003400Y-78752422D01*
%TO.N,/~{CF_RESET}*%
X124625000Y-91875000D02*
X125060000Y-91440000D01*
X125060000Y-91440000D02*
X175498240Y-91440000D01*
%TO.N,/~{IOR}*%
X147580000Y-100330000D02*
X147500000Y-100250000D01*
X175498240Y-100330000D02*
X147580000Y-100330000D01*
%TO.N,/~{IOW}*%
X149810000Y-99060000D02*
X149750000Y-99000000D01*
X175498240Y-99060000D02*
X149810000Y-99060000D01*
%TO.N,/~{ROM_CS}*%
X127550000Y-88750000D02*
X127550000Y-87050000D01*
X129420000Y-107170000D02*
X129420000Y-109000000D01*
X127550000Y-87050000D02*
X126750000Y-86250000D01*
X113500000Y-91250000D02*
X129420000Y-107170000D01*
X126750000Y-86250000D02*
X115197577Y-86250000D01*
X113500000Y-87947577D02*
X113500000Y-91250000D01*
X115197577Y-86250000D02*
X113500000Y-87947577D01*
%TO.N,GND*%
X175498240Y-90805000D02*
X177682100Y-90805000D01*
X179095393Y-109711707D02*
X179095393Y-104404607D01*
X171511700Y-98425000D02*
X171500000Y-98436700D01*
D27*
X179095393Y-100750000D02*
X179095393Y-102000000D01*
X155250000Y-79000000D02*
X159750000Y-74500000D01*
X179095393Y-102000000D02*
X179095393Y-104404607D01*
D26*
X179095393Y-93750000D02*
X179095393Y-94750000D01*
D27*
X173500000Y-70250000D02*
X175500000Y-72250000D01*
D26*
X178952100Y-93345000D02*
X179095393Y-93488293D01*
D27*
X179095393Y-99750000D02*
X179095393Y-100750000D01*
X179095393Y-97250000D02*
X179095393Y-98250000D01*
X159750000Y-73630000D02*
X163130000Y-70250000D01*
X175498240Y-72251760D02*
X175498240Y-79883270D01*
D26*
X179095393Y-93488293D02*
X179095393Y-93750000D01*
X179095393Y-94750000D02*
X179095393Y-96017593D01*
X175498240Y-93980000D02*
X178865393Y-93980000D01*
D27*
X159750000Y-74500000D02*
X159750000Y-73630000D01*
D26*
X179095393Y-92218293D02*
X179095393Y-93488293D01*
X175498240Y-93345000D02*
X178952100Y-93345000D01*
D27*
X179095393Y-96017593D02*
X179095393Y-97250000D01*
D26*
X175498240Y-94615000D02*
X178960393Y-94615000D01*
D27*
X175500000Y-72250000D02*
X175498240Y-72251760D01*
D26*
X175498240Y-102235000D02*
X178860393Y-102235000D01*
X175498240Y-100965000D02*
X178880393Y-100965000D01*
X178865393Y-93980000D02*
X179095393Y-93750000D01*
D27*
X163130000Y-70250000D02*
X173500000Y-70250000D01*
D26*
X175498240Y-98425000D02*
X178920393Y-98425000D01*
X177682100Y-92075000D02*
X179095393Y-93488293D01*
X175498240Y-111125000D02*
X172125000Y-111125000D01*
X177682100Y-111125000D02*
X179095393Y-109711707D01*
X175498240Y-99695000D02*
X179040393Y-99695000D01*
X175498240Y-93345000D02*
X172405000Y-93345000D01*
D27*
X179095393Y-98250000D02*
X179095393Y-99750000D01*
D26*
X175498240Y-92075000D02*
X177682100Y-92075000D01*
X178860393Y-102235000D02*
X179095393Y-102000000D01*
X178880393Y-100965000D02*
X179095393Y-100750000D01*
X175498240Y-97155000D02*
X179000393Y-97155000D01*
X178960393Y-94615000D02*
X179095393Y-94750000D01*
X172125000Y-111125000D02*
X172000000Y-111250000D01*
X177682100Y-90805000D02*
X179095393Y-92218293D01*
X179040393Y-99695000D02*
X179095393Y-99750000D01*
X175498240Y-111125000D02*
X177682100Y-111125000D01*
X175498240Y-98425000D02*
X171511700Y-98425000D01*
D27*
X157250000Y-116620000D02*
X159630000Y-119000000D01*
D26*
X179000393Y-97155000D02*
X179095393Y-97250000D01*
D27*
X142120000Y-116620000D02*
X157250000Y-116620000D01*
D26*
X178920393Y-98425000D02*
X179095393Y-98250000D01*
%TO.N,Net-(D1-K)*%
X106380000Y-103000000D02*
X106380000Y-99620000D01*
X106380000Y-99620000D02*
X108500000Y-97500000D01*
%TO.N,VCC*%
X173314380Y-97790000D02*
X171500000Y-95975620D01*
D27*
X150126730Y-95376730D02*
X171500000Y-95376730D01*
X155250000Y-84000000D02*
X161250000Y-84000000D01*
D26*
X175498240Y-97790000D02*
X173314380Y-97790000D01*
D27*
X114180000Y-99367208D02*
X114180000Y-109000000D01*
X165500000Y-79750000D02*
X165500000Y-73630000D01*
X145935380Y-90684620D02*
X124378920Y-90684620D01*
D26*
X171500000Y-95975620D02*
X171500000Y-95376730D01*
D27*
X123609270Y-92295730D02*
X126563540Y-95250000D01*
D26*
X175498240Y-95885000D02*
X172008270Y-95885000D01*
D27*
X107500000Y-111567600D02*
X111612400Y-111567600D01*
X123609270Y-91454270D02*
X123609270Y-92295730D01*
X109772792Y-94960000D02*
X114180000Y-99367208D01*
X108500000Y-94960000D02*
X109772792Y-94960000D01*
X111612400Y-111567600D02*
X114180000Y-109000000D01*
X150000000Y-95250000D02*
X150126730Y-95376730D01*
X147870000Y-88750000D02*
X145935380Y-90684620D01*
D26*
X172008270Y-95885000D02*
X171500000Y-95376730D01*
D27*
X147870000Y-88750000D02*
X147870000Y-73510000D01*
D26*
X175498240Y-95250000D02*
X171626730Y-95250000D01*
D27*
X126563540Y-95250000D02*
X150000000Y-95250000D01*
D26*
X171626730Y-95250000D02*
X171500000Y-95376730D01*
D27*
X124378920Y-90684620D02*
X123609270Y-91454270D01*
X161250000Y-84000000D02*
X165500000Y-79750000D01*
D26*
%TO.N,Net-(U1-IO22)*%
X119260000Y-105360000D02*
X121620000Y-103000000D01*
X119260000Y-109000000D02*
X119260000Y-105360000D01*
%TD*%
%TA.AperFunction,Conductor*%
%TO.N,GND*%
G36*
X200941621Y-63770502D02*
G01*
X200988114Y-63824158D01*
X200999500Y-63876500D01*
X200999500Y-126623500D01*
X200979498Y-126691621D01*
X200925842Y-126738114D01*
X200873500Y-126749500D01*
X182820324Y-126749500D01*
X182815248Y-126750000D01*
X179376000Y-126750000D01*
X179307879Y-126729998D01*
X179261386Y-126676342D01*
X179250000Y-126624000D01*
X179250000Y-125162500D01*
X178489110Y-125162500D01*
X178420989Y-125142498D01*
X178374496Y-125088842D01*
X178363110Y-125036500D01*
X178363110Y-122835025D01*
X187142000Y-122835025D01*
X187142000Y-123164974D01*
X187174337Y-123493300D01*
X187174340Y-123493321D01*
X187238704Y-123816904D01*
X187238705Y-123816911D01*
X187334475Y-124132624D01*
X187334476Y-124132626D01*
X187460743Y-124437462D01*
X187616275Y-124728441D01*
X187799576Y-125002772D01*
X187952130Y-125188659D01*
X189203367Y-123937421D01*
X189279588Y-124042330D01*
X189457670Y-124220412D01*
X189562576Y-124296631D01*
X188311339Y-125547868D01*
X188497232Y-125700427D01*
X188771558Y-125883724D01*
X189062537Y-126039256D01*
X189367373Y-126165523D01*
X189367375Y-126165524D01*
X189683088Y-126261294D01*
X189683095Y-126261295D01*
X190006678Y-126325659D01*
X190006699Y-126325662D01*
X190335025Y-126357999D01*
X190335041Y-126358000D01*
X190664959Y-126358000D01*
X190664974Y-126357999D01*
X190993300Y-126325662D01*
X190993321Y-126325659D01*
X191316904Y-126261295D01*
X191316911Y-126261294D01*
X191632624Y-126165524D01*
X191632626Y-126165523D01*
X191937462Y-126039256D01*
X192228441Y-125883724D01*
X192502762Y-125700429D01*
X192502768Y-125700425D01*
X192688659Y-125547868D01*
X191437422Y-124296631D01*
X191542330Y-124220412D01*
X191720412Y-124042330D01*
X191796631Y-123937422D01*
X193047868Y-125188659D01*
X193200425Y-125002768D01*
X193200429Y-125002762D01*
X193383724Y-124728441D01*
X193539256Y-124437462D01*
X193665523Y-124132626D01*
X193665524Y-124132624D01*
X193761294Y-123816911D01*
X193761295Y-123816904D01*
X193825659Y-123493321D01*
X193825662Y-123493300D01*
X193857999Y-123164974D01*
X193858000Y-123164958D01*
X193858000Y-122835041D01*
X193857999Y-122835025D01*
X193825662Y-122506699D01*
X193825659Y-122506678D01*
X193761295Y-122183095D01*
X193761294Y-122183088D01*
X193665524Y-121867375D01*
X193665523Y-121867373D01*
X193539256Y-121562537D01*
X193383724Y-121271558D01*
X193200427Y-120997232D01*
X193047868Y-120811339D01*
X191796631Y-122062576D01*
X191720412Y-121957670D01*
X191542330Y-121779588D01*
X191437422Y-121703367D01*
X192688659Y-120452130D01*
X192688659Y-120452129D01*
X192502772Y-120299576D01*
X192228441Y-120116275D01*
X191937462Y-119960743D01*
X191632626Y-119834476D01*
X191632624Y-119834475D01*
X191316911Y-119738705D01*
X191316904Y-119738704D01*
X190993321Y-119674340D01*
X190993300Y-119674337D01*
X190664974Y-119642000D01*
X190335025Y-119642000D01*
X190006699Y-119674337D01*
X190006678Y-119674340D01*
X189683095Y-119738704D01*
X189683088Y-119738705D01*
X189367375Y-119834475D01*
X189367373Y-119834476D01*
X189062537Y-119960743D01*
X188771558Y-120116275D01*
X188497236Y-120299571D01*
X188497223Y-120299580D01*
X188311339Y-120452130D01*
X189562577Y-121703368D01*
X189457670Y-121779588D01*
X189279588Y-121957670D01*
X189203368Y-122062577D01*
X187952130Y-120811339D01*
X187799580Y-120997223D01*
X187799571Y-120997236D01*
X187616275Y-121271558D01*
X187460743Y-121562537D01*
X187334476Y-121867373D01*
X187334475Y-121867375D01*
X187238705Y-122183088D01*
X187238704Y-122183095D01*
X187174340Y-122506678D01*
X187174337Y-122506699D01*
X187142000Y-122835025D01*
X178363110Y-122835025D01*
X178363110Y-121855866D01*
X178363110Y-121855865D01*
X178324735Y-121712648D01*
X178250600Y-121584242D01*
X178250598Y-121584240D01*
X178250594Y-121584235D01*
X178141369Y-121475010D01*
X178141346Y-121474989D01*
X177257184Y-120590827D01*
X177059097Y-120392740D01*
X176054731Y-119388373D01*
X176020705Y-119326061D01*
X176019377Y-119279568D01*
X176019929Y-119276077D01*
X176019931Y-119276074D01*
X176048960Y-119092786D01*
X176048960Y-118907214D01*
X176019931Y-118723926D01*
X175962585Y-118547436D01*
X175878337Y-118382090D01*
X175769261Y-118231959D01*
X175769258Y-118231956D01*
X175769256Y-118231953D01*
X175638046Y-118100743D01*
X175638043Y-118100741D01*
X175638041Y-118100739D01*
X175487910Y-117991663D01*
X175322564Y-117907415D01*
X175322563Y-117907414D01*
X175322560Y-117907413D01*
X175287245Y-117895939D01*
X175235208Y-117879031D01*
X175146076Y-117850069D01*
X175038029Y-117832957D01*
X174962786Y-117821040D01*
X174777214Y-117821040D01*
X174703898Y-117832651D01*
X174593923Y-117850069D01*
X174417434Y-117907415D01*
X174377162Y-117927935D01*
X174307385Y-117941039D01*
X174241600Y-117914338D01*
X174200695Y-117856310D01*
X174193960Y-117815668D01*
X174193960Y-117780663D01*
X193620640Y-117780663D01*
X193620640Y-120852332D01*
X193631372Y-120925998D01*
X193686918Y-121039619D01*
X193686920Y-121039622D01*
X193776347Y-121129049D01*
X193776350Y-121129051D01*
X193889974Y-121184598D01*
X193963635Y-121195330D01*
X198536444Y-121195329D01*
X198610106Y-121184598D01*
X198723730Y-121129051D01*
X198813161Y-121039620D01*
X198868708Y-120925996D01*
X198879440Y-120852335D01*
X198879439Y-119173817D01*
X198899441Y-119105698D01*
X198953097Y-119059205D01*
X199023371Y-119049101D01*
X199087951Y-119078595D01*
X199102838Y-119093885D01*
X199104055Y-119095368D01*
X199219451Y-119210764D01*
X199219457Y-119210769D01*
X199355159Y-119301443D01*
X199505944Y-119363900D01*
X199666016Y-119395740D01*
X199666017Y-119395740D01*
X199829223Y-119395740D01*
X199829224Y-119395740D01*
X199989296Y-119363900D01*
X200140081Y-119301443D01*
X200275783Y-119210769D01*
X200391189Y-119095363D01*
X200481863Y-118959661D01*
X200544320Y-118808876D01*
X200576160Y-118648804D01*
X200576160Y-118485596D01*
X200544320Y-118325524D01*
X200481863Y-118174739D01*
X200391189Y-118039037D01*
X200391184Y-118039031D01*
X200275788Y-117923635D01*
X200275782Y-117923630D01*
X200230754Y-117893543D01*
X200140081Y-117832957D01*
X200011380Y-117779647D01*
X199989301Y-117770502D01*
X199989296Y-117770500D01*
X199829226Y-117738660D01*
X199829224Y-117738660D01*
X199666016Y-117738660D01*
X199666013Y-117738660D01*
X199505943Y-117770500D01*
X199505938Y-117770502D01*
X199355159Y-117832957D01*
X199219457Y-117923630D01*
X199219451Y-117923635D01*
X199104049Y-118039037D01*
X199102831Y-118040522D01*
X199101997Y-118041089D01*
X199099674Y-118043413D01*
X199099233Y-118042972D01*
X199044151Y-118080486D01*
X198973179Y-118082380D01*
X198912450Y-118045604D01*
X198881244Y-117981833D01*
X198879439Y-117960580D01*
X198879439Y-117780667D01*
X198879439Y-117780665D01*
X198868708Y-117707004D01*
X198813161Y-117593380D01*
X198813159Y-117593377D01*
X198723732Y-117503950D01*
X198723729Y-117503948D01*
X198610107Y-117448402D01*
X198585836Y-117444866D01*
X198536445Y-117437670D01*
X198536442Y-117437670D01*
X193963637Y-117437670D01*
X193889971Y-117448402D01*
X193776350Y-117503948D01*
X193776347Y-117503950D01*
X193686920Y-117593377D01*
X193686918Y-117593380D01*
X193631372Y-117707002D01*
X193620640Y-117780663D01*
X174193960Y-117780663D01*
X174193960Y-116949460D01*
X174213962Y-116881339D01*
X174267618Y-116834846D01*
X174319960Y-116823460D01*
X174331103Y-116823460D01*
X174331104Y-116823460D01*
X174490194Y-116791815D01*
X174640054Y-116729740D01*
X174774925Y-116639623D01*
X174889623Y-116524925D01*
X174979740Y-116390054D01*
X175041815Y-116240194D01*
X175073460Y-116081104D01*
X175073460Y-115918896D01*
X175041815Y-115759806D01*
X174979740Y-115609946D01*
X174889623Y-115475075D01*
X174889621Y-115475073D01*
X174889616Y-115475067D01*
X174774932Y-115360383D01*
X174774926Y-115360378D01*
X174774925Y-115360377D01*
X174640054Y-115270260D01*
X174490194Y-115208185D01*
X174407942Y-115191824D01*
X174331106Y-115176540D01*
X174331104Y-115176540D01*
X174168896Y-115176540D01*
X174168893Y-115176540D01*
X174009806Y-115208185D01*
X173859946Y-115270260D01*
X173725073Y-115360378D01*
X173725067Y-115360383D01*
X173610383Y-115475067D01*
X173610378Y-115475073D01*
X173522575Y-115606482D01*
X173520260Y-115609946D01*
X173491407Y-115679600D01*
X173446860Y-115734879D01*
X173379497Y-115757300D01*
X173310706Y-115739742D01*
X173262327Y-115687779D01*
X173258598Y-115679614D01*
X173229740Y-115609946D01*
X173139623Y-115475075D01*
X173139621Y-115475073D01*
X173139616Y-115475067D01*
X173024932Y-115360383D01*
X173024926Y-115360378D01*
X173024925Y-115360377D01*
X172890054Y-115270260D01*
X172740194Y-115208185D01*
X172657942Y-115191824D01*
X172581106Y-115176540D01*
X172581104Y-115176540D01*
X172418896Y-115176540D01*
X172418893Y-115176540D01*
X172259806Y-115208185D01*
X172109946Y-115270260D01*
X171975073Y-115360378D01*
X171975067Y-115360383D01*
X171860383Y-115475067D01*
X171860378Y-115475073D01*
X171770260Y-115609946D01*
X171708185Y-115759806D01*
X171676540Y-115918893D01*
X171676540Y-115918896D01*
X171676540Y-116081104D01*
X171708185Y-116240194D01*
X171770260Y-116390054D01*
X171854916Y-116516752D01*
X171860378Y-116524926D01*
X171860383Y-116524932D01*
X171975067Y-116639616D01*
X171975072Y-116639620D01*
X171975075Y-116639623D01*
X171975078Y-116639625D01*
X172100891Y-116723690D01*
X172146419Y-116778166D01*
X172156890Y-116828455D01*
X172156890Y-125036500D01*
X172136888Y-125104621D01*
X172083232Y-125151114D01*
X172030890Y-125162500D01*
X170869110Y-125162500D01*
X170800989Y-125142498D01*
X170754496Y-125088842D01*
X170743110Y-125036500D01*
X170743110Y-116632838D01*
X170752702Y-116584619D01*
X170777428Y-116524926D01*
X170791815Y-116490194D01*
X170823460Y-116331104D01*
X170823460Y-116168896D01*
X170791815Y-116009806D01*
X170729740Y-115859946D01*
X170639623Y-115725075D01*
X170639621Y-115725073D01*
X170639616Y-115725067D01*
X170524932Y-115610383D01*
X170524926Y-115610378D01*
X170524925Y-115610377D01*
X170390054Y-115520260D01*
X170240194Y-115458185D01*
X170187164Y-115447636D01*
X170081106Y-115426540D01*
X170081104Y-115426540D01*
X169918896Y-115426540D01*
X169918893Y-115426540D01*
X169759806Y-115458185D01*
X169609946Y-115520260D01*
X169475073Y-115610378D01*
X169475067Y-115610383D01*
X169360383Y-115725067D01*
X169360378Y-115725073D01*
X169270260Y-115859946D01*
X169208185Y-116009806D01*
X169176540Y-116168893D01*
X169176540Y-116168896D01*
X169176540Y-116331104D01*
X169208185Y-116490194D01*
X169270260Y-116640054D01*
X169360377Y-116774925D01*
X169360378Y-116774926D01*
X169360383Y-116774932D01*
X169475067Y-116889616D01*
X169475072Y-116889620D01*
X169475075Y-116889623D01*
X169475078Y-116889625D01*
X169560891Y-116946963D01*
X169606419Y-117001439D01*
X169616890Y-117051728D01*
X169616890Y-125036500D01*
X169596888Y-125104621D01*
X169543232Y-125151114D01*
X169490890Y-125162500D01*
X168329110Y-125162500D01*
X168260989Y-125142498D01*
X168214496Y-125088842D01*
X168203110Y-125036500D01*
X168203110Y-116763628D01*
X168223112Y-116695507D01*
X168240016Y-116674532D01*
X168279616Y-116634932D01*
X168279623Y-116634925D01*
X168369740Y-116500054D01*
X168431815Y-116350194D01*
X168463460Y-116191104D01*
X168463460Y-116028896D01*
X168431815Y-115869806D01*
X168369740Y-115719946D01*
X168279623Y-115585075D01*
X168279621Y-115585073D01*
X168279616Y-115585067D01*
X168164932Y-115470383D01*
X168164926Y-115470378D01*
X168164925Y-115470377D01*
X168030054Y-115380260D01*
X167880194Y-115318185D01*
X167827164Y-115307636D01*
X167721106Y-115286540D01*
X167721104Y-115286540D01*
X167558896Y-115286540D01*
X167558893Y-115286540D01*
X167399806Y-115318185D01*
X167249946Y-115380260D01*
X167115073Y-115470378D01*
X167115067Y-115470383D01*
X167000383Y-115585067D01*
X167000378Y-115585073D01*
X166910260Y-115719946D01*
X166848185Y-115869806D01*
X166816540Y-116028893D01*
X166816540Y-116191106D01*
X166827710Y-116247259D01*
X166848185Y-116350194D01*
X166910260Y-116500054D01*
X166955218Y-116567339D01*
X167000378Y-116634926D01*
X167000383Y-116634932D01*
X167039984Y-116674532D01*
X167074010Y-116736843D01*
X167076890Y-116763628D01*
X167076890Y-125036500D01*
X167056888Y-125104621D01*
X167003232Y-125151114D01*
X166950890Y-125162500D01*
X165789110Y-125162500D01*
X165720989Y-125142498D01*
X165674496Y-125088842D01*
X165663110Y-125036500D01*
X165663110Y-116435437D01*
X165683112Y-116367316D01*
X165700015Y-116346342D01*
X167699742Y-114346615D01*
X167762054Y-114312589D01*
X167788837Y-114309710D01*
X177159546Y-114309710D01*
X177227667Y-114329712D01*
X177274160Y-114383368D01*
X177284264Y-114453642D01*
X177254770Y-114518222D01*
X177248641Y-114524805D01*
X177082366Y-114691079D01*
X177082364Y-114691082D01*
X176940848Y-114885861D01*
X176831543Y-115100383D01*
X176831540Y-115100389D01*
X176757144Y-115329356D01*
X176757143Y-115329361D01*
X176757143Y-115329362D01*
X176719480Y-115567159D01*
X176719480Y-115807921D01*
X176750418Y-116003257D01*
X176757144Y-116045723D01*
X176826594Y-116259468D01*
X176831542Y-116274695D01*
X176890321Y-116390054D01*
X176940848Y-116489218D01*
X176960853Y-116516752D01*
X177082362Y-116683995D01*
X177082364Y-116683997D01*
X177082366Y-116684000D01*
X177252599Y-116854233D01*
X177252602Y-116854235D01*
X177252605Y-116854238D01*
X177447385Y-116995754D01*
X177661905Y-117105058D01*
X177890882Y-117179457D01*
X178128679Y-117217120D01*
X178128682Y-117217120D01*
X178369438Y-117217120D01*
X178369441Y-117217120D01*
X178607238Y-117179457D01*
X178836215Y-117105058D01*
X179050735Y-116995754D01*
X179245515Y-116854238D01*
X179415758Y-116683995D01*
X179557274Y-116489215D01*
X179666578Y-116274695D01*
X179740977Y-116045718D01*
X179763994Y-115900388D01*
X179794405Y-115836239D01*
X179854673Y-115798712D01*
X179925662Y-115799725D01*
X179984835Y-115838957D01*
X180012890Y-115900390D01*
X180025687Y-115981183D01*
X180086682Y-116168905D01*
X180086683Y-116168908D01*
X180086685Y-116168912D01*
X180176291Y-116344774D01*
X180292311Y-116504462D01*
X180431877Y-116644028D01*
X180431880Y-116644030D01*
X180591566Y-116760049D01*
X180767435Y-116849658D01*
X180955157Y-116910653D01*
X181150109Y-116941530D01*
X181150112Y-116941530D01*
X181347488Y-116941530D01*
X181347491Y-116941530D01*
X181542443Y-116910653D01*
X181730165Y-116849658D01*
X181906034Y-116760049D01*
X182065720Y-116644030D01*
X182205290Y-116504460D01*
X182321309Y-116344774D01*
X182410918Y-116168905D01*
X182471913Y-115981183D01*
X182502790Y-115786231D01*
X182502790Y-115588849D01*
X182471913Y-115393897D01*
X182410918Y-115206175D01*
X182321309Y-115030306D01*
X182205290Y-114870620D01*
X182205288Y-114870617D01*
X182065722Y-114731051D01*
X181906034Y-114615031D01*
X181774432Y-114547977D01*
X181722816Y-114499229D01*
X181705750Y-114430314D01*
X181728650Y-114363113D01*
X181784248Y-114318960D01*
X181831634Y-114309710D01*
X184840491Y-114309710D01*
X184840492Y-114309710D01*
X184840493Y-114309710D01*
X184983710Y-114271335D01*
X185112116Y-114197200D01*
X185216958Y-114092358D01*
X185224135Y-114085181D01*
X185224138Y-114085176D01*
X185947200Y-113362117D01*
X185970772Y-113321289D01*
X186021335Y-113233711D01*
X186059710Y-113090494D01*
X186059710Y-90925365D01*
X186025958Y-90799400D01*
X186021335Y-90782147D01*
X185953262Y-90664242D01*
X185947200Y-90653742D01*
X185842358Y-90548900D01*
X185842355Y-90548898D01*
X178567552Y-83274095D01*
X178533526Y-83211783D01*
X178538591Y-83140968D01*
X178567550Y-83095906D01*
X180385220Y-81278238D01*
X180459355Y-81149833D01*
X180497730Y-81006615D01*
X180497730Y-80858346D01*
X180497730Y-76677769D01*
X180517732Y-76609648D01*
X180571388Y-76563155D01*
X180641662Y-76553051D01*
X180680925Y-76565499D01*
X180767435Y-76609578D01*
X180955157Y-76670573D01*
X181150109Y-76701450D01*
X181150112Y-76701450D01*
X181347488Y-76701450D01*
X181347491Y-76701450D01*
X181542443Y-76670573D01*
X181730165Y-76609578D01*
X181906034Y-76519969D01*
X182065720Y-76403950D01*
X182205290Y-76264380D01*
X182321309Y-76104694D01*
X182336878Y-76074139D01*
X182410914Y-75928832D01*
X182410918Y-75928825D01*
X182471913Y-75741103D01*
X182502790Y-75546151D01*
X182502790Y-75348769D01*
X182471913Y-75153817D01*
X182410918Y-74966095D01*
X182321309Y-74790226D01*
X182205290Y-74630540D01*
X182205288Y-74630537D01*
X182065722Y-74490971D01*
X181906034Y-74374951D01*
X181730172Y-74285345D01*
X181730168Y-74285343D01*
X181730165Y-74285342D01*
X181542443Y-74224347D01*
X181347491Y-74193470D01*
X181150109Y-74193470D01*
X180955157Y-74224347D01*
X180955154Y-74224347D01*
X180955153Y-74224348D01*
X180924420Y-74234334D01*
X180767435Y-74285342D01*
X180767433Y-74285342D01*
X180767427Y-74285345D01*
X180680932Y-74329417D01*
X180611156Y-74342521D01*
X180545371Y-74315820D01*
X180504465Y-74257793D01*
X180497730Y-74217150D01*
X180497730Y-71610486D01*
X180496377Y-71605438D01*
X180459355Y-71467268D01*
X180459355Y-71467267D01*
X180435452Y-71425866D01*
X180385222Y-71338865D01*
X180385214Y-71338855D01*
X176631384Y-67585025D01*
X187142000Y-67585025D01*
X187142000Y-67914974D01*
X187174337Y-68243300D01*
X187174340Y-68243321D01*
X187238704Y-68566904D01*
X187238705Y-68566911D01*
X187334475Y-68882624D01*
X187334476Y-68882626D01*
X187460743Y-69187462D01*
X187616275Y-69478441D01*
X187799576Y-69752772D01*
X187952130Y-69938659D01*
X189203367Y-68687421D01*
X189279588Y-68792330D01*
X189457670Y-68970412D01*
X189562576Y-69046631D01*
X188311339Y-70297868D01*
X188497232Y-70450427D01*
X188771558Y-70633724D01*
X189062537Y-70789256D01*
X189367373Y-70915523D01*
X189367375Y-70915524D01*
X189683088Y-71011294D01*
X189683095Y-71011295D01*
X190006678Y-71075659D01*
X190006699Y-71075662D01*
X190335025Y-71107999D01*
X190335041Y-71108000D01*
X190664959Y-71108000D01*
X190664974Y-71107999D01*
X190993300Y-71075662D01*
X190993321Y-71075659D01*
X191316904Y-71011295D01*
X191316911Y-71011294D01*
X191632624Y-70915524D01*
X191632626Y-70915523D01*
X191937462Y-70789256D01*
X192228441Y-70633724D01*
X192502762Y-70450429D01*
X192502768Y-70450425D01*
X192688659Y-70297868D01*
X192673454Y-70282663D01*
X193620640Y-70282663D01*
X193620640Y-73354332D01*
X193631372Y-73427998D01*
X193686918Y-73541619D01*
X193686920Y-73541622D01*
X193776347Y-73631049D01*
X193776350Y-73631051D01*
X193889974Y-73686598D01*
X193963635Y-73697330D01*
X198536444Y-73697329D01*
X198610106Y-73686598D01*
X198723730Y-73631051D01*
X198813161Y-73541620D01*
X198868708Y-73427996D01*
X198879440Y-73354335D01*
X198879439Y-73174417D01*
X198899441Y-73106300D01*
X198953096Y-73059807D01*
X199023370Y-73049702D01*
X199087951Y-73079195D01*
X199102831Y-73094478D01*
X199104049Y-73095962D01*
X199219451Y-73211364D01*
X199219457Y-73211369D01*
X199355159Y-73302043D01*
X199505944Y-73364500D01*
X199666016Y-73396340D01*
X199666017Y-73396340D01*
X199829223Y-73396340D01*
X199829224Y-73396340D01*
X199989296Y-73364500D01*
X200140081Y-73302043D01*
X200275783Y-73211369D01*
X200391189Y-73095963D01*
X200481863Y-72960261D01*
X200544320Y-72809476D01*
X200576160Y-72649404D01*
X200576160Y-72486196D01*
X200544320Y-72326124D01*
X200481863Y-72175339D01*
X200391189Y-72039637D01*
X200391184Y-72039631D01*
X200275788Y-71924235D01*
X200275782Y-71924230D01*
X200154584Y-71843248D01*
X200140081Y-71833557D01*
X199989296Y-71771100D01*
X199829226Y-71739260D01*
X199829224Y-71739260D01*
X199666016Y-71739260D01*
X199666013Y-71739260D01*
X199505943Y-71771100D01*
X199505938Y-71771102D01*
X199355159Y-71833557D01*
X199219457Y-71924230D01*
X199219451Y-71924235D01*
X199104049Y-72039637D01*
X199102831Y-72041122D01*
X199101997Y-72041689D01*
X199099674Y-72044013D01*
X199099233Y-72043572D01*
X199044151Y-72081086D01*
X198973179Y-72082980D01*
X198912450Y-72046204D01*
X198881244Y-71982433D01*
X198879439Y-71961186D01*
X198879439Y-70282666D01*
X198868708Y-70209004D01*
X198813161Y-70095380D01*
X198813159Y-70095377D01*
X198723732Y-70005950D01*
X198723729Y-70005948D01*
X198610107Y-69950402D01*
X198591690Y-69947719D01*
X198536445Y-69939670D01*
X198536442Y-69939670D01*
X193963637Y-69939670D01*
X193889971Y-69950402D01*
X193776350Y-70005948D01*
X193776347Y-70005950D01*
X193686920Y-70095377D01*
X193686918Y-70095380D01*
X193631372Y-70209002D01*
X193620640Y-70282663D01*
X192673454Y-70282663D01*
X191437422Y-69046631D01*
X191542330Y-68970412D01*
X191720412Y-68792330D01*
X191796631Y-68687422D01*
X193047868Y-69938659D01*
X193200425Y-69752768D01*
X193200429Y-69752762D01*
X193383724Y-69478441D01*
X193539256Y-69187462D01*
X193665523Y-68882626D01*
X193665524Y-68882624D01*
X193761294Y-68566911D01*
X193761295Y-68566904D01*
X193825659Y-68243321D01*
X193825662Y-68243300D01*
X193857999Y-67914974D01*
X193858000Y-67914958D01*
X193858000Y-67585041D01*
X193857999Y-67585025D01*
X193825662Y-67256699D01*
X193825659Y-67256678D01*
X193761295Y-66933095D01*
X193761294Y-66933088D01*
X193665524Y-66617375D01*
X193665523Y-66617373D01*
X193539256Y-66312537D01*
X193383724Y-66021558D01*
X193200427Y-65747232D01*
X193047868Y-65561339D01*
X191796631Y-66812576D01*
X191720412Y-66707670D01*
X191542330Y-66529588D01*
X191437422Y-66453367D01*
X192688659Y-65202130D01*
X192688659Y-65202129D01*
X192502772Y-65049576D01*
X192228441Y-64866275D01*
X191937462Y-64710743D01*
X191632626Y-64584476D01*
X191632624Y-64584475D01*
X191316911Y-64488705D01*
X191316904Y-64488704D01*
X190993321Y-64424340D01*
X190993300Y-64424337D01*
X190664974Y-64392000D01*
X190335025Y-64392000D01*
X190006699Y-64424337D01*
X190006678Y-64424340D01*
X189683095Y-64488704D01*
X189683088Y-64488705D01*
X189367375Y-64584475D01*
X189367373Y-64584476D01*
X189062537Y-64710743D01*
X188771558Y-64866275D01*
X188497236Y-65049571D01*
X188497223Y-65049580D01*
X188311339Y-65202130D01*
X189562577Y-66453368D01*
X189457670Y-66529588D01*
X189279588Y-66707670D01*
X189203368Y-66812577D01*
X187952130Y-65561339D01*
X187799580Y-65747223D01*
X187799571Y-65747236D01*
X187616275Y-66021558D01*
X187460743Y-66312537D01*
X187334476Y-66617373D01*
X187334475Y-66617375D01*
X187238705Y-66933088D01*
X187238704Y-66933095D01*
X187174340Y-67256678D01*
X187174337Y-67256699D01*
X187142000Y-67585025D01*
X176631384Y-67585025D01*
X176345764Y-67299405D01*
X176345754Y-67299397D01*
X176217350Y-67225263D01*
X176145744Y-67206076D01*
X176145744Y-67206077D01*
X176074135Y-67186890D01*
X121324134Y-67186890D01*
X121175865Y-67186890D01*
X121104262Y-67206076D01*
X121032649Y-67225264D01*
X121032642Y-67225267D01*
X120904245Y-67299397D01*
X120904235Y-67299405D01*
X116939405Y-71264235D01*
X116939397Y-71264245D01*
X116865267Y-71392642D01*
X116865263Y-71392653D01*
X116856363Y-71425865D01*
X116856364Y-71425866D01*
X116828662Y-71529254D01*
X116826890Y-71535866D01*
X116826890Y-71997648D01*
X116806888Y-72065769D01*
X116774951Y-72099584D01*
X116621956Y-72210741D01*
X116621953Y-72210743D01*
X116490743Y-72341953D01*
X116490741Y-72341956D01*
X116381665Y-72492086D01*
X116301699Y-72649028D01*
X116252950Y-72700643D01*
X116184035Y-72717709D01*
X116116834Y-72694808D01*
X116072682Y-72639210D01*
X116069599Y-72630761D01*
X116062173Y-72607906D01*
X116062170Y-72607900D01*
X115968699Y-72424454D01*
X115847684Y-72257892D01*
X115847682Y-72257889D01*
X115702110Y-72112317D01*
X115702107Y-72112315D01*
X115535545Y-71991300D01*
X115352099Y-71897829D01*
X115352093Y-71897826D01*
X115156294Y-71834208D01*
X115156296Y-71834208D01*
X115104000Y-71825925D01*
X115104000Y-73198314D01*
X115095606Y-73189920D01*
X115004394Y-73137259D01*
X114902661Y-73110000D01*
X114797339Y-73110000D01*
X114695606Y-73137259D01*
X114604394Y-73189920D01*
X114596000Y-73198314D01*
X114596000Y-71825925D01*
X114543704Y-71834208D01*
X114347906Y-71897826D01*
X114347900Y-71897829D01*
X114164454Y-71991300D01*
X113997892Y-72112315D01*
X113997889Y-72112317D01*
X113852317Y-72257889D01*
X113852315Y-72257892D01*
X113731300Y-72424454D01*
X113637829Y-72607900D01*
X113637826Y-72607906D01*
X113574208Y-72803703D01*
X113542000Y-73007061D01*
X113542000Y-73256000D01*
X114538314Y-73256000D01*
X114529920Y-73264394D01*
X114477259Y-73355606D01*
X114450000Y-73457339D01*
X114450000Y-73562661D01*
X114477259Y-73664394D01*
X114529920Y-73755606D01*
X114538314Y-73764000D01*
X113542000Y-73764000D01*
X113542000Y-74012938D01*
X113574208Y-74216296D01*
X113637826Y-74412093D01*
X113637829Y-74412099D01*
X113731300Y-74595545D01*
X113852315Y-74762107D01*
X113852317Y-74762110D01*
X113997889Y-74907682D01*
X113997892Y-74907684D01*
X114164454Y-75028699D01*
X114347900Y-75122170D01*
X114347906Y-75122173D01*
X114543705Y-75185791D01*
X114543717Y-75185794D01*
X114595999Y-75194074D01*
X114596000Y-75194074D01*
X114596000Y-73821686D01*
X114604394Y-73830080D01*
X114695606Y-73882741D01*
X114797339Y-73910000D01*
X114902661Y-73910000D01*
X115004394Y-73882741D01*
X115095606Y-73830080D01*
X115104000Y-73821686D01*
X115104000Y-75194074D01*
X115156282Y-75185794D01*
X115156294Y-75185791D01*
X115352093Y-75122173D01*
X115352099Y-75122170D01*
X115535545Y-75028699D01*
X115702107Y-74907684D01*
X115702110Y-74907682D01*
X115847682Y-74762110D01*
X115847684Y-74762107D01*
X115968699Y-74595545D01*
X116062170Y-74412100D01*
X116069598Y-74389239D01*
X116109671Y-74330633D01*
X116175067Y-74302995D01*
X116245024Y-74315101D01*
X116297331Y-74363107D01*
X116301693Y-74370961D01*
X116379425Y-74523518D01*
X116381665Y-74527913D01*
X116387132Y-74535438D01*
X116490739Y-74678041D01*
X116490741Y-74678043D01*
X116490743Y-74678046D01*
X116621953Y-74809256D01*
X116621956Y-74809258D01*
X116621959Y-74809261D01*
X116772090Y-74918337D01*
X116937436Y-75002585D01*
X117113926Y-75059931D01*
X117297214Y-75088960D01*
X117297216Y-75088960D01*
X117482784Y-75088960D01*
X117482786Y-75088960D01*
X117666074Y-75059931D01*
X117842564Y-75002585D01*
X118007910Y-74918337D01*
X118158041Y-74809261D01*
X118289261Y-74678041D01*
X118398337Y-74527910D01*
X118482585Y-74362564D01*
X118539931Y-74186074D01*
X118539931Y-74186072D01*
X118540167Y-74185347D01*
X118580241Y-74126742D01*
X118645638Y-74099105D01*
X118715594Y-74111212D01*
X118767900Y-74159218D01*
X118779833Y-74185347D01*
X118830902Y-74342521D01*
X118837415Y-74362564D01*
X118919425Y-74523518D01*
X118921665Y-74527913D01*
X118927132Y-74535438D01*
X119030739Y-74678041D01*
X119030741Y-74678043D01*
X119030743Y-74678046D01*
X119161953Y-74809256D01*
X119161956Y-74809258D01*
X119161959Y-74809261D01*
X119312090Y-74918337D01*
X119477436Y-75002585D01*
X119653926Y-75059931D01*
X119837214Y-75088960D01*
X119837216Y-75088960D01*
X120022784Y-75088960D01*
X120022786Y-75088960D01*
X120206074Y-75059931D01*
X120382564Y-75002585D01*
X120547910Y-74918337D01*
X120698041Y-74809261D01*
X120829261Y-74678041D01*
X120938337Y-74527910D01*
X121022585Y-74362564D01*
X121079931Y-74186074D01*
X121079931Y-74186072D01*
X121080167Y-74185347D01*
X121120241Y-74126742D01*
X121185638Y-74099105D01*
X121255594Y-74111212D01*
X121307900Y-74159218D01*
X121319833Y-74185347D01*
X121370902Y-74342521D01*
X121377415Y-74362564D01*
X121459425Y-74523518D01*
X121461665Y-74527913D01*
X121467132Y-74535438D01*
X121570739Y-74678041D01*
X121570741Y-74678043D01*
X121570743Y-74678046D01*
X121701953Y-74809256D01*
X121701956Y-74809258D01*
X121701959Y-74809261D01*
X121852090Y-74918337D01*
X122017436Y-75002585D01*
X122193926Y-75059931D01*
X122377214Y-75088960D01*
X122377216Y-75088960D01*
X122562784Y-75088960D01*
X122562786Y-75088960D01*
X122746074Y-75059931D01*
X122922564Y-75002585D01*
X123087910Y-74918337D01*
X123238041Y-74809261D01*
X123369261Y-74678041D01*
X123478337Y-74527910D01*
X123562585Y-74362564D01*
X123619931Y-74186074D01*
X123619931Y-74186072D01*
X123620167Y-74185347D01*
X123660241Y-74126742D01*
X123725638Y-74099105D01*
X123795594Y-74111212D01*
X123847900Y-74159218D01*
X123859833Y-74185347D01*
X123910902Y-74342521D01*
X123917415Y-74362564D01*
X123999425Y-74523518D01*
X124001665Y-74527913D01*
X124007132Y-74535438D01*
X124110739Y-74678041D01*
X124110741Y-74678043D01*
X124110743Y-74678046D01*
X124241953Y-74809256D01*
X124241956Y-74809258D01*
X124241959Y-74809261D01*
X124392090Y-74918337D01*
X124392092Y-74918338D01*
X124394951Y-74920415D01*
X124438305Y-74976637D01*
X124446890Y-75022351D01*
X124446890Y-75454562D01*
X124426888Y-75522683D01*
X124409985Y-75543657D01*
X124176957Y-75776685D01*
X124114645Y-75810711D01*
X124087862Y-75813590D01*
X110549162Y-75813590D01*
X110477554Y-75832777D01*
X110477553Y-75832776D01*
X110405949Y-75851963D01*
X110341745Y-75889032D01*
X110277545Y-75926097D01*
X110277540Y-75926101D01*
X110225120Y-75978521D01*
X110172700Y-76030942D01*
X110172698Y-76030944D01*
X102799405Y-83404235D01*
X102799397Y-83404245D01*
X102725267Y-83532642D01*
X102725263Y-83532653D01*
X102713289Y-83577336D01*
X102713290Y-83577337D01*
X102708951Y-83593533D01*
X102686890Y-83675865D01*
X102686890Y-118675866D01*
X102686890Y-118824134D01*
X102699716Y-118872000D01*
X102725264Y-118967350D01*
X102725267Y-118967357D01*
X102799397Y-119095754D01*
X102799399Y-119095756D01*
X102799400Y-119095758D01*
X103539986Y-119836344D01*
X103574010Y-119898655D01*
X103576890Y-119925438D01*
X103576890Y-125036500D01*
X103556888Y-125104621D01*
X103503232Y-125151114D01*
X103450890Y-125162500D01*
X101976500Y-125162500D01*
X101908379Y-125142498D01*
X101861886Y-125088842D01*
X101850500Y-125036500D01*
X101850500Y-66043805D01*
X101850730Y-66036198D01*
X101859979Y-65883289D01*
X101866733Y-65771625D01*
X101868564Y-65756548D01*
X101915657Y-65499570D01*
X101919291Y-65484826D01*
X101997016Y-65235395D01*
X102002403Y-65221191D01*
X102109623Y-64982958D01*
X102116685Y-64969502D01*
X102251841Y-64745927D01*
X102260467Y-64733430D01*
X102421596Y-64527765D01*
X102431670Y-64516395D01*
X102616395Y-64331670D01*
X102627765Y-64321596D01*
X102833430Y-64160467D01*
X102845927Y-64151841D01*
X103069502Y-64016685D01*
X103082958Y-64009623D01*
X103321188Y-63902405D01*
X103335395Y-63897016D01*
X103584826Y-63819291D01*
X103599570Y-63815657D01*
X103856548Y-63768564D01*
X103871625Y-63766733D01*
X104111517Y-63752222D01*
X104136199Y-63750730D01*
X104143806Y-63750500D01*
X104184170Y-63750500D01*
X200873500Y-63750500D01*
X200941621Y-63770502D01*
G37*
%TD.AperFunction*%
%TA.AperFunction,Conductor*%
G36*
X125627217Y-109594570D02*
G01*
X125659047Y-109598222D01*
X125661927Y-109600577D01*
X125665594Y-109601212D01*
X125689204Y-109622881D01*
X125714009Y-109643164D01*
X125716233Y-109647688D01*
X125717900Y-109649218D01*
X125729833Y-109675347D01*
X125730068Y-109676072D01*
X125730069Y-109676074D01*
X125787415Y-109852564D01*
X125871663Y-110017910D01*
X125980739Y-110168041D01*
X125980741Y-110168043D01*
X125980743Y-110168046D01*
X126111953Y-110299256D01*
X126111956Y-110299258D01*
X126111959Y-110299261D01*
X126262090Y-110408337D01*
X126427436Y-110492585D01*
X126603926Y-110549931D01*
X126787214Y-110578960D01*
X126787216Y-110578960D01*
X126972784Y-110578960D01*
X126972786Y-110578960D01*
X127156074Y-110549931D01*
X127332564Y-110492585D01*
X127434540Y-110440625D01*
X127504313Y-110427522D01*
X127570098Y-110454222D01*
X127611005Y-110512249D01*
X127617740Y-110552893D01*
X127617740Y-115067106D01*
X127597738Y-115135227D01*
X127544082Y-115181720D01*
X127473808Y-115191824D01*
X127434537Y-115179373D01*
X127332562Y-115127414D01*
X127156076Y-115070069D01*
X127064430Y-115055554D01*
X126972786Y-115041040D01*
X126787214Y-115041040D01*
X126713898Y-115052651D01*
X126603923Y-115070069D01*
X126427437Y-115127414D01*
X126262086Y-115211665D01*
X126111956Y-115320741D01*
X126111953Y-115320743D01*
X125980743Y-115451953D01*
X125980741Y-115451956D01*
X125871665Y-115602086D01*
X125787414Y-115767437D01*
X125729833Y-115944652D01*
X125689759Y-116003257D01*
X125624362Y-116030894D01*
X125554405Y-116018787D01*
X125502100Y-115970780D01*
X125490167Y-115944652D01*
X125474250Y-115895667D01*
X125432585Y-115767436D01*
X125348337Y-115602090D01*
X125239261Y-115451959D01*
X125239258Y-115451956D01*
X125239256Y-115451953D01*
X125108046Y-115320743D01*
X125108043Y-115320741D01*
X125108041Y-115320739D01*
X124958608Y-115212170D01*
X124957913Y-115211665D01*
X124957912Y-115211664D01*
X124957910Y-115211663D01*
X124792564Y-115127415D01*
X124792563Y-115127414D01*
X124792562Y-115127414D01*
X124616076Y-115070069D01*
X124524430Y-115055554D01*
X124432786Y-115041040D01*
X124247214Y-115041040D01*
X124173898Y-115052651D01*
X124063923Y-115070069D01*
X123887437Y-115127414D01*
X123722086Y-115211665D01*
X123571956Y-115320741D01*
X123571953Y-115320743D01*
X123440743Y-115451953D01*
X123440741Y-115451956D01*
X123331665Y-115602086D01*
X123247414Y-115767437D01*
X123189833Y-115944652D01*
X123149759Y-116003257D01*
X123084362Y-116030894D01*
X123014405Y-116018787D01*
X122962100Y-115970780D01*
X122950167Y-115944652D01*
X122934250Y-115895667D01*
X122892585Y-115767436D01*
X122808337Y-115602090D01*
X122699261Y-115451959D01*
X122699258Y-115451956D01*
X122699256Y-115451953D01*
X122568046Y-115320743D01*
X122568043Y-115320741D01*
X122568041Y-115320739D01*
X122418608Y-115212170D01*
X122417913Y-115211665D01*
X122417912Y-115211664D01*
X122417910Y-115211663D01*
X122252564Y-115127415D01*
X122252563Y-115127414D01*
X122252562Y-115127414D01*
X122076076Y-115070069D01*
X121984430Y-115055554D01*
X121892786Y-115041040D01*
X121707214Y-115041040D01*
X121633898Y-115052651D01*
X121523923Y-115070069D01*
X121347437Y-115127414D01*
X121182086Y-115211665D01*
X121031956Y-115320741D01*
X121031953Y-115320743D01*
X120900743Y-115451953D01*
X120900741Y-115451956D01*
X120791665Y-115602086D01*
X120707414Y-115767437D01*
X120649833Y-115944652D01*
X120609759Y-116003257D01*
X120544362Y-116030894D01*
X120474405Y-116018787D01*
X120422100Y-115970780D01*
X120410167Y-115944652D01*
X120394250Y-115895667D01*
X120352585Y-115767436D01*
X120268337Y-115602090D01*
X120159261Y-115451959D01*
X120159258Y-115451956D01*
X120159256Y-115451953D01*
X120028046Y-115320743D01*
X120028043Y-115320741D01*
X120028041Y-115320739D01*
X119878608Y-115212170D01*
X119877913Y-115211665D01*
X119877912Y-115211664D01*
X119877910Y-115211663D01*
X119712564Y-115127415D01*
X119712563Y-115127414D01*
X119712562Y-115127414D01*
X119536076Y-115070069D01*
X119444430Y-115055554D01*
X119352786Y-115041040D01*
X119167214Y-115041040D01*
X119093898Y-115052651D01*
X118983923Y-115070069D01*
X118807437Y-115127414D01*
X118642086Y-115211665D01*
X118491956Y-115320741D01*
X118491953Y-115320743D01*
X118360743Y-115451953D01*
X118360741Y-115451956D01*
X118251665Y-115602086D01*
X118167414Y-115767437D01*
X118109833Y-115944652D01*
X118069759Y-116003257D01*
X118004362Y-116030894D01*
X117934405Y-116018787D01*
X117882100Y-115970780D01*
X117870167Y-115944652D01*
X117854250Y-115895667D01*
X117812585Y-115767436D01*
X117728337Y-115602090D01*
X117619261Y-115451959D01*
X117619258Y-115451956D01*
X117619256Y-115451953D01*
X117488046Y-115320743D01*
X117488043Y-115320741D01*
X117488041Y-115320739D01*
X117338608Y-115212170D01*
X117337913Y-115211665D01*
X117337912Y-115211664D01*
X117337910Y-115211663D01*
X117192809Y-115137730D01*
X117160918Y-115114559D01*
X117065764Y-115019405D01*
X117065754Y-115019397D01*
X116937356Y-114945267D01*
X116937353Y-114945266D01*
X116937352Y-114945265D01*
X116937350Y-114945264D01*
X116937349Y-114945264D01*
X116898974Y-114934981D01*
X116794135Y-114906890D01*
X116645865Y-114906890D01*
X116587761Y-114922459D01*
X116502650Y-114945264D01*
X116502643Y-114945267D01*
X116374245Y-115019397D01*
X116374235Y-115019405D01*
X116279083Y-115114558D01*
X116247191Y-115137730D01*
X116102086Y-115211665D01*
X115951956Y-115320741D01*
X115951953Y-115320743D01*
X115820743Y-115451953D01*
X115820741Y-115451956D01*
X115711665Y-115602086D01*
X115627414Y-115767437D01*
X115604792Y-115837061D01*
X115564718Y-115895667D01*
X115499321Y-115923303D01*
X115429364Y-115911196D01*
X115377058Y-115863189D01*
X115358959Y-115798124D01*
X115358959Y-115606482D01*
X115356154Y-115570828D01*
X115346861Y-115538841D01*
X115311819Y-115418225D01*
X115230926Y-115281442D01*
X115230924Y-115281440D01*
X115230921Y-115281436D01*
X115118563Y-115169078D01*
X115118559Y-115169075D01*
X115118558Y-115169074D01*
X114981775Y-115088181D01*
X114905474Y-115066013D01*
X114829171Y-115043845D01*
X114793527Y-115041040D01*
X113566482Y-115041040D01*
X113530828Y-115043845D01*
X113378222Y-115088182D01*
X113241440Y-115169075D01*
X113241436Y-115169078D01*
X113129078Y-115281436D01*
X113129075Y-115281440D01*
X113048182Y-115418222D01*
X113003845Y-115570828D01*
X113001041Y-115606455D01*
X113001040Y-115606473D01*
X113001040Y-117633517D01*
X113003845Y-117669171D01*
X113003846Y-117669173D01*
X113048181Y-117821775D01*
X113118713Y-117941039D01*
X113129075Y-117958559D01*
X113129078Y-117958563D01*
X113241436Y-118070921D01*
X113241440Y-118070924D01*
X113241442Y-118070926D01*
X113378225Y-118151819D01*
X113530827Y-118196154D01*
X113566481Y-118198960D01*
X113610889Y-118198959D01*
X113679008Y-118218960D01*
X113725503Y-118272614D01*
X113736890Y-118324959D01*
X113736890Y-125036500D01*
X113716888Y-125104621D01*
X113663232Y-125151114D01*
X113610890Y-125162500D01*
X112449110Y-125162500D01*
X112380989Y-125142498D01*
X112334496Y-125088842D01*
X112323110Y-125036500D01*
X112323110Y-122185866D01*
X112318025Y-122166888D01*
X112284735Y-122042648D01*
X112210600Y-121914242D01*
X112210598Y-121914240D01*
X112210594Y-121914235D01*
X112101369Y-121805010D01*
X112101346Y-121804989D01*
X106850015Y-116553657D01*
X106815989Y-116491345D01*
X106813110Y-116464562D01*
X106813110Y-115323628D01*
X106833112Y-115255507D01*
X106886768Y-115209014D01*
X106957042Y-115198910D01*
X106993274Y-115210400D01*
X106993326Y-115210276D01*
X106994777Y-115210877D01*
X106996325Y-115211368D01*
X106997897Y-115212169D01*
X106997906Y-115212173D01*
X107193705Y-115275791D01*
X107193701Y-115275791D01*
X107397061Y-115308000D01*
X107602939Y-115308000D01*
X107806296Y-115275791D01*
X108002093Y-115212173D01*
X108002099Y-115212170D01*
X108185541Y-115118701D01*
X108228372Y-115087582D01*
X107540789Y-114400000D01*
X107552661Y-114400000D01*
X107654394Y-114372741D01*
X107745606Y-114320080D01*
X107820080Y-114245606D01*
X107872741Y-114154394D01*
X107900000Y-114052661D01*
X107900000Y-114040791D01*
X108587581Y-114728372D01*
X108587582Y-114728372D01*
X108618701Y-114685541D01*
X108712170Y-114502099D01*
X108712173Y-114502093D01*
X108775791Y-114306296D01*
X108808000Y-114102938D01*
X108808000Y-113897061D01*
X108775791Y-113693703D01*
X108712173Y-113497906D01*
X108712170Y-113497900D01*
X108618699Y-113314454D01*
X108587583Y-113271626D01*
X108587582Y-113271626D01*
X107900000Y-113959208D01*
X107900000Y-113947339D01*
X107872741Y-113845606D01*
X107820080Y-113754394D01*
X107745606Y-113679920D01*
X107654394Y-113627259D01*
X107552661Y-113600000D01*
X107540790Y-113600000D01*
X108228372Y-112912417D01*
X108228372Y-112912416D01*
X108220774Y-112906896D01*
X108177420Y-112850674D01*
X108171343Y-112779938D01*
X108204474Y-112717146D01*
X108266294Y-112682234D01*
X108294834Y-112678959D01*
X108335963Y-112678959D01*
X108335964Y-112678959D01*
X108409626Y-112668228D01*
X108523250Y-112612681D01*
X108612681Y-112523250D01*
X108668228Y-112409626D01*
X108673910Y-112370624D01*
X108703524Y-112306099D01*
X108763322Y-112267828D01*
X108798594Y-112262790D01*
X111537696Y-112262790D01*
X111537716Y-112262791D01*
X111543929Y-112262791D01*
X111680871Y-112262791D01*
X111815180Y-112236075D01*
X111900645Y-112200673D01*
X111925678Y-112190305D01*
X111925680Y-112190303D01*
X111941696Y-112183670D01*
X112055558Y-112107590D01*
X112152390Y-112010758D01*
X112152391Y-112010755D01*
X112159567Y-112003580D01*
X112159573Y-112003572D01*
X113629912Y-110533233D01*
X113692222Y-110499209D01*
X113757941Y-110502496D01*
X113903926Y-110549931D01*
X114087214Y-110578960D01*
X114087216Y-110578960D01*
X114272784Y-110578960D01*
X114272786Y-110578960D01*
X114456074Y-110549931D01*
X114632564Y-110492585D01*
X114797910Y-110408337D01*
X114948041Y-110299261D01*
X115079261Y-110168041D01*
X115188337Y-110017910D01*
X115272585Y-109852564D01*
X115329931Y-109676074D01*
X115329931Y-109676072D01*
X115330167Y-109675347D01*
X115370241Y-109616742D01*
X115435638Y-109589105D01*
X115505594Y-109601212D01*
X115557900Y-109649218D01*
X115569833Y-109675347D01*
X115570068Y-109676072D01*
X115570069Y-109676074D01*
X115627415Y-109852564D01*
X115711663Y-110017910D01*
X115820739Y-110168041D01*
X115820741Y-110168043D01*
X115820743Y-110168046D01*
X115951953Y-110299256D01*
X115951956Y-110299258D01*
X115951959Y-110299261D01*
X116102090Y-110408337D01*
X116267436Y-110492585D01*
X116443926Y-110549931D01*
X116627214Y-110578960D01*
X116627216Y-110578960D01*
X116812784Y-110578960D01*
X116812786Y-110578960D01*
X116996074Y-110549931D01*
X117172564Y-110492585D01*
X117337910Y-110408337D01*
X117488041Y-110299261D01*
X117619261Y-110168041D01*
X117728337Y-110017910D01*
X117812585Y-109852564D01*
X117869931Y-109676074D01*
X117869931Y-109676072D01*
X117870167Y-109675347D01*
X117910241Y-109616742D01*
X117975638Y-109589105D01*
X118045594Y-109601212D01*
X118097900Y-109649218D01*
X118109833Y-109675347D01*
X118110068Y-109676072D01*
X118110069Y-109676074D01*
X118167415Y-109852564D01*
X118251663Y-110017910D01*
X118360739Y-110168041D01*
X118360741Y-110168043D01*
X118360743Y-110168046D01*
X118491953Y-110299256D01*
X118491956Y-110299258D01*
X118491959Y-110299261D01*
X118642090Y-110408337D01*
X118807436Y-110492585D01*
X118983926Y-110549931D01*
X119167214Y-110578960D01*
X119167216Y-110578960D01*
X119352784Y-110578960D01*
X119352786Y-110578960D01*
X119536074Y-110549931D01*
X119712564Y-110492585D01*
X119877910Y-110408337D01*
X120028041Y-110299261D01*
X120159261Y-110168041D01*
X120268337Y-110017910D01*
X120352585Y-109852564D01*
X120409931Y-109676074D01*
X120409931Y-109676072D01*
X120410167Y-109675347D01*
X120450241Y-109616742D01*
X120515638Y-109589105D01*
X120585594Y-109601212D01*
X120637900Y-109649218D01*
X120649833Y-109675347D01*
X120650068Y-109676072D01*
X120650069Y-109676074D01*
X120707415Y-109852564D01*
X120791663Y-110017910D01*
X120900739Y-110168041D01*
X120900741Y-110168043D01*
X120900743Y-110168046D01*
X121031953Y-110299256D01*
X121031956Y-110299258D01*
X121031959Y-110299261D01*
X121182090Y-110408337D01*
X121347436Y-110492585D01*
X121523926Y-110549931D01*
X121707214Y-110578960D01*
X121707216Y-110578960D01*
X121892784Y-110578960D01*
X121892786Y-110578960D01*
X122076074Y-110549931D01*
X122252564Y-110492585D01*
X122417910Y-110408337D01*
X122568041Y-110299261D01*
X122699261Y-110168041D01*
X122808337Y-110017910D01*
X122892585Y-109852564D01*
X122949931Y-109676074D01*
X122949931Y-109676072D01*
X122950167Y-109675347D01*
X122990241Y-109616742D01*
X123055638Y-109589105D01*
X123125594Y-109601212D01*
X123177900Y-109649218D01*
X123189833Y-109675347D01*
X123190068Y-109676072D01*
X123190069Y-109676074D01*
X123247415Y-109852564D01*
X123331663Y-110017910D01*
X123440739Y-110168041D01*
X123440741Y-110168043D01*
X123440743Y-110168046D01*
X123571953Y-110299256D01*
X123571956Y-110299258D01*
X123571959Y-110299261D01*
X123722090Y-110408337D01*
X123887436Y-110492585D01*
X124063926Y-110549931D01*
X124247214Y-110578960D01*
X124247216Y-110578960D01*
X124432784Y-110578960D01*
X124432786Y-110578960D01*
X124616074Y-110549931D01*
X124792564Y-110492585D01*
X124957910Y-110408337D01*
X125108041Y-110299261D01*
X125239261Y-110168041D01*
X125348337Y-110017910D01*
X125432585Y-109852564D01*
X125489931Y-109676074D01*
X125489931Y-109676072D01*
X125490167Y-109675347D01*
X125508255Y-109648894D01*
X125524802Y-109621455D01*
X125528140Y-109619813D01*
X125530241Y-109616742D01*
X125559762Y-109604266D01*
X125588514Y-109590130D01*
X125592209Y-109590553D01*
X125595638Y-109589105D01*
X125627217Y-109594570D01*
G37*
%TD.AperFunction*%
%TA.AperFunction,Conductor*%
G36*
X149525956Y-107943962D02*
G01*
X149546930Y-107960865D01*
X159168503Y-117582438D01*
X159202529Y-117644750D01*
X159197464Y-117715565D01*
X159154917Y-117772401D01*
X159132192Y-117785343D01*
X159132313Y-117785581D01*
X158944454Y-117881300D01*
X158777892Y-118002315D01*
X158777889Y-118002317D01*
X158632317Y-118147889D01*
X158632315Y-118147892D01*
X158511300Y-118314454D01*
X158417829Y-118497900D01*
X158417826Y-118497906D01*
X158354208Y-118693704D01*
X158345926Y-118746000D01*
X159318314Y-118746000D01*
X159309920Y-118754394D01*
X159257259Y-118845606D01*
X159230000Y-118947339D01*
X159230000Y-119052661D01*
X159257259Y-119154394D01*
X159309920Y-119245606D01*
X159318314Y-119254000D01*
X158345926Y-119254000D01*
X158354208Y-119306295D01*
X158417826Y-119502093D01*
X158417829Y-119502099D01*
X158511300Y-119685545D01*
X158632315Y-119852107D01*
X158632317Y-119852110D01*
X158777889Y-119997682D01*
X158777892Y-119997684D01*
X158944454Y-120118699D01*
X159132313Y-120214419D01*
X159131799Y-120215426D01*
X159182894Y-120256586D01*
X159205326Y-120323946D01*
X159187780Y-120392740D01*
X159168503Y-120417560D01*
X158686080Y-120899985D01*
X158623767Y-120934010D01*
X158596984Y-120936890D01*
X152425865Y-120936890D01*
X152338213Y-120960376D01*
X152282643Y-120975266D01*
X152178636Y-121035316D01*
X152154245Y-121049397D01*
X152154235Y-121049405D01*
X151949405Y-121254235D01*
X151949397Y-121254245D01*
X151875264Y-121382647D01*
X151875265Y-121382648D01*
X151836890Y-121525866D01*
X151836890Y-125036500D01*
X151816888Y-125104621D01*
X151763232Y-125151114D01*
X151710890Y-125162500D01*
X149358624Y-125162500D01*
X149290503Y-125142498D01*
X149269529Y-125125595D01*
X142581496Y-118437561D01*
X142547470Y-118375249D01*
X142552535Y-118304434D01*
X142595082Y-118247598D01*
X142617808Y-118234657D01*
X142617687Y-118234419D01*
X142805545Y-118138699D01*
X142972107Y-118017684D01*
X142972110Y-118017682D01*
X143117682Y-117872110D01*
X143117684Y-117872107D01*
X143238699Y-117705545D01*
X143332170Y-117522099D01*
X143332173Y-117522093D01*
X143395791Y-117326296D01*
X143428000Y-117122938D01*
X143428000Y-116874000D01*
X142431686Y-116874000D01*
X142440080Y-116865606D01*
X142492741Y-116774394D01*
X142520000Y-116672661D01*
X142520000Y-116567339D01*
X142492741Y-116465606D01*
X142440080Y-116374394D01*
X142431686Y-116366000D01*
X143428000Y-116366000D01*
X143428000Y-116117061D01*
X143395791Y-115913703D01*
X143332173Y-115717906D01*
X143332170Y-115717900D01*
X143238699Y-115534454D01*
X143117684Y-115367892D01*
X143117682Y-115367889D01*
X142972110Y-115222317D01*
X142972107Y-115222315D01*
X142805545Y-115101300D01*
X142622099Y-115007829D01*
X142622093Y-115007826D01*
X142426294Y-114944208D01*
X142426296Y-114944208D01*
X142374000Y-114935925D01*
X142374000Y-116308314D01*
X142365606Y-116299920D01*
X142274394Y-116247259D01*
X142172661Y-116220000D01*
X142067339Y-116220000D01*
X141965606Y-116247259D01*
X141874394Y-116299920D01*
X141866000Y-116308314D01*
X141866000Y-114935925D01*
X141813704Y-114944208D01*
X141613194Y-115009358D01*
X141612846Y-115008289D01*
X141547581Y-115015302D01*
X141484096Y-114983519D01*
X141447872Y-114922459D01*
X141443960Y-114891305D01*
X141443960Y-110584331D01*
X141463962Y-110516210D01*
X141517618Y-110469717D01*
X141587892Y-110459613D01*
X141627162Y-110472064D01*
X141667436Y-110492585D01*
X141843926Y-110549931D01*
X142027214Y-110578960D01*
X142027216Y-110578960D01*
X142212784Y-110578960D01*
X142212786Y-110578960D01*
X142396074Y-110549931D01*
X142572564Y-110492585D01*
X142737910Y-110408337D01*
X142888041Y-110299261D01*
X143019261Y-110168041D01*
X143128337Y-110017910D01*
X143212585Y-109852564D01*
X143269931Y-109676074D01*
X143298960Y-109492786D01*
X143298960Y-108507214D01*
X143269931Y-108323926D01*
X143212585Y-108147436D01*
X143192064Y-108107162D01*
X143178960Y-108037387D01*
X143205660Y-107971602D01*
X143263687Y-107930695D01*
X143304331Y-107923960D01*
X149457835Y-107923960D01*
X149525956Y-107943962D01*
G37*
%TD.AperFunction*%
%TA.AperFunction,Conductor*%
G36*
X163756763Y-105833112D02*
G01*
X163777737Y-105850015D01*
X166751675Y-108823953D01*
X166785701Y-108886265D01*
X166788580Y-108913048D01*
X166788580Y-108969066D01*
X166793448Y-108993538D01*
X166820225Y-109128154D01*
X166882300Y-109278014D01*
X166891572Y-109291890D01*
X166972418Y-109412886D01*
X166972423Y-109412892D01*
X167087107Y-109527576D01*
X167087113Y-109527581D01*
X167087115Y-109527583D01*
X167221986Y-109617700D01*
X167371846Y-109679775D01*
X167530936Y-109711420D01*
X167586951Y-109711420D01*
X167655072Y-109731422D01*
X167676046Y-109748324D01*
X168032034Y-110104311D01*
X168032055Y-110104334D01*
X168233315Y-110305594D01*
X168233320Y-110305598D01*
X168233322Y-110305600D01*
X168233323Y-110305601D01*
X168233325Y-110305602D01*
X168278653Y-110331772D01*
X168361727Y-110379735D01*
X168504945Y-110418110D01*
X168653214Y-110418110D01*
X173243220Y-110418110D01*
X173252045Y-110420701D01*
X173261152Y-110419392D01*
X173285577Y-110430547D01*
X173311341Y-110438112D01*
X173317365Y-110445065D01*
X173325732Y-110448886D01*
X173340246Y-110471471D01*
X173357834Y-110491768D01*
X173360158Y-110502454D01*
X173364116Y-110508612D01*
X173369220Y-110544110D01*
X173369220Y-110551105D01*
X173349218Y-110619226D01*
X173344089Y-110626612D01*
X173297735Y-110688534D01*
X173246685Y-110825406D01*
X173240180Y-110885902D01*
X173240180Y-111364097D01*
X173246685Y-111424593D01*
X173297735Y-111561464D01*
X173297735Y-111561465D01*
X173385275Y-111678404D01*
X173427512Y-111710022D01*
X173470059Y-111766858D01*
X173475123Y-111837674D01*
X173441098Y-111899986D01*
X173378786Y-111934011D01*
X173352003Y-111936890D01*
X163074135Y-111936890D01*
X162925865Y-111936890D01*
X162849117Y-111957454D01*
X162782650Y-111975264D01*
X162782643Y-111975267D01*
X162654245Y-112049397D01*
X162654235Y-112049405D01*
X162549405Y-112154235D01*
X162549397Y-112154245D01*
X162475267Y-112282643D01*
X162475264Y-112282650D01*
X162436890Y-112425866D01*
X162436890Y-120964562D01*
X162428106Y-120994477D01*
X162421478Y-121024947D01*
X162417663Y-121030042D01*
X162416888Y-121032683D01*
X162399985Y-121053657D01*
X162270655Y-121182987D01*
X162208343Y-121217013D01*
X162137528Y-121211948D01*
X162080692Y-121169401D01*
X162055881Y-121102881D01*
X162055560Y-121093892D01*
X162055560Y-118154414D01*
X162054865Y-118151819D01*
X162017185Y-118011196D01*
X161982200Y-117950600D01*
X161943051Y-117882791D01*
X161943047Y-117882787D01*
X161943045Y-117882784D01*
X150347217Y-106286955D01*
X150347207Y-106286947D01*
X150218810Y-106212817D01*
X150218807Y-106212816D01*
X150218806Y-106212815D01*
X150218804Y-106212814D01*
X150218803Y-106212814D01*
X150180427Y-106202531D01*
X150075588Y-106174440D01*
X139228315Y-106174440D01*
X139151567Y-106195004D01*
X139085100Y-106212814D01*
X139085093Y-106212817D01*
X138992547Y-106266249D01*
X138956695Y-106286947D01*
X138956685Y-106286955D01*
X137718711Y-107524929D01*
X137656399Y-107558955D01*
X137585583Y-107553890D01*
X137572422Y-107548105D01*
X137492564Y-107507415D01*
X137492563Y-107507414D01*
X137492562Y-107507414D01*
X137316076Y-107450069D01*
X137224430Y-107435554D01*
X137132786Y-107421040D01*
X136947214Y-107421040D01*
X136873898Y-107432651D01*
X136763923Y-107450069D01*
X136587437Y-107507414D01*
X136422086Y-107591665D01*
X136271956Y-107700741D01*
X136271953Y-107700743D01*
X136140743Y-107831953D01*
X136140741Y-107831956D01*
X136031665Y-107982086D01*
X135947414Y-108147437D01*
X135889833Y-108324652D01*
X135849759Y-108383257D01*
X135784362Y-108410894D01*
X135714405Y-108398787D01*
X135662100Y-108350780D01*
X135650167Y-108324652D01*
X135626103Y-108250593D01*
X135592585Y-108147436D01*
X135508337Y-107982090D01*
X135399261Y-107831959D01*
X135399258Y-107831956D01*
X135399256Y-107831953D01*
X135268046Y-107700743D01*
X135268043Y-107700741D01*
X135268041Y-107700739D01*
X135117910Y-107591663D01*
X134952564Y-107507415D01*
X134952563Y-107507414D01*
X134952562Y-107507414D01*
X134776076Y-107450069D01*
X134684430Y-107435554D01*
X134592786Y-107421040D01*
X134407214Y-107421040D01*
X134333898Y-107432651D01*
X134223923Y-107450069D01*
X134047437Y-107507414D01*
X133882086Y-107591665D01*
X133731956Y-107700741D01*
X133731953Y-107700743D01*
X133600743Y-107831953D01*
X133600741Y-107831956D01*
X133491665Y-107982086D01*
X133407414Y-108147437D01*
X133349833Y-108324652D01*
X133309759Y-108383257D01*
X133244362Y-108410894D01*
X133174405Y-108398787D01*
X133122100Y-108350780D01*
X133110167Y-108324652D01*
X133086103Y-108250593D01*
X133052585Y-108147436D01*
X132968337Y-107982090D01*
X132859261Y-107831959D01*
X132859258Y-107831956D01*
X132859256Y-107831953D01*
X132728046Y-107700743D01*
X132728043Y-107700741D01*
X132728041Y-107700739D01*
X132577910Y-107591663D01*
X132412564Y-107507415D01*
X132412563Y-107507414D01*
X132412562Y-107507414D01*
X132236076Y-107450069D01*
X132144430Y-107435554D01*
X132052786Y-107421040D01*
X131867214Y-107421040D01*
X131793898Y-107432651D01*
X131683923Y-107450069D01*
X131507437Y-107507414D01*
X131342086Y-107591665D01*
X131191956Y-107700741D01*
X131191953Y-107700743D01*
X131060743Y-107831953D01*
X131060741Y-107831956D01*
X130951665Y-107982086D01*
X130867414Y-108147437D01*
X130809833Y-108324652D01*
X130769759Y-108383257D01*
X130704362Y-108410894D01*
X130634405Y-108398787D01*
X130582100Y-108350780D01*
X130570167Y-108324652D01*
X130546103Y-108250593D01*
X130512585Y-108147436D01*
X130428337Y-107982090D01*
X130319261Y-107831959D01*
X130319258Y-107831956D01*
X130319256Y-107831953D01*
X130188046Y-107700743D01*
X130188043Y-107700741D01*
X130188041Y-107700739D01*
X130089741Y-107629320D01*
X130035049Y-107589584D01*
X129991695Y-107533362D01*
X129983110Y-107487648D01*
X129983110Y-107095865D01*
X129983109Y-107095863D01*
X129981146Y-107088538D01*
X129961408Y-107014874D01*
X129944735Y-106952647D01*
X129931664Y-106930007D01*
X129900404Y-106875864D01*
X129900404Y-106875865D01*
X129870600Y-106824242D01*
X129870595Y-106824237D01*
X129870593Y-106824234D01*
X129761369Y-106715010D01*
X129761346Y-106714989D01*
X129074562Y-106028205D01*
X129040536Y-105965893D01*
X129045601Y-105895078D01*
X129088148Y-105838242D01*
X129154668Y-105813431D01*
X129163657Y-105813110D01*
X163688642Y-105813110D01*
X163756763Y-105833112D01*
G37*
%TD.AperFunction*%
%TA.AperFunction,Conductor*%
G36*
X177815792Y-86616292D02*
G01*
X177836965Y-86633323D01*
X183649985Y-92446343D01*
X183684011Y-92508655D01*
X183686890Y-92535438D01*
X183686890Y-111810890D01*
X183666888Y-111879011D01*
X183613232Y-111925504D01*
X183560890Y-111936890D01*
X177644477Y-111936890D01*
X177576356Y-111916888D01*
X177529863Y-111863232D01*
X177519759Y-111792958D01*
X177549253Y-111728378D01*
X177568968Y-111710022D01*
X177611204Y-111678404D01*
X177698744Y-111561465D01*
X177698744Y-111561464D01*
X177749794Y-111424593D01*
X177756299Y-111364097D01*
X177756300Y-111364085D01*
X177756300Y-110885914D01*
X177756299Y-110885902D01*
X177749794Y-110825406D01*
X177698744Y-110688535D01*
X177698744Y-110688534D01*
X177652391Y-110626614D01*
X177627580Y-110560094D01*
X177627259Y-110551122D01*
X177627259Y-110263536D01*
X177616642Y-110190656D01*
X177616642Y-110154336D01*
X177627260Y-110081465D01*
X177627259Y-109628536D01*
X177616642Y-109555656D01*
X177616642Y-109519336D01*
X177627260Y-109446465D01*
X177627259Y-108993536D01*
X177616642Y-108920656D01*
X177616642Y-108884336D01*
X177627260Y-108811465D01*
X177627259Y-108358536D01*
X177616642Y-108285656D01*
X177616642Y-108249336D01*
X177627260Y-108176465D01*
X177627259Y-107723536D01*
X177616642Y-107650656D01*
X177616642Y-107614336D01*
X177627260Y-107541465D01*
X177627259Y-107088536D01*
X177616642Y-107015656D01*
X177616642Y-106979336D01*
X177627260Y-106906465D01*
X177627259Y-106453536D01*
X177616642Y-106380656D01*
X177616642Y-106344336D01*
X177627260Y-106271465D01*
X177627259Y-105818536D01*
X177616642Y-105745656D01*
X177616642Y-105709336D01*
X177627260Y-105636465D01*
X177627259Y-105183536D01*
X177616642Y-105110656D01*
X177616642Y-105074336D01*
X177627260Y-105001465D01*
X177627259Y-104548536D01*
X177616642Y-104475656D01*
X177616642Y-104439336D01*
X177627260Y-104366465D01*
X177627259Y-103913536D01*
X177616642Y-103840656D01*
X177616642Y-103804336D01*
X177627260Y-103731465D01*
X177627259Y-103278536D01*
X177616642Y-103205656D01*
X177616642Y-103169336D01*
X177627260Y-103096465D01*
X177627259Y-102808891D01*
X177647261Y-102740773D01*
X177652391Y-102733384D01*
X177698745Y-102671462D01*
X177749794Y-102534593D01*
X177756299Y-102474097D01*
X177756300Y-102474085D01*
X177756300Y-101995914D01*
X177756299Y-101995902D01*
X177749794Y-101935406D01*
X177698744Y-101798535D01*
X177698744Y-101798534D01*
X177652391Y-101736614D01*
X177644527Y-101715530D01*
X177632363Y-101696603D01*
X177629160Y-101674332D01*
X177627580Y-101670094D01*
X177627259Y-101661122D01*
X177627259Y-101538891D01*
X177647261Y-101470772D01*
X177647262Y-101470771D01*
X177652391Y-101463384D01*
X177698745Y-101401462D01*
X177749794Y-101264593D01*
X177756299Y-101204097D01*
X177756300Y-101204085D01*
X177756300Y-100725914D01*
X177756299Y-100725902D01*
X177749794Y-100665406D01*
X177698744Y-100528535D01*
X177698744Y-100528534D01*
X177652391Y-100466614D01*
X177644527Y-100445530D01*
X177632363Y-100426603D01*
X177629160Y-100404332D01*
X177627580Y-100400094D01*
X177627259Y-100391122D01*
X177627259Y-100268891D01*
X177647261Y-100200772D01*
X177652391Y-100193384D01*
X177698745Y-100131462D01*
X177749794Y-99994593D01*
X177756299Y-99934097D01*
X177756300Y-99934085D01*
X177756300Y-99455914D01*
X177756299Y-99455902D01*
X177749794Y-99395406D01*
X177698744Y-99258535D01*
X177698744Y-99258534D01*
X177652391Y-99196614D01*
X177644527Y-99175530D01*
X177632363Y-99156603D01*
X177629160Y-99134332D01*
X177627580Y-99130094D01*
X177627259Y-99121122D01*
X177627259Y-98998891D01*
X177647261Y-98930772D01*
X177652391Y-98923384D01*
X177698745Y-98861462D01*
X177749794Y-98724593D01*
X177756299Y-98664097D01*
X177756300Y-98664085D01*
X177756300Y-98185914D01*
X177756299Y-98185902D01*
X177749794Y-98125406D01*
X177698744Y-97988535D01*
X177698744Y-97988534D01*
X177652391Y-97926614D01*
X177644527Y-97905530D01*
X177632363Y-97886603D01*
X177629160Y-97864332D01*
X177627580Y-97860094D01*
X177627259Y-97851122D01*
X177627259Y-97728891D01*
X177647261Y-97660772D01*
X177652391Y-97653384D01*
X177698745Y-97591462D01*
X177749794Y-97454593D01*
X177756299Y-97394097D01*
X177756300Y-97394085D01*
X177756300Y-96915914D01*
X177756299Y-96915902D01*
X177749794Y-96855406D01*
X177698744Y-96718535D01*
X177698744Y-96718534D01*
X177652391Y-96656614D01*
X177627580Y-96590094D01*
X177627259Y-96581122D01*
X177627259Y-96293536D01*
X177616642Y-96220656D01*
X177616642Y-96184336D01*
X177627260Y-96111465D01*
X177627259Y-95658536D01*
X177616642Y-95585656D01*
X177616642Y-95549336D01*
X177627260Y-95476465D01*
X177627259Y-95188891D01*
X177647261Y-95120773D01*
X177652391Y-95113384D01*
X177698745Y-95051462D01*
X177749794Y-94914593D01*
X177756299Y-94854097D01*
X177756300Y-94854085D01*
X177756300Y-94375914D01*
X177756299Y-94375904D01*
X177749317Y-94310971D01*
X177749317Y-94284029D01*
X177756299Y-94219095D01*
X177756300Y-94219085D01*
X177756300Y-93740914D01*
X177756299Y-93740904D01*
X177749317Y-93675971D01*
X177749317Y-93649029D01*
X177756299Y-93584095D01*
X177756300Y-93584085D01*
X177756300Y-93105914D01*
X177756299Y-93105902D01*
X177749794Y-93045406D01*
X177698744Y-92908535D01*
X177698744Y-92908534D01*
X177652391Y-92846614D01*
X177644527Y-92825530D01*
X177632363Y-92806603D01*
X177629160Y-92784332D01*
X177627580Y-92780094D01*
X177627259Y-92771122D01*
X177627259Y-92648891D01*
X177647261Y-92580772D01*
X177647262Y-92580771D01*
X177652391Y-92573384D01*
X177698745Y-92511462D01*
X177749794Y-92374593D01*
X177756299Y-92314097D01*
X177756300Y-92314085D01*
X177756300Y-91835914D01*
X177756299Y-91835902D01*
X177749794Y-91775406D01*
X177698744Y-91638535D01*
X177698744Y-91638534D01*
X177652391Y-91576614D01*
X177644527Y-91555530D01*
X177632363Y-91536603D01*
X177629160Y-91514332D01*
X177627580Y-91510094D01*
X177627259Y-91501122D01*
X177627259Y-91378891D01*
X177647261Y-91310772D01*
X177652391Y-91303384D01*
X177698745Y-91241462D01*
X177749794Y-91104593D01*
X177756299Y-91044097D01*
X177756300Y-91044085D01*
X177756300Y-90565914D01*
X177756299Y-90565902D01*
X177749794Y-90505406D01*
X177698744Y-90368535D01*
X177698744Y-90368534D01*
X177652391Y-90306614D01*
X177627580Y-90240094D01*
X177627259Y-90231122D01*
X177627259Y-89943536D01*
X177616642Y-89870656D01*
X177616642Y-89834336D01*
X177627260Y-89761465D01*
X177627259Y-89308536D01*
X177616642Y-89235656D01*
X177616642Y-89199336D01*
X177627260Y-89126465D01*
X177627259Y-88673536D01*
X177616642Y-88600656D01*
X177616642Y-88564336D01*
X177627260Y-88491465D01*
X177627259Y-88038536D01*
X177616642Y-87965656D01*
X177616642Y-87929336D01*
X177627260Y-87856465D01*
X177627259Y-87403536D01*
X177616642Y-87330656D01*
X177616642Y-87294336D01*
X177627260Y-87221465D01*
X177627259Y-86768536D01*
X177623186Y-86740580D01*
X177633158Y-86670291D01*
X177679550Y-86616548D01*
X177747633Y-86596418D01*
X177815792Y-86616292D01*
G37*
%TD.AperFunction*%
%TA.AperFunction,Conductor*%
G36*
X123521622Y-93191683D02*
G01*
X123528205Y-93197812D01*
X126020374Y-95689981D01*
X126020388Y-95689996D01*
X126023549Y-95693157D01*
X126023550Y-95693158D01*
X126120382Y-95789990D01*
X126148285Y-95808634D01*
X126234242Y-95866069D01*
X126234243Y-95866069D01*
X126234244Y-95866070D01*
X126271295Y-95881416D01*
X126271299Y-95881419D01*
X126271300Y-95881418D01*
X126360760Y-95918475D01*
X126495070Y-95945191D01*
X126495071Y-95945191D01*
X126638224Y-95945191D01*
X126638244Y-95945190D01*
X149520017Y-95945190D01*
X149588138Y-95965192D01*
X149589997Y-95966410D01*
X149609946Y-95979740D01*
X149759806Y-96041815D01*
X149918896Y-96073460D01*
X149918897Y-96073460D01*
X150081104Y-96073460D01*
X150087270Y-96072853D01*
X150087313Y-96073293D01*
X150101259Y-96071920D01*
X170846146Y-96071920D01*
X170914267Y-96091922D01*
X170960760Y-96145578D01*
X170967853Y-96165309D01*
X170975264Y-96192970D01*
X170975267Y-96192977D01*
X171049397Y-96321374D01*
X171049399Y-96321376D01*
X171049400Y-96321378D01*
X172863778Y-98135755D01*
X172863780Y-98135758D01*
X172968622Y-98240600D01*
X173015965Y-98267933D01*
X173025242Y-98276047D01*
X173037948Y-98296021D01*
X173054284Y-98313153D01*
X173056646Y-98325413D01*
X173063350Y-98335950D01*
X173063240Y-98359625D01*
X173067720Y-98382867D01*
X173063079Y-98394458D01*
X173063022Y-98406946D01*
X173050132Y-98426800D01*
X173041334Y-98448778D01*
X173031161Y-98456021D01*
X173024363Y-98466494D01*
X173002785Y-98476227D01*
X172983502Y-98489960D01*
X172965716Y-98492950D01*
X172959647Y-98495689D01*
X172954222Y-98494883D01*
X172942291Y-98496890D01*
X150463629Y-98496890D01*
X150395508Y-98476888D01*
X150374534Y-98459985D01*
X150274932Y-98360383D01*
X150274926Y-98360378D01*
X150274925Y-98360377D01*
X150140054Y-98270260D01*
X149990194Y-98208185D01*
X149937164Y-98197636D01*
X149831106Y-98176540D01*
X149831104Y-98176540D01*
X149668896Y-98176540D01*
X149668893Y-98176540D01*
X149509806Y-98208185D01*
X149359946Y-98270260D01*
X149225073Y-98360378D01*
X149225067Y-98360383D01*
X149110383Y-98475067D01*
X149110378Y-98475073D01*
X149020260Y-98609946D01*
X148958185Y-98759806D01*
X148926540Y-98918893D01*
X148926540Y-99081106D01*
X148947636Y-99187164D01*
X148958185Y-99240194D01*
X149020260Y-99390054D01*
X149107260Y-99520260D01*
X149110378Y-99524926D01*
X149110383Y-99524932D01*
X149137246Y-99551795D01*
X149171272Y-99614107D01*
X149166207Y-99684922D01*
X149123660Y-99741758D01*
X149057140Y-99766569D01*
X149048151Y-99766890D01*
X148233533Y-99766890D01*
X148165412Y-99746888D01*
X148144862Y-99728588D01*
X148144000Y-99729451D01*
X148024932Y-99610383D01*
X148024926Y-99610378D01*
X147954290Y-99563181D01*
X147890054Y-99520260D01*
X147740194Y-99458185D01*
X147687164Y-99447636D01*
X147581106Y-99426540D01*
X147581104Y-99426540D01*
X147418896Y-99426540D01*
X147418893Y-99426540D01*
X147259806Y-99458185D01*
X147109946Y-99520260D01*
X146975073Y-99610378D01*
X146975067Y-99610383D01*
X146860383Y-99725067D01*
X146860378Y-99725073D01*
X146770260Y-99859946D01*
X146708185Y-100009806D01*
X146676540Y-100168893D01*
X146676540Y-100331109D01*
X146694214Y-100419959D01*
X146687886Y-100490673D01*
X146644332Y-100546740D01*
X146577379Y-100570359D01*
X146570635Y-100570540D01*
X135668758Y-100570540D01*
X135600637Y-100550538D01*
X135579667Y-100533639D01*
X135095428Y-100049400D01*
X135095426Y-100049399D01*
X135095424Y-100049397D01*
X134967020Y-99975263D01*
X134895414Y-99956076D01*
X134895414Y-99956077D01*
X134823805Y-99936890D01*
X132653628Y-99936890D01*
X132585507Y-99916888D01*
X132564532Y-99899984D01*
X132524932Y-99860383D01*
X132524926Y-99860378D01*
X132524925Y-99860377D01*
X132390054Y-99770260D01*
X132240194Y-99708185D01*
X132187164Y-99697636D01*
X132081106Y-99676540D01*
X132081104Y-99676540D01*
X131918896Y-99676540D01*
X131918893Y-99676540D01*
X131759806Y-99708185D01*
X131609946Y-99770260D01*
X131475073Y-99860378D01*
X131475067Y-99860383D01*
X131360383Y-99975067D01*
X131360378Y-99975073D01*
X131270260Y-100109946D01*
X131208185Y-100259806D01*
X131176540Y-100418893D01*
X131176540Y-100418896D01*
X131176540Y-100581104D01*
X131208185Y-100740194D01*
X131270260Y-100890054D01*
X131332773Y-100983612D01*
X131360378Y-101024926D01*
X131360383Y-101024932D01*
X131475067Y-101139616D01*
X131475073Y-101139621D01*
X131475075Y-101139623D01*
X131609946Y-101229740D01*
X131759806Y-101291815D01*
X131918896Y-101323460D01*
X131918897Y-101323460D01*
X132081103Y-101323460D01*
X132081104Y-101323460D01*
X132240194Y-101291815D01*
X132390054Y-101229740D01*
X132524925Y-101139623D01*
X132564532Y-101100016D01*
X132626843Y-101065990D01*
X132653628Y-101063110D01*
X133601087Y-101063110D01*
X133669208Y-101083112D01*
X133715701Y-101136768D01*
X133725805Y-101207042D01*
X133717496Y-101237328D01*
X133708185Y-101259805D01*
X133708185Y-101259806D01*
X133676540Y-101418893D01*
X133676540Y-101418896D01*
X133676540Y-101581104D01*
X133707472Y-101736612D01*
X133708185Y-101740193D01*
X133708185Y-101740194D01*
X133717496Y-101762672D01*
X133725085Y-101833262D01*
X133693305Y-101896749D01*
X133632247Y-101932976D01*
X133601087Y-101936890D01*
X129666918Y-101936890D01*
X129598797Y-101916888D01*
X129577823Y-101899985D01*
X123350015Y-95672177D01*
X123315989Y-95609865D01*
X123313110Y-95583082D01*
X123313110Y-93286907D01*
X123333112Y-93218786D01*
X123386768Y-93172293D01*
X123457042Y-93162189D01*
X123521622Y-93191683D01*
G37*
%TD.AperFunction*%
%TA.AperFunction,Conductor*%
G36*
X173123005Y-92005701D02*
G01*
X173132112Y-92004392D01*
X173156537Y-92015547D01*
X173182301Y-92023112D01*
X173188325Y-92030065D01*
X173196692Y-92033886D01*
X173211206Y-92056471D01*
X173228794Y-92076768D01*
X173231118Y-92087454D01*
X173235076Y-92093612D01*
X173240180Y-92129110D01*
X173240180Y-92314097D01*
X173246685Y-92374593D01*
X173297735Y-92511464D01*
X173297736Y-92511466D01*
X173344087Y-92573382D01*
X173351951Y-92594465D01*
X173364116Y-92613394D01*
X173367317Y-92635663D01*
X173368899Y-92639902D01*
X173369220Y-92648892D01*
X173369220Y-92771105D01*
X173349218Y-92839226D01*
X173344089Y-92846612D01*
X173297735Y-92908534D01*
X173246685Y-93045406D01*
X173240180Y-93105902D01*
X173240180Y-93584102D01*
X173247161Y-93649032D01*
X173247161Y-93675968D01*
X173240180Y-93740897D01*
X173240180Y-94219102D01*
X173247161Y-94284032D01*
X173247161Y-94310968D01*
X173240180Y-94375897D01*
X173240180Y-94560890D01*
X173220178Y-94629011D01*
X173166522Y-94675504D01*
X173114180Y-94686890D01*
X171607778Y-94686890D01*
X171583195Y-94684469D01*
X171568470Y-94681540D01*
X150648278Y-94681540D01*
X150580157Y-94661538D01*
X150559186Y-94644638D01*
X150524925Y-94610377D01*
X150390054Y-94520260D01*
X150240194Y-94458185D01*
X150187164Y-94447636D01*
X150081106Y-94426540D01*
X150081104Y-94426540D01*
X149918896Y-94426540D01*
X149918893Y-94426540D01*
X149759806Y-94458185D01*
X149609946Y-94520260D01*
X149590019Y-94533575D01*
X149522266Y-94554790D01*
X149520017Y-94554810D01*
X126903687Y-94554810D01*
X126835566Y-94534808D01*
X126814592Y-94517905D01*
X125055502Y-92758815D01*
X125021476Y-92696503D01*
X125026541Y-92625688D01*
X125069088Y-92568852D01*
X125074552Y-92564984D01*
X125149925Y-92514623D01*
X125264623Y-92399925D01*
X125354740Y-92265054D01*
X125416815Y-92115194D01*
X125418936Y-92104529D01*
X125451842Y-92041620D01*
X125513537Y-92006487D01*
X125542515Y-92003110D01*
X173114180Y-92003110D01*
X173123005Y-92005701D01*
G37*
%TD.AperFunction*%
%TA.AperFunction,Conductor*%
G36*
X175782683Y-68333112D02*
G01*
X175803657Y-68350015D01*
X179334605Y-71880963D01*
X179368631Y-71943275D01*
X179371510Y-71970058D01*
X179371510Y-74125013D01*
X179351508Y-74193134D01*
X179297852Y-74239627D01*
X179227578Y-74249731D01*
X179171449Y-74226949D01*
X179050738Y-74139248D01*
X179050737Y-74139247D01*
X179050735Y-74139246D01*
X178836215Y-74029942D01*
X178836212Y-74029941D01*
X178836210Y-74029940D01*
X178607243Y-73955544D01*
X178607239Y-73955543D01*
X178607238Y-73955543D01*
X178369441Y-73917880D01*
X178128679Y-73917880D01*
X177891848Y-73955390D01*
X177890876Y-73955544D01*
X177661909Y-74029940D01*
X177661903Y-74029943D01*
X177447381Y-74139248D01*
X177252602Y-74280764D01*
X177252599Y-74280766D01*
X177082366Y-74450999D01*
X177082364Y-74451002D01*
X176940848Y-74645781D01*
X176831543Y-74860303D01*
X176831540Y-74860309D01*
X176757144Y-75089276D01*
X176757143Y-75089281D01*
X176757143Y-75089282D01*
X176719480Y-75327079D01*
X176719480Y-75567841D01*
X176757143Y-75805638D01*
X176757144Y-75805643D01*
X176830349Y-76030944D01*
X176831542Y-76034615D01*
X176940846Y-76249135D01*
X176940848Y-76249138D01*
X176975836Y-76297294D01*
X177082362Y-76443915D01*
X177082364Y-76443917D01*
X177082366Y-76443920D01*
X177252599Y-76614153D01*
X177252602Y-76614155D01*
X177252605Y-76614158D01*
X177447385Y-76755674D01*
X177661905Y-76864978D01*
X177890882Y-76939377D01*
X178128679Y-76977040D01*
X178128682Y-76977040D01*
X178369438Y-76977040D01*
X178369441Y-76977040D01*
X178607238Y-76939377D01*
X178836215Y-76864978D01*
X179050735Y-76755674D01*
X179171449Y-76667969D01*
X179238317Y-76644112D01*
X179307468Y-76660192D01*
X179356948Y-76711106D01*
X179371510Y-76769906D01*
X179371510Y-80647041D01*
X179351508Y-80715162D01*
X179334605Y-80736136D01*
X177842354Y-82228386D01*
X177780042Y-82262412D01*
X177709226Y-82257347D01*
X177652391Y-82214800D01*
X177627580Y-82148280D01*
X177627259Y-82139318D01*
X177627259Y-81688536D01*
X177616642Y-81615656D01*
X177616643Y-81579335D01*
X177627260Y-81506465D01*
X177627259Y-81053536D01*
X177616642Y-80980656D01*
X177616643Y-80944335D01*
X177627260Y-80871465D01*
X177627259Y-80583891D01*
X177647261Y-80515773D01*
X177652391Y-80508384D01*
X177698745Y-80446462D01*
X177749794Y-80309593D01*
X177756299Y-80249097D01*
X177756300Y-80249085D01*
X177756300Y-79770914D01*
X177756299Y-79770902D01*
X177749794Y-79710406D01*
X177698744Y-79573535D01*
X177698744Y-79573534D01*
X177611204Y-79456595D01*
X177494265Y-79369055D01*
X177357393Y-79318005D01*
X177296897Y-79311500D01*
X176457202Y-79311500D01*
X176439194Y-79338450D01*
X175739009Y-80038635D01*
X175711640Y-80053579D01*
X175685412Y-80070436D01*
X175679113Y-80071341D01*
X175676697Y-80072661D01*
X175649914Y-80075540D01*
X175615970Y-80075540D01*
X175547849Y-80055538D01*
X175526874Y-80038635D01*
X175498239Y-80010000D01*
X175469604Y-80038636D01*
X175442231Y-80053582D01*
X175416007Y-80070436D01*
X175409706Y-80071341D01*
X175407291Y-80072661D01*
X175380509Y-80075540D01*
X175346564Y-80075540D01*
X175278443Y-80055538D01*
X175257469Y-80038635D01*
X174557286Y-79338452D01*
X174539277Y-79311500D01*
X175069145Y-79311500D01*
X175498239Y-79740594D01*
X175498241Y-79740594D01*
X175927334Y-79311500D01*
X175069145Y-79311500D01*
X174539277Y-79311500D01*
X173699582Y-79311500D01*
X173639086Y-79318005D01*
X173502215Y-79369055D01*
X173502214Y-79369055D01*
X173385275Y-79456595D01*
X173297735Y-79573534D01*
X173297735Y-79573535D01*
X173246685Y-79710406D01*
X173240180Y-79770902D01*
X173240180Y-80249097D01*
X173246685Y-80309593D01*
X173297735Y-80446464D01*
X173297735Y-80446465D01*
X173344088Y-80508384D01*
X173368899Y-80574904D01*
X173369220Y-80583893D01*
X173369220Y-80871462D01*
X173377218Y-80926360D01*
X173379836Y-80944333D01*
X173379837Y-80944335D01*
X173379837Y-80980665D01*
X173369220Y-81053533D01*
X173369220Y-81506462D01*
X173377218Y-81561360D01*
X173379836Y-81579333D01*
X173379837Y-81579335D01*
X173379837Y-81615665D01*
X173369220Y-81688533D01*
X173369220Y-82141462D01*
X173377218Y-82196360D01*
X173378566Y-82205615D01*
X173379837Y-82214335D01*
X173379837Y-82250665D01*
X173369220Y-82323533D01*
X173369220Y-82776462D01*
X173372668Y-82800128D01*
X173377462Y-82833037D01*
X173379837Y-82849335D01*
X173379837Y-82885665D01*
X173369220Y-82958533D01*
X173369220Y-83411462D01*
X173379837Y-83484335D01*
X173379837Y-83520663D01*
X173369220Y-83593535D01*
X173369220Y-83723926D01*
X173369221Y-83765889D01*
X173349219Y-83834010D01*
X173295564Y-83880503D01*
X173243221Y-83891890D01*
X170689110Y-83891890D01*
X170620989Y-83871888D01*
X170574496Y-83818232D01*
X170563110Y-83765890D01*
X170563110Y-74175866D01*
X170558562Y-74158894D01*
X170524735Y-74032648D01*
X170524735Y-74032647D01*
X170483054Y-73960454D01*
X170450602Y-73904245D01*
X170450594Y-73904235D01*
X167595764Y-71049405D01*
X167595754Y-71049397D01*
X167467357Y-70975267D01*
X167467354Y-70975266D01*
X167467353Y-70975265D01*
X167467351Y-70975264D01*
X167467350Y-70975264D01*
X167363489Y-70947435D01*
X167363487Y-70947434D01*
X167324135Y-70936890D01*
X164428288Y-70936890D01*
X164351540Y-70957454D01*
X164285073Y-70975264D01*
X164285066Y-70975267D01*
X164243268Y-70999400D01*
X164156668Y-71049397D01*
X164156658Y-71049405D01*
X161254084Y-73951979D01*
X161191772Y-73986005D01*
X161120956Y-73980940D01*
X161064121Y-73938393D01*
X161051398Y-73904282D01*
X161034075Y-73884000D01*
X160061686Y-73884000D01*
X160070080Y-73875606D01*
X160122741Y-73784394D01*
X160150000Y-73682661D01*
X160150000Y-73577339D01*
X160122741Y-73475606D01*
X160070080Y-73384394D01*
X160061686Y-73376000D01*
X161034074Y-73376000D01*
X161025791Y-73323704D01*
X160962173Y-73127906D01*
X160962170Y-73127900D01*
X160868699Y-72944454D01*
X160747684Y-72777892D01*
X160747682Y-72777889D01*
X160602110Y-72632317D01*
X160602107Y-72632315D01*
X160435545Y-72511300D01*
X160252099Y-72417829D01*
X160252093Y-72417826D01*
X160056294Y-72354208D01*
X160056296Y-72354208D01*
X160004000Y-72345925D01*
X160004000Y-73318314D01*
X159995606Y-73309920D01*
X159904394Y-73257259D01*
X159802661Y-73230000D01*
X159697339Y-73230000D01*
X159595606Y-73257259D01*
X159504394Y-73309920D01*
X159496000Y-73318314D01*
X159496000Y-72345925D01*
X159443704Y-72354208D01*
X159247906Y-72417826D01*
X159247900Y-72417829D01*
X159064454Y-72511300D01*
X158897892Y-72632315D01*
X158897889Y-72632317D01*
X158752317Y-72777889D01*
X158752315Y-72777892D01*
X158631300Y-72944454D01*
X158537829Y-73127900D01*
X158537826Y-73127906D01*
X158474208Y-73323704D01*
X158465926Y-73376000D01*
X159438314Y-73376000D01*
X159429920Y-73384394D01*
X159377259Y-73475606D01*
X159350000Y-73577339D01*
X159350000Y-73682661D01*
X159377259Y-73784394D01*
X159429920Y-73875606D01*
X159438314Y-73884000D01*
X158465926Y-73884000D01*
X158474208Y-73936295D01*
X158537826Y-74132093D01*
X158537829Y-74132099D01*
X158631300Y-74315545D01*
X158752315Y-74482107D01*
X158752317Y-74482110D01*
X158897889Y-74627682D01*
X158897892Y-74627684D01*
X159064454Y-74748699D01*
X159247900Y-74842170D01*
X159247906Y-74842173D01*
X159443705Y-74905791D01*
X159443717Y-74905794D01*
X159495999Y-74914074D01*
X159496000Y-74914074D01*
X159496000Y-73941686D01*
X159504394Y-73950080D01*
X159595606Y-74002741D01*
X159697339Y-74030000D01*
X159802661Y-74030000D01*
X159904394Y-74002741D01*
X159995606Y-73950080D01*
X160004000Y-73941686D01*
X160004000Y-74914074D01*
X160020196Y-74927907D01*
X160033585Y-74929638D01*
X160087899Y-74975360D01*
X160108872Y-75043188D01*
X160089845Y-75111588D01*
X160071980Y-75134083D01*
X156667561Y-78538502D01*
X156605249Y-78572528D01*
X156534434Y-78567463D01*
X156477598Y-78524916D01*
X156464656Y-78502191D01*
X156464419Y-78502313D01*
X156368699Y-78314454D01*
X156337583Y-78271626D01*
X156337581Y-78271626D01*
X155650000Y-78959207D01*
X155650000Y-78947339D01*
X155622741Y-78845606D01*
X155570080Y-78754394D01*
X155495606Y-78679920D01*
X155404394Y-78627259D01*
X155302661Y-78600000D01*
X155290790Y-78600000D01*
X155978372Y-77912416D01*
X155935541Y-77881298D01*
X155935540Y-77881297D01*
X155752099Y-77787829D01*
X155752093Y-77787826D01*
X155556294Y-77724208D01*
X155556298Y-77724208D01*
X155352939Y-77692000D01*
X155147061Y-77692000D01*
X154943703Y-77724208D01*
X154747906Y-77787826D01*
X154747900Y-77787829D01*
X154564452Y-77881301D01*
X154521625Y-77912416D01*
X155209209Y-78600000D01*
X155197339Y-78600000D01*
X155095606Y-78627259D01*
X155004394Y-78679920D01*
X154929920Y-78754394D01*
X154877259Y-78845606D01*
X154850000Y-78947339D01*
X154850000Y-78959211D01*
X154162415Y-78271626D01*
X154131301Y-78314453D01*
X154131299Y-78314455D01*
X154051376Y-78471312D01*
X154002628Y-78522927D01*
X153933713Y-78539992D01*
X153866511Y-78517091D01*
X153822360Y-78461493D01*
X153813110Y-78414108D01*
X153813110Y-68439110D01*
X153833112Y-68370989D01*
X153886768Y-68324496D01*
X153939110Y-68313110D01*
X175714562Y-68313110D01*
X175782683Y-68333112D01*
G37*
%TD.AperFunction*%
%TD*%
M02*
