%TF.GenerationSoftware,KiCad,Pcbnew,9.0.0*%
%TF.CreationDate,2025-03-26T11:16:54+02:00*%
%TF.ProjectId,xt-cf,78742d63-662e-46b6-9963-61645f706362,rev?*%
%TF.SameCoordinates,Original*%
%TF.FileFunction,Paste,Top*%
%TF.FilePolarity,Positive*%
%FSLAX46Y46*%
G04 Gerber Fmt 4.6, Leading zero omitted, Abs format (unit mm)*
G04 Created by KiCad (PCBNEW 9.0.0) date 2025-03-26 11:16:54*
%MOMM*%
%LPD*%
G01*
G04 APERTURE LIST*
%ADD10R,4.500880X2.999740*%
%ADD11R,3.500120X0.381000*%
G04 APERTURE END LIST*
D10*
%TO.C,P1*%
X196250040Y-119316500D03*
X196250040Y-71818500D03*
D11*
X175498240Y-111125000D03*
X175498240Y-109855000D03*
X175498240Y-108585000D03*
X175498240Y-107315000D03*
X175498240Y-106045000D03*
X175498240Y-104775000D03*
X175498240Y-103505000D03*
X175498240Y-102235000D03*
X175498240Y-100965000D03*
X175498240Y-99695000D03*
X175498240Y-98425000D03*
X175498240Y-97155000D03*
X175498240Y-95885000D03*
X175498240Y-94615000D03*
X175498240Y-93345000D03*
X175498240Y-92075000D03*
X175498240Y-90805000D03*
X175498240Y-89535000D03*
X175498240Y-88265000D03*
X175498240Y-86995000D03*
X175498240Y-85725000D03*
X175498240Y-84455000D03*
X175498240Y-83185000D03*
X175498240Y-81915000D03*
X175498240Y-80645000D03*
X175498240Y-110490000D03*
X175498240Y-109220000D03*
X175498240Y-107950000D03*
X175498240Y-106680000D03*
X175498240Y-105410000D03*
X175498240Y-104140000D03*
X175498240Y-102870000D03*
X175498240Y-101600000D03*
X175498240Y-100330000D03*
X175498240Y-99060000D03*
X175498240Y-97790000D03*
X175498240Y-96520000D03*
X175498240Y-95250000D03*
X175498240Y-93980000D03*
X175498240Y-92710000D03*
X175498240Y-91440000D03*
X175498240Y-90170000D03*
X175498240Y-88900000D03*
X175498240Y-87630000D03*
X175498240Y-86360000D03*
X175498240Y-85090000D03*
X175498240Y-83820000D03*
X175498240Y-82550000D03*
X175498240Y-81280000D03*
X175498240Y-80010000D03*
%TD*%
M02*
