%TF.GenerationSoftware,KiCad,Pcbnew,9.0.0*%
%TF.CreationDate,2025-03-26T11:16:54+02:00*%
%TF.ProjectId,xt-cf,78742d63-662e-46b6-9963-61645f706362,rev?*%
%TF.SameCoordinates,Original*%
%TF.FileFunction,Legend,Top*%
%TF.FilePolarity,Positive*%
%FSLAX46Y46*%
G04 Gerber Fmt 4.6, Leading zero omitted, Abs format (unit mm)*
G04 Created by KiCad (PCBNEW 9.0.0) date 2025-03-26 11:16:54*
%MOMM*%
%LPD*%
G01*
G04 APERTURE LIST*
%ADD10C,0.304800*%
%ADD11C,0.150000*%
%ADD12C,0.254000*%
%ADD13C,0.120000*%
%ADD14C,0.899160*%
%ADD15C,2.301240*%
%ADD16C,1.750060*%
G04 APERTURE END LIST*
D10*
X117449428Y-65188404D02*
X118465428Y-66712404D01*
X118465428Y-65188404D02*
X117449428Y-66712404D01*
X118828285Y-65188404D02*
X119699143Y-65188404D01*
X119263714Y-66712404D02*
X119263714Y-65188404D01*
X120207143Y-66131833D02*
X121368286Y-66131833D01*
X122964857Y-66567261D02*
X122892285Y-66639833D01*
X122892285Y-66639833D02*
X122674571Y-66712404D01*
X122674571Y-66712404D02*
X122529428Y-66712404D01*
X122529428Y-66712404D02*
X122311714Y-66639833D01*
X122311714Y-66639833D02*
X122166571Y-66494690D01*
X122166571Y-66494690D02*
X122094000Y-66349547D01*
X122094000Y-66349547D02*
X122021428Y-66059261D01*
X122021428Y-66059261D02*
X122021428Y-65841547D01*
X122021428Y-65841547D02*
X122094000Y-65551261D01*
X122094000Y-65551261D02*
X122166571Y-65406118D01*
X122166571Y-65406118D02*
X122311714Y-65260975D01*
X122311714Y-65260975D02*
X122529428Y-65188404D01*
X122529428Y-65188404D02*
X122674571Y-65188404D01*
X122674571Y-65188404D02*
X122892285Y-65260975D01*
X122892285Y-65260975D02*
X122964857Y-65333547D01*
X124126000Y-65914118D02*
X123618000Y-65914118D01*
X123618000Y-66712404D02*
X123618000Y-65188404D01*
X123618000Y-65188404D02*
X124343714Y-65188404D01*
X124924286Y-66131833D02*
X126085429Y-66131833D01*
X126811143Y-66712404D02*
X126811143Y-65188404D01*
X126811143Y-65188404D02*
X127391714Y-65188404D01*
X127391714Y-65188404D02*
X127536857Y-65260975D01*
X127536857Y-65260975D02*
X127609428Y-65333547D01*
X127609428Y-65333547D02*
X127682000Y-65478690D01*
X127682000Y-65478690D02*
X127682000Y-65696404D01*
X127682000Y-65696404D02*
X127609428Y-65841547D01*
X127609428Y-65841547D02*
X127536857Y-65914118D01*
X127536857Y-65914118D02*
X127391714Y-65986690D01*
X127391714Y-65986690D02*
X126811143Y-65986690D01*
X128335143Y-66712404D02*
X128335143Y-65696404D01*
X128335143Y-65188404D02*
X128262571Y-65260975D01*
X128262571Y-65260975D02*
X128335143Y-65333547D01*
X128335143Y-65333547D02*
X128407714Y-65260975D01*
X128407714Y-65260975D02*
X128335143Y-65188404D01*
X128335143Y-65188404D02*
X128335143Y-65333547D01*
X129714000Y-66639833D02*
X129568857Y-66712404D01*
X129568857Y-66712404D02*
X129278571Y-66712404D01*
X129278571Y-66712404D02*
X129133428Y-66639833D01*
X129133428Y-66639833D02*
X129060857Y-66567261D01*
X129060857Y-66567261D02*
X128988285Y-66422118D01*
X128988285Y-66422118D02*
X128988285Y-65986690D01*
X128988285Y-65986690D02*
X129060857Y-65841547D01*
X129060857Y-65841547D02*
X129133428Y-65768975D01*
X129133428Y-65768975D02*
X129278571Y-65696404D01*
X129278571Y-65696404D02*
X129568857Y-65696404D01*
X129568857Y-65696404D02*
X129714000Y-65768975D01*
X130584857Y-66712404D02*
X130439714Y-66639833D01*
X130439714Y-66639833D02*
X130367143Y-66567261D01*
X130367143Y-66567261D02*
X130294571Y-66422118D01*
X130294571Y-66422118D02*
X130294571Y-65986690D01*
X130294571Y-65986690D02*
X130367143Y-65841547D01*
X130367143Y-65841547D02*
X130439714Y-65768975D01*
X130439714Y-65768975D02*
X130584857Y-65696404D01*
X130584857Y-65696404D02*
X130802571Y-65696404D01*
X130802571Y-65696404D02*
X130947714Y-65768975D01*
X130947714Y-65768975D02*
X131020286Y-65841547D01*
X131020286Y-65841547D02*
X131092857Y-65986690D01*
X131092857Y-65986690D02*
X131092857Y-66422118D01*
X131092857Y-66422118D02*
X131020286Y-66567261D01*
X131020286Y-66567261D02*
X130947714Y-66639833D01*
X130947714Y-66639833D02*
X130802571Y-66712404D01*
X130802571Y-66712404D02*
X130584857Y-66712404D01*
X132689428Y-65188404D02*
X133197428Y-66712404D01*
X133197428Y-66712404D02*
X133705428Y-65188404D01*
X134794000Y-66639833D02*
X134648857Y-66712404D01*
X134648857Y-66712404D02*
X134358572Y-66712404D01*
X134358572Y-66712404D02*
X134213429Y-66639833D01*
X134213429Y-66639833D02*
X134140857Y-66494690D01*
X134140857Y-66494690D02*
X134140857Y-65914118D01*
X134140857Y-65914118D02*
X134213429Y-65768975D01*
X134213429Y-65768975D02*
X134358572Y-65696404D01*
X134358572Y-65696404D02*
X134648857Y-65696404D01*
X134648857Y-65696404D02*
X134794000Y-65768975D01*
X134794000Y-65768975D02*
X134866572Y-65914118D01*
X134866572Y-65914118D02*
X134866572Y-66059261D01*
X134866572Y-66059261D02*
X134140857Y-66204404D01*
X135519715Y-66712404D02*
X135519715Y-65696404D01*
X135519715Y-65986690D02*
X135592286Y-65841547D01*
X135592286Y-65841547D02*
X135664858Y-65768975D01*
X135664858Y-65768975D02*
X135810000Y-65696404D01*
X135810000Y-65696404D02*
X135955143Y-65696404D01*
X136390572Y-66639833D02*
X136535715Y-66712404D01*
X136535715Y-66712404D02*
X136826001Y-66712404D01*
X136826001Y-66712404D02*
X136971144Y-66639833D01*
X136971144Y-66639833D02*
X137043715Y-66494690D01*
X137043715Y-66494690D02*
X137043715Y-66422118D01*
X137043715Y-66422118D02*
X136971144Y-66276975D01*
X136971144Y-66276975D02*
X136826001Y-66204404D01*
X136826001Y-66204404D02*
X136608287Y-66204404D01*
X136608287Y-66204404D02*
X136463144Y-66131833D01*
X136463144Y-66131833D02*
X136390572Y-65986690D01*
X136390572Y-65986690D02*
X136390572Y-65914118D01*
X136390572Y-65914118D02*
X136463144Y-65768975D01*
X136463144Y-65768975D02*
X136608287Y-65696404D01*
X136608287Y-65696404D02*
X136826001Y-65696404D01*
X136826001Y-65696404D02*
X136971144Y-65768975D01*
X137696858Y-66712404D02*
X137696858Y-65696404D01*
X137696858Y-65188404D02*
X137624286Y-65260975D01*
X137624286Y-65260975D02*
X137696858Y-65333547D01*
X137696858Y-65333547D02*
X137769429Y-65260975D01*
X137769429Y-65260975D02*
X137696858Y-65188404D01*
X137696858Y-65188404D02*
X137696858Y-65333547D01*
X138640286Y-66712404D02*
X138495143Y-66639833D01*
X138495143Y-66639833D02*
X138422572Y-66567261D01*
X138422572Y-66567261D02*
X138350000Y-66422118D01*
X138350000Y-66422118D02*
X138350000Y-65986690D01*
X138350000Y-65986690D02*
X138422572Y-65841547D01*
X138422572Y-65841547D02*
X138495143Y-65768975D01*
X138495143Y-65768975D02*
X138640286Y-65696404D01*
X138640286Y-65696404D02*
X138858000Y-65696404D01*
X138858000Y-65696404D02*
X139003143Y-65768975D01*
X139003143Y-65768975D02*
X139075715Y-65841547D01*
X139075715Y-65841547D02*
X139148286Y-65986690D01*
X139148286Y-65986690D02*
X139148286Y-66422118D01*
X139148286Y-66422118D02*
X139075715Y-66567261D01*
X139075715Y-66567261D02*
X139003143Y-66639833D01*
X139003143Y-66639833D02*
X138858000Y-66712404D01*
X138858000Y-66712404D02*
X138640286Y-66712404D01*
X139801429Y-65696404D02*
X139801429Y-66712404D01*
X139801429Y-65841547D02*
X139874000Y-65768975D01*
X139874000Y-65768975D02*
X140019143Y-65696404D01*
X140019143Y-65696404D02*
X140236857Y-65696404D01*
X140236857Y-65696404D02*
X140382000Y-65768975D01*
X140382000Y-65768975D02*
X140454572Y-65914118D01*
X140454572Y-65914118D02*
X140454572Y-66712404D01*
X142631714Y-65188404D02*
X142776857Y-65188404D01*
X142776857Y-65188404D02*
X142922000Y-65260975D01*
X142922000Y-65260975D02*
X142994572Y-65333547D01*
X142994572Y-65333547D02*
X143067143Y-65478690D01*
X143067143Y-65478690D02*
X143139714Y-65768975D01*
X143139714Y-65768975D02*
X143139714Y-66131833D01*
X143139714Y-66131833D02*
X143067143Y-66422118D01*
X143067143Y-66422118D02*
X142994572Y-66567261D01*
X142994572Y-66567261D02*
X142922000Y-66639833D01*
X142922000Y-66639833D02*
X142776857Y-66712404D01*
X142776857Y-66712404D02*
X142631714Y-66712404D01*
X142631714Y-66712404D02*
X142486572Y-66639833D01*
X142486572Y-66639833D02*
X142414000Y-66567261D01*
X142414000Y-66567261D02*
X142341429Y-66422118D01*
X142341429Y-66422118D02*
X142268857Y-66131833D01*
X142268857Y-66131833D02*
X142268857Y-65768975D01*
X142268857Y-65768975D02*
X142341429Y-65478690D01*
X142341429Y-65478690D02*
X142414000Y-65333547D01*
X142414000Y-65333547D02*
X142486572Y-65260975D01*
X142486572Y-65260975D02*
X142631714Y-65188404D01*
X143792858Y-66567261D02*
X143865429Y-66639833D01*
X143865429Y-66639833D02*
X143792858Y-66712404D01*
X143792858Y-66712404D02*
X143720286Y-66639833D01*
X143720286Y-66639833D02*
X143792858Y-66567261D01*
X143792858Y-66567261D02*
X143792858Y-66712404D01*
X144446000Y-65333547D02*
X144518572Y-65260975D01*
X144518572Y-65260975D02*
X144663715Y-65188404D01*
X144663715Y-65188404D02*
X145026572Y-65188404D01*
X145026572Y-65188404D02*
X145171715Y-65260975D01*
X145171715Y-65260975D02*
X145244286Y-65333547D01*
X145244286Y-65333547D02*
X145316857Y-65478690D01*
X145316857Y-65478690D02*
X145316857Y-65623833D01*
X145316857Y-65623833D02*
X145244286Y-65841547D01*
X145244286Y-65841547D02*
X144373429Y-66712404D01*
X144373429Y-66712404D02*
X145316857Y-66712404D01*
X117159142Y-69020816D02*
X117086570Y-69093388D01*
X117086570Y-69093388D02*
X116868856Y-69165959D01*
X116868856Y-69165959D02*
X116723713Y-69165959D01*
X116723713Y-69165959D02*
X116505999Y-69093388D01*
X116505999Y-69093388D02*
X116360856Y-68948245D01*
X116360856Y-68948245D02*
X116288285Y-68803102D01*
X116288285Y-68803102D02*
X116215713Y-68512816D01*
X116215713Y-68512816D02*
X116215713Y-68295102D01*
X116215713Y-68295102D02*
X116288285Y-68004816D01*
X116288285Y-68004816D02*
X116360856Y-67859673D01*
X116360856Y-67859673D02*
X116505999Y-67714530D01*
X116505999Y-67714530D02*
X116723713Y-67641959D01*
X116723713Y-67641959D02*
X116868856Y-67641959D01*
X116868856Y-67641959D02*
X117086570Y-67714530D01*
X117086570Y-67714530D02*
X117159142Y-67787102D01*
X118029999Y-69165959D02*
X117884856Y-69093388D01*
X117884856Y-69093388D02*
X117812285Y-69020816D01*
X117812285Y-69020816D02*
X117739713Y-68875673D01*
X117739713Y-68875673D02*
X117739713Y-68440245D01*
X117739713Y-68440245D02*
X117812285Y-68295102D01*
X117812285Y-68295102D02*
X117884856Y-68222530D01*
X117884856Y-68222530D02*
X118029999Y-68149959D01*
X118029999Y-68149959D02*
X118247713Y-68149959D01*
X118247713Y-68149959D02*
X118392856Y-68222530D01*
X118392856Y-68222530D02*
X118465428Y-68295102D01*
X118465428Y-68295102D02*
X118537999Y-68440245D01*
X118537999Y-68440245D02*
X118537999Y-68875673D01*
X118537999Y-68875673D02*
X118465428Y-69020816D01*
X118465428Y-69020816D02*
X118392856Y-69093388D01*
X118392856Y-69093388D02*
X118247713Y-69165959D01*
X118247713Y-69165959D02*
X118029999Y-69165959D01*
X119191142Y-68149959D02*
X119191142Y-69673959D01*
X119191142Y-68222530D02*
X119336285Y-68149959D01*
X119336285Y-68149959D02*
X119626570Y-68149959D01*
X119626570Y-68149959D02*
X119771713Y-68222530D01*
X119771713Y-68222530D02*
X119844285Y-68295102D01*
X119844285Y-68295102D02*
X119916856Y-68440245D01*
X119916856Y-68440245D02*
X119916856Y-68875673D01*
X119916856Y-68875673D02*
X119844285Y-69020816D01*
X119844285Y-69020816D02*
X119771713Y-69093388D01*
X119771713Y-69093388D02*
X119626570Y-69165959D01*
X119626570Y-69165959D02*
X119336285Y-69165959D01*
X119336285Y-69165959D02*
X119191142Y-69093388D01*
X120424856Y-68149959D02*
X120787713Y-69165959D01*
X121150570Y-68149959D02*
X120787713Y-69165959D01*
X120787713Y-69165959D02*
X120642570Y-69528816D01*
X120642570Y-69528816D02*
X120569999Y-69601388D01*
X120569999Y-69601388D02*
X120424856Y-69673959D01*
X121731142Y-69165959D02*
X121731142Y-68149959D01*
X121731142Y-68440245D02*
X121803713Y-68295102D01*
X121803713Y-68295102D02*
X121876285Y-68222530D01*
X121876285Y-68222530D02*
X122021427Y-68149959D01*
X122021427Y-68149959D02*
X122166570Y-68149959D01*
X122674571Y-69165959D02*
X122674571Y-68149959D01*
X122674571Y-67641959D02*
X122601999Y-67714530D01*
X122601999Y-67714530D02*
X122674571Y-67787102D01*
X122674571Y-67787102D02*
X122747142Y-67714530D01*
X122747142Y-67714530D02*
X122674571Y-67641959D01*
X122674571Y-67641959D02*
X122674571Y-67787102D01*
X124053428Y-68149959D02*
X124053428Y-69383673D01*
X124053428Y-69383673D02*
X123980856Y-69528816D01*
X123980856Y-69528816D02*
X123908285Y-69601388D01*
X123908285Y-69601388D02*
X123763142Y-69673959D01*
X123763142Y-69673959D02*
X123545428Y-69673959D01*
X123545428Y-69673959D02*
X123400285Y-69601388D01*
X124053428Y-69093388D02*
X123908285Y-69165959D01*
X123908285Y-69165959D02*
X123617999Y-69165959D01*
X123617999Y-69165959D02*
X123472856Y-69093388D01*
X123472856Y-69093388D02*
X123400285Y-69020816D01*
X123400285Y-69020816D02*
X123327713Y-68875673D01*
X123327713Y-68875673D02*
X123327713Y-68440245D01*
X123327713Y-68440245D02*
X123400285Y-68295102D01*
X123400285Y-68295102D02*
X123472856Y-68222530D01*
X123472856Y-68222530D02*
X123617999Y-68149959D01*
X123617999Y-68149959D02*
X123908285Y-68149959D01*
X123908285Y-68149959D02*
X124053428Y-68222530D01*
X124779142Y-69165959D02*
X124779142Y-67641959D01*
X125432285Y-69165959D02*
X125432285Y-68367673D01*
X125432285Y-68367673D02*
X125359713Y-68222530D01*
X125359713Y-68222530D02*
X125214570Y-68149959D01*
X125214570Y-68149959D02*
X124996856Y-68149959D01*
X124996856Y-68149959D02*
X124851713Y-68222530D01*
X124851713Y-68222530D02*
X124779142Y-68295102D01*
X125940284Y-68149959D02*
X126520856Y-68149959D01*
X126157999Y-67641959D02*
X126157999Y-68948245D01*
X126157999Y-68948245D02*
X126230570Y-69093388D01*
X126230570Y-69093388D02*
X126375713Y-69165959D01*
X126375713Y-69165959D02*
X126520856Y-69165959D01*
X128625427Y-69746530D02*
X128552856Y-69673959D01*
X128552856Y-69673959D02*
X128407713Y-69456245D01*
X128407713Y-69456245D02*
X128335142Y-69311102D01*
X128335142Y-69311102D02*
X128262570Y-69093388D01*
X128262570Y-69093388D02*
X128189999Y-68730530D01*
X128189999Y-68730530D02*
X128189999Y-68440245D01*
X128189999Y-68440245D02*
X128262570Y-68077388D01*
X128262570Y-68077388D02*
X128335142Y-67859673D01*
X128335142Y-67859673D02*
X128407713Y-67714530D01*
X128407713Y-67714530D02*
X128552856Y-67496816D01*
X128552856Y-67496816D02*
X128625427Y-67424245D01*
X130076856Y-69020816D02*
X130004284Y-69093388D01*
X130004284Y-69093388D02*
X129786570Y-69165959D01*
X129786570Y-69165959D02*
X129641427Y-69165959D01*
X129641427Y-69165959D02*
X129423713Y-69093388D01*
X129423713Y-69093388D02*
X129278570Y-68948245D01*
X129278570Y-68948245D02*
X129205999Y-68803102D01*
X129205999Y-68803102D02*
X129133427Y-68512816D01*
X129133427Y-68512816D02*
X129133427Y-68295102D01*
X129133427Y-68295102D02*
X129205999Y-68004816D01*
X129205999Y-68004816D02*
X129278570Y-67859673D01*
X129278570Y-67859673D02*
X129423713Y-67714530D01*
X129423713Y-67714530D02*
X129641427Y-67641959D01*
X129641427Y-67641959D02*
X129786570Y-67641959D01*
X129786570Y-67641959D02*
X130004284Y-67714530D01*
X130004284Y-67714530D02*
X130076856Y-67787102D01*
X130584856Y-69746530D02*
X130657427Y-69673959D01*
X130657427Y-69673959D02*
X130802570Y-69456245D01*
X130802570Y-69456245D02*
X130875142Y-69311102D01*
X130875142Y-69311102D02*
X130947713Y-69093388D01*
X130947713Y-69093388D02*
X131020284Y-68730530D01*
X131020284Y-68730530D02*
X131020284Y-68440245D01*
X131020284Y-68440245D02*
X130947713Y-68077388D01*
X130947713Y-68077388D02*
X130875142Y-67859673D01*
X130875142Y-67859673D02*
X130802570Y-67714530D01*
X130802570Y-67714530D02*
X130657427Y-67496816D01*
X130657427Y-67496816D02*
X130584856Y-67424245D01*
X132834570Y-67787102D02*
X132907142Y-67714530D01*
X132907142Y-67714530D02*
X133052285Y-67641959D01*
X133052285Y-67641959D02*
X133415142Y-67641959D01*
X133415142Y-67641959D02*
X133560285Y-67714530D01*
X133560285Y-67714530D02*
X133632856Y-67787102D01*
X133632856Y-67787102D02*
X133705427Y-67932245D01*
X133705427Y-67932245D02*
X133705427Y-68077388D01*
X133705427Y-68077388D02*
X133632856Y-68295102D01*
X133632856Y-68295102D02*
X132761999Y-69165959D01*
X132761999Y-69165959D02*
X133705427Y-69165959D01*
X134648856Y-67641959D02*
X134793999Y-67641959D01*
X134793999Y-67641959D02*
X134939142Y-67714530D01*
X134939142Y-67714530D02*
X135011714Y-67787102D01*
X135011714Y-67787102D02*
X135084285Y-67932245D01*
X135084285Y-67932245D02*
X135156856Y-68222530D01*
X135156856Y-68222530D02*
X135156856Y-68585388D01*
X135156856Y-68585388D02*
X135084285Y-68875673D01*
X135084285Y-68875673D02*
X135011714Y-69020816D01*
X135011714Y-69020816D02*
X134939142Y-69093388D01*
X134939142Y-69093388D02*
X134793999Y-69165959D01*
X134793999Y-69165959D02*
X134648856Y-69165959D01*
X134648856Y-69165959D02*
X134503714Y-69093388D01*
X134503714Y-69093388D02*
X134431142Y-69020816D01*
X134431142Y-69020816D02*
X134358571Y-68875673D01*
X134358571Y-68875673D02*
X134285999Y-68585388D01*
X134285999Y-68585388D02*
X134285999Y-68222530D01*
X134285999Y-68222530D02*
X134358571Y-67932245D01*
X134358571Y-67932245D02*
X134431142Y-67787102D01*
X134431142Y-67787102D02*
X134503714Y-67714530D01*
X134503714Y-67714530D02*
X134648856Y-67641959D01*
X135737428Y-67787102D02*
X135810000Y-67714530D01*
X135810000Y-67714530D02*
X135955143Y-67641959D01*
X135955143Y-67641959D02*
X136318000Y-67641959D01*
X136318000Y-67641959D02*
X136463143Y-67714530D01*
X136463143Y-67714530D02*
X136535714Y-67787102D01*
X136535714Y-67787102D02*
X136608285Y-67932245D01*
X136608285Y-67932245D02*
X136608285Y-68077388D01*
X136608285Y-68077388D02*
X136535714Y-68295102D01*
X136535714Y-68295102D02*
X135664857Y-69165959D01*
X135664857Y-69165959D02*
X136608285Y-69165959D01*
X137987143Y-67641959D02*
X137261429Y-67641959D01*
X137261429Y-67641959D02*
X137188857Y-68367673D01*
X137188857Y-68367673D02*
X137261429Y-68295102D01*
X137261429Y-68295102D02*
X137406572Y-68222530D01*
X137406572Y-68222530D02*
X137769429Y-68222530D01*
X137769429Y-68222530D02*
X137914572Y-68295102D01*
X137914572Y-68295102D02*
X137987143Y-68367673D01*
X137987143Y-68367673D02*
X138059714Y-68512816D01*
X138059714Y-68512816D02*
X138059714Y-68875673D01*
X138059714Y-68875673D02*
X137987143Y-69020816D01*
X137987143Y-69020816D02*
X137914572Y-69093388D01*
X137914572Y-69093388D02*
X137769429Y-69165959D01*
X137769429Y-69165959D02*
X137406572Y-69165959D01*
X137406572Y-69165959D02*
X137261429Y-69093388D01*
X137261429Y-69093388D02*
X137188857Y-69020816D01*
X140164286Y-68440245D02*
X140164286Y-69165959D01*
X139656286Y-67641959D02*
X140164286Y-68440245D01*
X140164286Y-68440245D02*
X140672286Y-67641959D01*
X141470572Y-67641959D02*
X141760858Y-67641959D01*
X141760858Y-67641959D02*
X141906001Y-67714530D01*
X141906001Y-67714530D02*
X142051144Y-67859673D01*
X142051144Y-67859673D02*
X142123715Y-68149959D01*
X142123715Y-68149959D02*
X142123715Y-68657959D01*
X142123715Y-68657959D02*
X142051144Y-68948245D01*
X142051144Y-68948245D02*
X141906001Y-69093388D01*
X141906001Y-69093388D02*
X141760858Y-69165959D01*
X141760858Y-69165959D02*
X141470572Y-69165959D01*
X141470572Y-69165959D02*
X141325430Y-69093388D01*
X141325430Y-69093388D02*
X141180287Y-68948245D01*
X141180287Y-68948245D02*
X141107715Y-68657959D01*
X141107715Y-68657959D02*
X141107715Y-68149959D01*
X141107715Y-68149959D02*
X141180287Y-67859673D01*
X141180287Y-67859673D02*
X141325430Y-67714530D01*
X141325430Y-67714530D02*
X141470572Y-67641959D01*
X143502572Y-67641959D02*
X142776858Y-67641959D01*
X142776858Y-67641959D02*
X142704286Y-68367673D01*
X142704286Y-68367673D02*
X142776858Y-68295102D01*
X142776858Y-68295102D02*
X142922001Y-68222530D01*
X142922001Y-68222530D02*
X143284858Y-68222530D01*
X143284858Y-68222530D02*
X143430001Y-68295102D01*
X143430001Y-68295102D02*
X143502572Y-68367673D01*
X143502572Y-68367673D02*
X143575143Y-68512816D01*
X143575143Y-68512816D02*
X143575143Y-68875673D01*
X143575143Y-68875673D02*
X143502572Y-69020816D01*
X143502572Y-69020816D02*
X143430001Y-69093388D01*
X143430001Y-69093388D02*
X143284858Y-69165959D01*
X143284858Y-69165959D02*
X142922001Y-69165959D01*
X142922001Y-69165959D02*
X142776858Y-69093388D01*
X142776858Y-69093388D02*
X142704286Y-69020816D01*
X144228287Y-69165959D02*
X144228287Y-67641959D01*
X144228287Y-67641959D02*
X144808858Y-67641959D01*
X144808858Y-67641959D02*
X144954001Y-67714530D01*
X144954001Y-67714530D02*
X145026572Y-67787102D01*
X145026572Y-67787102D02*
X145099144Y-67932245D01*
X145099144Y-67932245D02*
X145099144Y-68149959D01*
X145099144Y-68149959D02*
X145026572Y-68295102D01*
X145026572Y-68295102D02*
X144954001Y-68367673D01*
X144954001Y-68367673D02*
X144808858Y-68440245D01*
X144808858Y-68440245D02*
X144228287Y-68440245D01*
X145534572Y-67641959D02*
X146405430Y-67641959D01*
X145970001Y-69165959D02*
X145970001Y-67641959D01*
X146913430Y-69165959D02*
X146913430Y-67641959D01*
X146913430Y-67641959D02*
X147276287Y-67641959D01*
X147276287Y-67641959D02*
X147494001Y-67714530D01*
X147494001Y-67714530D02*
X147639144Y-67859673D01*
X147639144Y-67859673D02*
X147711715Y-68004816D01*
X147711715Y-68004816D02*
X147784287Y-68295102D01*
X147784287Y-68295102D02*
X147784287Y-68512816D01*
X147784287Y-68512816D02*
X147711715Y-68803102D01*
X147711715Y-68803102D02*
X147639144Y-68948245D01*
X147639144Y-68948245D02*
X147494001Y-69093388D01*
X147494001Y-69093388D02*
X147276287Y-69165959D01*
X147276287Y-69165959D02*
X146913430Y-69165959D01*
D11*
X143704819Y-109011904D02*
X144514342Y-109011904D01*
X144514342Y-109011904D02*
X144609580Y-108964285D01*
X144609580Y-108964285D02*
X144657200Y-108916666D01*
X144657200Y-108916666D02*
X144704819Y-108821428D01*
X144704819Y-108821428D02*
X144704819Y-108630952D01*
X144704819Y-108630952D02*
X144657200Y-108535714D01*
X144657200Y-108535714D02*
X144609580Y-108488095D01*
X144609580Y-108488095D02*
X144514342Y-108440476D01*
X144514342Y-108440476D02*
X143704819Y-108440476D01*
X144704819Y-107440476D02*
X144704819Y-108011904D01*
X144704819Y-107726190D02*
X143704819Y-107726190D01*
X143704819Y-107726190D02*
X143847676Y-107821428D01*
X143847676Y-107821428D02*
X143942914Y-107916666D01*
X143942914Y-107916666D02*
X143990533Y-108011904D01*
X145204819Y-117678571D02*
X144204819Y-117678571D01*
X144204819Y-117678571D02*
X144204819Y-117297619D01*
X144204819Y-117297619D02*
X144252438Y-117202381D01*
X144252438Y-117202381D02*
X144300057Y-117154762D01*
X144300057Y-117154762D02*
X144395295Y-117107143D01*
X144395295Y-117107143D02*
X144538152Y-117107143D01*
X144538152Y-117107143D02*
X144633390Y-117154762D01*
X144633390Y-117154762D02*
X144681009Y-117202381D01*
X144681009Y-117202381D02*
X144728628Y-117297619D01*
X144728628Y-117297619D02*
X144728628Y-117678571D01*
X144919104Y-116726190D02*
X144919104Y-116250000D01*
X145204819Y-116821428D02*
X144204819Y-116488095D01*
X144204819Y-116488095D02*
X145204819Y-116154762D01*
X145204819Y-115345238D02*
X145204819Y-115821428D01*
X145204819Y-115821428D02*
X144204819Y-115821428D01*
X144300057Y-115059523D02*
X144252438Y-115011904D01*
X144252438Y-115011904D02*
X144204819Y-114916666D01*
X144204819Y-114916666D02*
X144204819Y-114678571D01*
X144204819Y-114678571D02*
X144252438Y-114583333D01*
X144252438Y-114583333D02*
X144300057Y-114535714D01*
X144300057Y-114535714D02*
X144395295Y-114488095D01*
X144395295Y-114488095D02*
X144490533Y-114488095D01*
X144490533Y-114488095D02*
X144633390Y-114535714D01*
X144633390Y-114535714D02*
X145204819Y-115107142D01*
X145204819Y-115107142D02*
X145204819Y-114488095D01*
X144204819Y-113869047D02*
X144204819Y-113773809D01*
X144204819Y-113773809D02*
X144252438Y-113678571D01*
X144252438Y-113678571D02*
X144300057Y-113630952D01*
X144300057Y-113630952D02*
X144395295Y-113583333D01*
X144395295Y-113583333D02*
X144585771Y-113535714D01*
X144585771Y-113535714D02*
X144823866Y-113535714D01*
X144823866Y-113535714D02*
X145014342Y-113583333D01*
X145014342Y-113583333D02*
X145109580Y-113630952D01*
X145109580Y-113630952D02*
X145157200Y-113678571D01*
X145157200Y-113678571D02*
X145204819Y-113773809D01*
X145204819Y-113773809D02*
X145204819Y-113869047D01*
X145204819Y-113869047D02*
X145157200Y-113964285D01*
X145157200Y-113964285D02*
X145109580Y-114011904D01*
X145109580Y-114011904D02*
X145014342Y-114059523D01*
X145014342Y-114059523D02*
X144823866Y-114107142D01*
X144823866Y-114107142D02*
X144585771Y-114107142D01*
X144585771Y-114107142D02*
X144395295Y-114059523D01*
X144395295Y-114059523D02*
X144300057Y-114011904D01*
X144300057Y-114011904D02*
X144252438Y-113964285D01*
X144252438Y-113964285D02*
X144204819Y-113869047D01*
X145204819Y-112630952D02*
X145204819Y-113107142D01*
X145204819Y-113107142D02*
X144204819Y-113107142D01*
X144633390Y-112154761D02*
X144585771Y-112249999D01*
X144585771Y-112249999D02*
X144538152Y-112297618D01*
X144538152Y-112297618D02*
X144442914Y-112345237D01*
X144442914Y-112345237D02*
X144395295Y-112345237D01*
X144395295Y-112345237D02*
X144300057Y-112297618D01*
X144300057Y-112297618D02*
X144252438Y-112249999D01*
X144252438Y-112249999D02*
X144204819Y-112154761D01*
X144204819Y-112154761D02*
X144204819Y-111964285D01*
X144204819Y-111964285D02*
X144252438Y-111869047D01*
X144252438Y-111869047D02*
X144300057Y-111821428D01*
X144300057Y-111821428D02*
X144395295Y-111773809D01*
X144395295Y-111773809D02*
X144442914Y-111773809D01*
X144442914Y-111773809D02*
X144538152Y-111821428D01*
X144538152Y-111821428D02*
X144585771Y-111869047D01*
X144585771Y-111869047D02*
X144633390Y-111964285D01*
X144633390Y-111964285D02*
X144633390Y-112154761D01*
X144633390Y-112154761D02*
X144681009Y-112249999D01*
X144681009Y-112249999D02*
X144728628Y-112297618D01*
X144728628Y-112297618D02*
X144823866Y-112345237D01*
X144823866Y-112345237D02*
X145014342Y-112345237D01*
X145014342Y-112345237D02*
X145109580Y-112297618D01*
X145109580Y-112297618D02*
X145157200Y-112249999D01*
X145157200Y-112249999D02*
X145204819Y-112154761D01*
X145204819Y-112154761D02*
X145204819Y-111964285D01*
X145204819Y-111964285D02*
X145157200Y-111869047D01*
X145157200Y-111869047D02*
X145109580Y-111821428D01*
X145109580Y-111821428D02*
X145014342Y-111773809D01*
X145014342Y-111773809D02*
X144823866Y-111773809D01*
X144823866Y-111773809D02*
X144728628Y-111821428D01*
X144728628Y-111821428D02*
X144681009Y-111869047D01*
X144681009Y-111869047D02*
X144633390Y-111964285D01*
X153109580Y-81666666D02*
X153157200Y-81714285D01*
X153157200Y-81714285D02*
X153204819Y-81857142D01*
X153204819Y-81857142D02*
X153204819Y-81952380D01*
X153204819Y-81952380D02*
X153157200Y-82095237D01*
X153157200Y-82095237D02*
X153061961Y-82190475D01*
X153061961Y-82190475D02*
X152966723Y-82238094D01*
X152966723Y-82238094D02*
X152776247Y-82285713D01*
X152776247Y-82285713D02*
X152633390Y-82285713D01*
X152633390Y-82285713D02*
X152442914Y-82238094D01*
X152442914Y-82238094D02*
X152347676Y-82190475D01*
X152347676Y-82190475D02*
X152252438Y-82095237D01*
X152252438Y-82095237D02*
X152204819Y-81952380D01*
X152204819Y-81952380D02*
X152204819Y-81857142D01*
X152204819Y-81857142D02*
X152252438Y-81714285D01*
X152252438Y-81714285D02*
X152300057Y-81666666D01*
X153204819Y-80714285D02*
X153204819Y-81285713D01*
X153204819Y-80999999D02*
X152204819Y-80999999D01*
X152204819Y-80999999D02*
X152347676Y-81095237D01*
X152347676Y-81095237D02*
X152442914Y-81190475D01*
X152442914Y-81190475D02*
X152490533Y-81285713D01*
X155704819Y-82619047D02*
X155704819Y-83190475D01*
X155704819Y-82904761D02*
X154704819Y-82904761D01*
X154704819Y-82904761D02*
X154847676Y-82999999D01*
X154847676Y-82999999D02*
X154942914Y-83095237D01*
X154942914Y-83095237D02*
X154990533Y-83190475D01*
X154704819Y-81999999D02*
X154704819Y-81904761D01*
X154704819Y-81904761D02*
X154752438Y-81809523D01*
X154752438Y-81809523D02*
X154800057Y-81761904D01*
X154800057Y-81761904D02*
X154895295Y-81714285D01*
X154895295Y-81714285D02*
X155085771Y-81666666D01*
X155085771Y-81666666D02*
X155323866Y-81666666D01*
X155323866Y-81666666D02*
X155514342Y-81714285D01*
X155514342Y-81714285D02*
X155609580Y-81761904D01*
X155609580Y-81761904D02*
X155657200Y-81809523D01*
X155657200Y-81809523D02*
X155704819Y-81904761D01*
X155704819Y-81904761D02*
X155704819Y-81999999D01*
X155704819Y-81999999D02*
X155657200Y-82095237D01*
X155657200Y-82095237D02*
X155609580Y-82142856D01*
X155609580Y-82142856D02*
X155514342Y-82190475D01*
X155514342Y-82190475D02*
X155323866Y-82238094D01*
X155323866Y-82238094D02*
X155085771Y-82238094D01*
X155085771Y-82238094D02*
X154895295Y-82190475D01*
X154895295Y-82190475D02*
X154800057Y-82142856D01*
X154800057Y-82142856D02*
X154752438Y-82095237D01*
X154752438Y-82095237D02*
X154704819Y-81999999D01*
X154704819Y-81047618D02*
X154704819Y-80952380D01*
X154704819Y-80952380D02*
X154752438Y-80857142D01*
X154752438Y-80857142D02*
X154800057Y-80809523D01*
X154800057Y-80809523D02*
X154895295Y-80761904D01*
X154895295Y-80761904D02*
X155085771Y-80714285D01*
X155085771Y-80714285D02*
X155323866Y-80714285D01*
X155323866Y-80714285D02*
X155514342Y-80761904D01*
X155514342Y-80761904D02*
X155609580Y-80809523D01*
X155609580Y-80809523D02*
X155657200Y-80857142D01*
X155657200Y-80857142D02*
X155704819Y-80952380D01*
X155704819Y-80952380D02*
X155704819Y-81047618D01*
X155704819Y-81047618D02*
X155657200Y-81142856D01*
X155657200Y-81142856D02*
X155609580Y-81190475D01*
X155609580Y-81190475D02*
X155514342Y-81238094D01*
X155514342Y-81238094D02*
X155323866Y-81285713D01*
X155323866Y-81285713D02*
X155085771Y-81285713D01*
X155085771Y-81285713D02*
X154895295Y-81238094D01*
X154895295Y-81238094D02*
X154800057Y-81190475D01*
X154800057Y-81190475D02*
X154752438Y-81142856D01*
X154752438Y-81142856D02*
X154704819Y-81047618D01*
X155038152Y-80285713D02*
X155704819Y-80285713D01*
X155133390Y-80285713D02*
X155085771Y-80238094D01*
X155085771Y-80238094D02*
X155038152Y-80142856D01*
X155038152Y-80142856D02*
X155038152Y-79999999D01*
X155038152Y-79999999D02*
X155085771Y-79904761D01*
X155085771Y-79904761D02*
X155181009Y-79857142D01*
X155181009Y-79857142D02*
X155704819Y-79857142D01*
X113833333Y-100734819D02*
X113500000Y-100258628D01*
X113261905Y-100734819D02*
X113261905Y-99734819D01*
X113261905Y-99734819D02*
X113642857Y-99734819D01*
X113642857Y-99734819D02*
X113738095Y-99782438D01*
X113738095Y-99782438D02*
X113785714Y-99830057D01*
X113785714Y-99830057D02*
X113833333Y-99925295D01*
X113833333Y-99925295D02*
X113833333Y-100068152D01*
X113833333Y-100068152D02*
X113785714Y-100163390D01*
X113785714Y-100163390D02*
X113738095Y-100211009D01*
X113738095Y-100211009D02*
X113642857Y-100258628D01*
X113642857Y-100258628D02*
X113261905Y-100258628D01*
X114785714Y-100734819D02*
X114214286Y-100734819D01*
X114500000Y-100734819D02*
X114500000Y-99734819D01*
X114500000Y-99734819D02*
X114404762Y-99877676D01*
X114404762Y-99877676D02*
X114309524Y-99972914D01*
X114309524Y-99972914D02*
X114214286Y-100020533D01*
X110738095Y-102038152D02*
X110738095Y-102704819D01*
X110500000Y-101657200D02*
X110261905Y-102371485D01*
X110261905Y-102371485D02*
X110880952Y-102371485D01*
X111166667Y-101704819D02*
X111833333Y-101704819D01*
X111833333Y-101704819D02*
X111404762Y-102704819D01*
X112404762Y-101704819D02*
X112500000Y-101704819D01*
X112500000Y-101704819D02*
X112595238Y-101752438D01*
X112595238Y-101752438D02*
X112642857Y-101800057D01*
X112642857Y-101800057D02*
X112690476Y-101895295D01*
X112690476Y-101895295D02*
X112738095Y-102085771D01*
X112738095Y-102085771D02*
X112738095Y-102323866D01*
X112738095Y-102323866D02*
X112690476Y-102514342D01*
X112690476Y-102514342D02*
X112642857Y-102609580D01*
X112642857Y-102609580D02*
X112595238Y-102657200D01*
X112595238Y-102657200D02*
X112500000Y-102704819D01*
X112500000Y-102704819D02*
X112404762Y-102704819D01*
X112404762Y-102704819D02*
X112309524Y-102657200D01*
X112309524Y-102657200D02*
X112261905Y-102609580D01*
X112261905Y-102609580D02*
X112214286Y-102514342D01*
X112214286Y-102514342D02*
X112166667Y-102323866D01*
X112166667Y-102323866D02*
X112166667Y-102085771D01*
X112166667Y-102085771D02*
X112214286Y-101895295D01*
X112214286Y-101895295D02*
X112261905Y-101800057D01*
X112261905Y-101800057D02*
X112309524Y-101752438D01*
X112309524Y-101752438D02*
X112404762Y-101704819D01*
X163234819Y-81416666D02*
X162758628Y-81749999D01*
X163234819Y-81988094D02*
X162234819Y-81988094D01*
X162234819Y-81988094D02*
X162234819Y-81607142D01*
X162234819Y-81607142D02*
X162282438Y-81511904D01*
X162282438Y-81511904D02*
X162330057Y-81464285D01*
X162330057Y-81464285D02*
X162425295Y-81416666D01*
X162425295Y-81416666D02*
X162568152Y-81416666D01*
X162568152Y-81416666D02*
X162663390Y-81464285D01*
X162663390Y-81464285D02*
X162711009Y-81511904D01*
X162711009Y-81511904D02*
X162758628Y-81607142D01*
X162758628Y-81607142D02*
X162758628Y-81988094D01*
X162234819Y-81083332D02*
X162234819Y-80464285D01*
X162234819Y-80464285D02*
X162615771Y-80797618D01*
X162615771Y-80797618D02*
X162615771Y-80654761D01*
X162615771Y-80654761D02*
X162663390Y-80559523D01*
X162663390Y-80559523D02*
X162711009Y-80511904D01*
X162711009Y-80511904D02*
X162806247Y-80464285D01*
X162806247Y-80464285D02*
X163044342Y-80464285D01*
X163044342Y-80464285D02*
X163139580Y-80511904D01*
X163139580Y-80511904D02*
X163187200Y-80559523D01*
X163187200Y-80559523D02*
X163234819Y-80654761D01*
X163234819Y-80654761D02*
X163234819Y-80940475D01*
X163234819Y-80940475D02*
X163187200Y-81035713D01*
X163187200Y-81035713D02*
X163139580Y-81083332D01*
X165954819Y-83869047D02*
X165954819Y-84440475D01*
X165954819Y-84154761D02*
X164954819Y-84154761D01*
X164954819Y-84154761D02*
X165097676Y-84249999D01*
X165097676Y-84249999D02*
X165192914Y-84345237D01*
X165192914Y-84345237D02*
X165240533Y-84440475D01*
X165954819Y-83440475D02*
X164954819Y-83440475D01*
X165573866Y-83345237D02*
X165954819Y-83059523D01*
X165288152Y-83059523D02*
X165669104Y-83440475D01*
X157484819Y-81416666D02*
X157008628Y-81749999D01*
X157484819Y-81988094D02*
X156484819Y-81988094D01*
X156484819Y-81988094D02*
X156484819Y-81607142D01*
X156484819Y-81607142D02*
X156532438Y-81511904D01*
X156532438Y-81511904D02*
X156580057Y-81464285D01*
X156580057Y-81464285D02*
X156675295Y-81416666D01*
X156675295Y-81416666D02*
X156818152Y-81416666D01*
X156818152Y-81416666D02*
X156913390Y-81464285D01*
X156913390Y-81464285D02*
X156961009Y-81511904D01*
X156961009Y-81511904D02*
X157008628Y-81607142D01*
X157008628Y-81607142D02*
X157008628Y-81988094D01*
X156818152Y-80559523D02*
X157484819Y-80559523D01*
X156437200Y-80797618D02*
X157151485Y-81035713D01*
X157151485Y-81035713D02*
X157151485Y-80416666D01*
X158454819Y-79392857D02*
X158454819Y-79869047D01*
X158454819Y-79869047D02*
X158931009Y-79916666D01*
X158931009Y-79916666D02*
X158883390Y-79869047D01*
X158883390Y-79869047D02*
X158835771Y-79773809D01*
X158835771Y-79773809D02*
X158835771Y-79535714D01*
X158835771Y-79535714D02*
X158883390Y-79440476D01*
X158883390Y-79440476D02*
X158931009Y-79392857D01*
X158931009Y-79392857D02*
X159026247Y-79345238D01*
X159026247Y-79345238D02*
X159264342Y-79345238D01*
X159264342Y-79345238D02*
X159359580Y-79392857D01*
X159359580Y-79392857D02*
X159407200Y-79440476D01*
X159407200Y-79440476D02*
X159454819Y-79535714D01*
X159454819Y-79535714D02*
X159454819Y-79773809D01*
X159454819Y-79773809D02*
X159407200Y-79869047D01*
X159407200Y-79869047D02*
X159359580Y-79916666D01*
X159454819Y-78916666D02*
X158454819Y-78916666D01*
X159073866Y-78821428D02*
X159454819Y-78535714D01*
X158788152Y-78535714D02*
X159169104Y-78916666D01*
X158454819Y-77678571D02*
X158454819Y-77869047D01*
X158454819Y-77869047D02*
X158502438Y-77964285D01*
X158502438Y-77964285D02*
X158550057Y-78011904D01*
X158550057Y-78011904D02*
X158692914Y-78107142D01*
X158692914Y-78107142D02*
X158883390Y-78154761D01*
X158883390Y-78154761D02*
X159264342Y-78154761D01*
X159264342Y-78154761D02*
X159359580Y-78107142D01*
X159359580Y-78107142D02*
X159407200Y-78059523D01*
X159407200Y-78059523D02*
X159454819Y-77964285D01*
X159454819Y-77964285D02*
X159454819Y-77773809D01*
X159454819Y-77773809D02*
X159407200Y-77678571D01*
X159407200Y-77678571D02*
X159359580Y-77630952D01*
X159359580Y-77630952D02*
X159264342Y-77583333D01*
X159264342Y-77583333D02*
X159026247Y-77583333D01*
X159026247Y-77583333D02*
X158931009Y-77630952D01*
X158931009Y-77630952D02*
X158883390Y-77678571D01*
X158883390Y-77678571D02*
X158835771Y-77773809D01*
X158835771Y-77773809D02*
X158835771Y-77964285D01*
X158835771Y-77964285D02*
X158883390Y-78059523D01*
X158883390Y-78059523D02*
X158931009Y-78107142D01*
X158931009Y-78107142D02*
X159026247Y-78154761D01*
X104994819Y-96968094D02*
X103994819Y-96968094D01*
X103994819Y-96968094D02*
X103994819Y-96729999D01*
X103994819Y-96729999D02*
X104042438Y-96587142D01*
X104042438Y-96587142D02*
X104137676Y-96491904D01*
X104137676Y-96491904D02*
X104232914Y-96444285D01*
X104232914Y-96444285D02*
X104423390Y-96396666D01*
X104423390Y-96396666D02*
X104566247Y-96396666D01*
X104566247Y-96396666D02*
X104756723Y-96444285D01*
X104756723Y-96444285D02*
X104851961Y-96491904D01*
X104851961Y-96491904D02*
X104947200Y-96587142D01*
X104947200Y-96587142D02*
X104994819Y-96729999D01*
X104994819Y-96729999D02*
X104994819Y-96968094D01*
X104994819Y-95444285D02*
X104994819Y-96015713D01*
X104994819Y-95729999D02*
X103994819Y-95729999D01*
X103994819Y-95729999D02*
X104137676Y-95825237D01*
X104137676Y-95825237D02*
X104232914Y-95920475D01*
X104232914Y-95920475D02*
X104280533Y-96015713D01*
X111454819Y-94142857D02*
X111454819Y-94619047D01*
X111454819Y-94619047D02*
X110454819Y-94619047D01*
X110931009Y-93809523D02*
X110931009Y-93476190D01*
X111454819Y-93333333D02*
X111454819Y-93809523D01*
X111454819Y-93809523D02*
X110454819Y-93809523D01*
X110454819Y-93809523D02*
X110454819Y-93333333D01*
X111454819Y-92904761D02*
X110454819Y-92904761D01*
X110454819Y-92904761D02*
X110454819Y-92666666D01*
X110454819Y-92666666D02*
X110502438Y-92523809D01*
X110502438Y-92523809D02*
X110597676Y-92428571D01*
X110597676Y-92428571D02*
X110692914Y-92380952D01*
X110692914Y-92380952D02*
X110883390Y-92333333D01*
X110883390Y-92333333D02*
X111026247Y-92333333D01*
X111026247Y-92333333D02*
X111216723Y-92380952D01*
X111216723Y-92380952D02*
X111311961Y-92428571D01*
X111311961Y-92428571D02*
X111407200Y-92523809D01*
X111407200Y-92523809D02*
X111454819Y-92666666D01*
X111454819Y-92666666D02*
X111454819Y-92904761D01*
X149654819Y-81891904D02*
X150464342Y-81891904D01*
X150464342Y-81891904D02*
X150559580Y-81844285D01*
X150559580Y-81844285D02*
X150607200Y-81796666D01*
X150607200Y-81796666D02*
X150654819Y-81701428D01*
X150654819Y-81701428D02*
X150654819Y-81510952D01*
X150654819Y-81510952D02*
X150607200Y-81415714D01*
X150607200Y-81415714D02*
X150559580Y-81368095D01*
X150559580Y-81368095D02*
X150464342Y-81320476D01*
X150464342Y-81320476D02*
X149654819Y-81320476D01*
X149750057Y-80891904D02*
X149702438Y-80844285D01*
X149702438Y-80844285D02*
X149654819Y-80749047D01*
X149654819Y-80749047D02*
X149654819Y-80510952D01*
X149654819Y-80510952D02*
X149702438Y-80415714D01*
X149702438Y-80415714D02*
X149750057Y-80368095D01*
X149750057Y-80368095D02*
X149845295Y-80320476D01*
X149845295Y-80320476D02*
X149940533Y-80320476D01*
X149940533Y-80320476D02*
X150083390Y-80368095D01*
X150083390Y-80368095D02*
X150654819Y-80939523D01*
X150654819Y-80939523D02*
X150654819Y-80320476D01*
X112070057Y-83820475D02*
X112022438Y-83772856D01*
X112022438Y-83772856D02*
X111974819Y-83677618D01*
X111974819Y-83677618D02*
X111974819Y-83439523D01*
X111974819Y-83439523D02*
X112022438Y-83344285D01*
X112022438Y-83344285D02*
X112070057Y-83296666D01*
X112070057Y-83296666D02*
X112165295Y-83249047D01*
X112165295Y-83249047D02*
X112260533Y-83249047D01*
X112260533Y-83249047D02*
X112403390Y-83296666D01*
X112403390Y-83296666D02*
X112974819Y-83868094D01*
X112974819Y-83868094D02*
X112974819Y-83249047D01*
X111974819Y-82915713D02*
X111974819Y-82249047D01*
X111974819Y-82249047D02*
X112974819Y-82677618D01*
X112879580Y-81296666D02*
X112927200Y-81344285D01*
X112927200Y-81344285D02*
X112974819Y-81487142D01*
X112974819Y-81487142D02*
X112974819Y-81582380D01*
X112974819Y-81582380D02*
X112927200Y-81725237D01*
X112927200Y-81725237D02*
X112831961Y-81820475D01*
X112831961Y-81820475D02*
X112736723Y-81868094D01*
X112736723Y-81868094D02*
X112546247Y-81915713D01*
X112546247Y-81915713D02*
X112403390Y-81915713D01*
X112403390Y-81915713D02*
X112212914Y-81868094D01*
X112212914Y-81868094D02*
X112117676Y-81820475D01*
X112117676Y-81820475D02*
X112022438Y-81725237D01*
X112022438Y-81725237D02*
X111974819Y-81582380D01*
X111974819Y-81582380D02*
X111974819Y-81487142D01*
X111974819Y-81487142D02*
X112022438Y-81344285D01*
X112022438Y-81344285D02*
X112070057Y-81296666D01*
X112974819Y-80344285D02*
X112974819Y-80915713D01*
X112974819Y-80629999D02*
X111974819Y-80629999D01*
X111974819Y-80629999D02*
X112117676Y-80725237D01*
X112117676Y-80725237D02*
X112212914Y-80820475D01*
X112212914Y-80820475D02*
X112260533Y-80915713D01*
X112070057Y-79963332D02*
X112022438Y-79915713D01*
X112022438Y-79915713D02*
X111974819Y-79820475D01*
X111974819Y-79820475D02*
X111974819Y-79582380D01*
X111974819Y-79582380D02*
X112022438Y-79487142D01*
X112022438Y-79487142D02*
X112070057Y-79439523D01*
X112070057Y-79439523D02*
X112165295Y-79391904D01*
X112165295Y-79391904D02*
X112260533Y-79391904D01*
X112260533Y-79391904D02*
X112403390Y-79439523D01*
X112403390Y-79439523D02*
X112974819Y-80010951D01*
X112974819Y-80010951D02*
X112974819Y-79391904D01*
X112403390Y-78820475D02*
X112355771Y-78915713D01*
X112355771Y-78915713D02*
X112308152Y-78963332D01*
X112308152Y-78963332D02*
X112212914Y-79010951D01*
X112212914Y-79010951D02*
X112165295Y-79010951D01*
X112165295Y-79010951D02*
X112070057Y-78963332D01*
X112070057Y-78963332D02*
X112022438Y-78915713D01*
X112022438Y-78915713D02*
X111974819Y-78820475D01*
X111974819Y-78820475D02*
X111974819Y-78629999D01*
X111974819Y-78629999D02*
X112022438Y-78534761D01*
X112022438Y-78534761D02*
X112070057Y-78487142D01*
X112070057Y-78487142D02*
X112165295Y-78439523D01*
X112165295Y-78439523D02*
X112212914Y-78439523D01*
X112212914Y-78439523D02*
X112308152Y-78487142D01*
X112308152Y-78487142D02*
X112355771Y-78534761D01*
X112355771Y-78534761D02*
X112403390Y-78629999D01*
X112403390Y-78629999D02*
X112403390Y-78820475D01*
X112403390Y-78820475D02*
X112451009Y-78915713D01*
X112451009Y-78915713D02*
X112498628Y-78963332D01*
X112498628Y-78963332D02*
X112593866Y-79010951D01*
X112593866Y-79010951D02*
X112784342Y-79010951D01*
X112784342Y-79010951D02*
X112879580Y-78963332D01*
X112879580Y-78963332D02*
X112927200Y-78915713D01*
X112927200Y-78915713D02*
X112974819Y-78820475D01*
X112974819Y-78820475D02*
X112974819Y-78629999D01*
X112974819Y-78629999D02*
X112927200Y-78534761D01*
X112927200Y-78534761D02*
X112879580Y-78487142D01*
X112879580Y-78487142D02*
X112784342Y-78439523D01*
X112784342Y-78439523D02*
X112593866Y-78439523D01*
X112593866Y-78439523D02*
X112498628Y-78487142D01*
X112498628Y-78487142D02*
X112451009Y-78534761D01*
X112451009Y-78534761D02*
X112403390Y-78629999D01*
D10*
X185747981Y-96692356D02*
X184223981Y-96692356D01*
X184223981Y-96692356D02*
X184223981Y-96111785D01*
X184223981Y-96111785D02*
X184296552Y-95966642D01*
X184296552Y-95966642D02*
X184369124Y-95894071D01*
X184369124Y-95894071D02*
X184514267Y-95821499D01*
X184514267Y-95821499D02*
X184731981Y-95821499D01*
X184731981Y-95821499D02*
X184877124Y-95894071D01*
X184877124Y-95894071D02*
X184949695Y-95966642D01*
X184949695Y-95966642D02*
X185022267Y-96111785D01*
X185022267Y-96111785D02*
X185022267Y-96692356D01*
X185747981Y-94370071D02*
X185747981Y-95240928D01*
X185747981Y-94805499D02*
X184223981Y-94805499D01*
X184223981Y-94805499D02*
X184441695Y-94950642D01*
X184441695Y-94950642D02*
X184586838Y-95095785D01*
X184586838Y-95095785D02*
X184659410Y-95240928D01*
D12*
X171635480Y-98642713D02*
X171708052Y-98712260D01*
X171708052Y-98712260D02*
X171780623Y-98902760D01*
X171780623Y-98902760D02*
X171780623Y-99023713D01*
X171780623Y-99023713D02*
X171708052Y-99196070D01*
X171708052Y-99196070D02*
X171562909Y-99298880D01*
X171562909Y-99298880D02*
X171417766Y-99341213D01*
X171417766Y-99341213D02*
X171127480Y-99365403D01*
X171127480Y-99365403D02*
X170909766Y-99338189D01*
X170909766Y-99338189D02*
X170619480Y-99241427D01*
X170619480Y-99241427D02*
X170474337Y-99162808D01*
X170474337Y-99162808D02*
X170329194Y-99023713D01*
X170329194Y-99023713D02*
X170256623Y-98833213D01*
X170256623Y-98833213D02*
X170256623Y-98712260D01*
X170256623Y-98712260D02*
X170329194Y-98539903D01*
X170329194Y-98539903D02*
X170401766Y-98488499D01*
X170982337Y-97593451D02*
X170982337Y-98016784D01*
X171780623Y-98116570D02*
X170256623Y-97926070D01*
X170256623Y-97926070D02*
X170256623Y-97321308D01*
X171925766Y-97348523D02*
X171925766Y-96380904D01*
X171635480Y-95316523D02*
X171708052Y-95386070D01*
X171708052Y-95386070D02*
X171780623Y-95576570D01*
X171780623Y-95576570D02*
X171780623Y-95697523D01*
X171780623Y-95697523D02*
X171708052Y-95869880D01*
X171708052Y-95869880D02*
X171562909Y-95972690D01*
X171562909Y-95972690D02*
X171417766Y-96015023D01*
X171417766Y-96015023D02*
X171127480Y-96039213D01*
X171127480Y-96039213D02*
X170909766Y-96011999D01*
X170909766Y-96011999D02*
X170619480Y-95915237D01*
X170619480Y-95915237D02*
X170474337Y-95836618D01*
X170474337Y-95836618D02*
X170329194Y-95697523D01*
X170329194Y-95697523D02*
X170256623Y-95507023D01*
X170256623Y-95507023D02*
X170256623Y-95386070D01*
X170256623Y-95386070D02*
X170329194Y-95213713D01*
X170329194Y-95213713D02*
X170401766Y-95162309D01*
X171345194Y-94796428D02*
X171345194Y-94191666D01*
X171780623Y-94971809D02*
X170256623Y-94357975D01*
X170256623Y-94357975D02*
X171780623Y-94125142D01*
X171780623Y-92976095D02*
X171054909Y-93308714D01*
X171780623Y-93701809D02*
X170256623Y-93511309D01*
X170256623Y-93511309D02*
X170256623Y-93027499D01*
X170256623Y-93027499D02*
X170329194Y-92915619D01*
X170329194Y-92915619D02*
X170401766Y-92864214D01*
X170401766Y-92864214D02*
X170546909Y-92821880D01*
X170546909Y-92821880D02*
X170764623Y-92849095D01*
X170764623Y-92849095D02*
X170909766Y-92927714D01*
X170909766Y-92927714D02*
X170982337Y-92997261D01*
X170982337Y-92997261D02*
X171054909Y-93127285D01*
X171054909Y-93127285D02*
X171054909Y-93611095D01*
X171780623Y-92431809D02*
X170256623Y-92241309D01*
X170256623Y-92241309D02*
X170256623Y-91938928D01*
X170256623Y-91938928D02*
X170329194Y-91766571D01*
X170329194Y-91766571D02*
X170474337Y-91663761D01*
X170474337Y-91663761D02*
X170619480Y-91621428D01*
X170619480Y-91621428D02*
X170909766Y-91597238D01*
X170909766Y-91597238D02*
X171127480Y-91624452D01*
X171127480Y-91624452D02*
X171417766Y-91721214D01*
X171417766Y-91721214D02*
X171562909Y-91799833D01*
X171562909Y-91799833D02*
X171708052Y-91938928D01*
X171708052Y-91938928D02*
X171780623Y-92129428D01*
X171780623Y-92129428D02*
X171780623Y-92431809D01*
D11*
X167083333Y-122174819D02*
X166750000Y-121698628D01*
X166511905Y-122174819D02*
X166511905Y-121174819D01*
X166511905Y-121174819D02*
X166892857Y-121174819D01*
X166892857Y-121174819D02*
X166988095Y-121222438D01*
X166988095Y-121222438D02*
X167035714Y-121270057D01*
X167035714Y-121270057D02*
X167083333Y-121365295D01*
X167083333Y-121365295D02*
X167083333Y-121508152D01*
X167083333Y-121508152D02*
X167035714Y-121603390D01*
X167035714Y-121603390D02*
X166988095Y-121651009D01*
X166988095Y-121651009D02*
X166892857Y-121698628D01*
X166892857Y-121698628D02*
X166511905Y-121698628D01*
X167464286Y-121270057D02*
X167511905Y-121222438D01*
X167511905Y-121222438D02*
X167607143Y-121174819D01*
X167607143Y-121174819D02*
X167845238Y-121174819D01*
X167845238Y-121174819D02*
X167940476Y-121222438D01*
X167940476Y-121222438D02*
X167988095Y-121270057D01*
X167988095Y-121270057D02*
X168035714Y-121365295D01*
X168035714Y-121365295D02*
X168035714Y-121460533D01*
X168035714Y-121460533D02*
X167988095Y-121603390D01*
X167988095Y-121603390D02*
X167416667Y-122174819D01*
X167416667Y-122174819D02*
X168035714Y-122174819D01*
X168404761Y-120454819D02*
X167833333Y-120454819D01*
X168119047Y-120454819D02*
X168119047Y-119454819D01*
X168119047Y-119454819D02*
X168023809Y-119597676D01*
X168023809Y-119597676D02*
X167928571Y-119692914D01*
X167928571Y-119692914D02*
X167833333Y-119740533D01*
X169023809Y-119454819D02*
X169119047Y-119454819D01*
X169119047Y-119454819D02*
X169214285Y-119502438D01*
X169214285Y-119502438D02*
X169261904Y-119550057D01*
X169261904Y-119550057D02*
X169309523Y-119645295D01*
X169309523Y-119645295D02*
X169357142Y-119835771D01*
X169357142Y-119835771D02*
X169357142Y-120073866D01*
X169357142Y-120073866D02*
X169309523Y-120264342D01*
X169309523Y-120264342D02*
X169261904Y-120359580D01*
X169261904Y-120359580D02*
X169214285Y-120407200D01*
X169214285Y-120407200D02*
X169119047Y-120454819D01*
X169119047Y-120454819D02*
X169023809Y-120454819D01*
X169023809Y-120454819D02*
X168928571Y-120407200D01*
X168928571Y-120407200D02*
X168880952Y-120359580D01*
X168880952Y-120359580D02*
X168833333Y-120264342D01*
X168833333Y-120264342D02*
X168785714Y-120073866D01*
X168785714Y-120073866D02*
X168785714Y-119835771D01*
X168785714Y-119835771D02*
X168833333Y-119645295D01*
X168833333Y-119645295D02*
X168880952Y-119550057D01*
X168880952Y-119550057D02*
X168928571Y-119502438D01*
X168928571Y-119502438D02*
X169023809Y-119454819D01*
X169785714Y-120454819D02*
X169785714Y-119454819D01*
X169880952Y-120073866D02*
X170166666Y-120454819D01*
X170166666Y-119788152D02*
X169785714Y-120169104D01*
X112259580Y-112916666D02*
X112307200Y-112964285D01*
X112307200Y-112964285D02*
X112354819Y-113107142D01*
X112354819Y-113107142D02*
X112354819Y-113202380D01*
X112354819Y-113202380D02*
X112307200Y-113345237D01*
X112307200Y-113345237D02*
X112211961Y-113440475D01*
X112211961Y-113440475D02*
X112116723Y-113488094D01*
X112116723Y-113488094D02*
X111926247Y-113535713D01*
X111926247Y-113535713D02*
X111783390Y-113535713D01*
X111783390Y-113535713D02*
X111592914Y-113488094D01*
X111592914Y-113488094D02*
X111497676Y-113440475D01*
X111497676Y-113440475D02*
X111402438Y-113345237D01*
X111402438Y-113345237D02*
X111354819Y-113202380D01*
X111354819Y-113202380D02*
X111354819Y-113107142D01*
X111354819Y-113107142D02*
X111402438Y-112964285D01*
X111402438Y-112964285D02*
X111450057Y-112916666D01*
X111450057Y-112535713D02*
X111402438Y-112488094D01*
X111402438Y-112488094D02*
X111354819Y-112392856D01*
X111354819Y-112392856D02*
X111354819Y-112154761D01*
X111354819Y-112154761D02*
X111402438Y-112059523D01*
X111402438Y-112059523D02*
X111450057Y-112011904D01*
X111450057Y-112011904D02*
X111545295Y-111964285D01*
X111545295Y-111964285D02*
X111640533Y-111964285D01*
X111640533Y-111964285D02*
X111783390Y-112011904D01*
X111783390Y-112011904D02*
X112354819Y-112583332D01*
X112354819Y-112583332D02*
X112354819Y-111964285D01*
X103554819Y-113392857D02*
X103554819Y-113964285D01*
X103554819Y-113678571D02*
X102554819Y-113678571D01*
X102554819Y-113678571D02*
X102697676Y-113773809D01*
X102697676Y-113773809D02*
X102792914Y-113869047D01*
X102792914Y-113869047D02*
X102840533Y-113964285D01*
X102554819Y-112773809D02*
X102554819Y-112678571D01*
X102554819Y-112678571D02*
X102602438Y-112583333D01*
X102602438Y-112583333D02*
X102650057Y-112535714D01*
X102650057Y-112535714D02*
X102745295Y-112488095D01*
X102745295Y-112488095D02*
X102935771Y-112440476D01*
X102935771Y-112440476D02*
X103173866Y-112440476D01*
X103173866Y-112440476D02*
X103364342Y-112488095D01*
X103364342Y-112488095D02*
X103459580Y-112535714D01*
X103459580Y-112535714D02*
X103507200Y-112583333D01*
X103507200Y-112583333D02*
X103554819Y-112678571D01*
X103554819Y-112678571D02*
X103554819Y-112773809D01*
X103554819Y-112773809D02*
X103507200Y-112869047D01*
X103507200Y-112869047D02*
X103459580Y-112916666D01*
X103459580Y-112916666D02*
X103364342Y-112964285D01*
X103364342Y-112964285D02*
X103173866Y-113011904D01*
X103173866Y-113011904D02*
X102935771Y-113011904D01*
X102935771Y-113011904D02*
X102745295Y-112964285D01*
X102745295Y-112964285D02*
X102650057Y-112916666D01*
X102650057Y-112916666D02*
X102602438Y-112869047D01*
X102602438Y-112869047D02*
X102554819Y-112773809D01*
X102888152Y-111583333D02*
X103554819Y-111583333D01*
X102888152Y-112011904D02*
X103411961Y-112011904D01*
X103411961Y-112011904D02*
X103507200Y-111964285D01*
X103507200Y-111964285D02*
X103554819Y-111869047D01*
X103554819Y-111869047D02*
X103554819Y-111726190D01*
X103554819Y-111726190D02*
X103507200Y-111630952D01*
X103507200Y-111630952D02*
X103459580Y-111583333D01*
D13*
%TO.C,U1*%
X112850000Y-110560000D02*
X112850000Y-111810000D01*
X112850000Y-113810000D02*
X112850000Y-115060000D01*
X112850000Y-115060000D02*
X143450000Y-115060000D01*
X143450000Y-110560000D02*
X112850000Y-110560000D01*
X143450000Y-115060000D02*
X143450000Y-110560000D01*
X112790000Y-118060000D02*
X143510000Y-118060000D01*
X143510000Y-107560000D01*
X112790000Y-107560000D01*
X112790000Y-118060000D01*
X112850000Y-111810000D02*
G75*
G02*
X112850000Y-113810000I0J-1000000D01*
G01*
%TO.C,C1*%
X153880000Y-78880000D02*
X154195000Y-78880000D01*
X153880000Y-84120000D02*
X153880000Y-78880000D01*
X153880000Y-84120000D02*
X154195000Y-84120000D01*
X156305000Y-78880000D02*
X156620000Y-78880000D01*
X156305000Y-84120000D02*
X156620000Y-84120000D01*
X156620000Y-84120000D02*
X156620000Y-78880000D01*
D12*
%TO.C,BUS1*%
X101600000Y-134302500D02*
X101600000Y-125412500D01*
X182880000Y-125412500D02*
X101600000Y-125412500D01*
X182880000Y-125412500D02*
X182880000Y-134302500D01*
D10*
X182880000Y-134302500D02*
X101600000Y-134302500D01*
D13*
%TO.C,R1*%
X107420000Y-103000000D02*
X109380000Y-103000000D01*
X109380000Y-101280000D02*
X109380000Y-104720000D01*
X109380000Y-104720000D02*
X118620000Y-104720000D01*
X118620000Y-101280000D02*
X109380000Y-101280000D01*
X118620000Y-104720000D02*
X118620000Y-101280000D01*
X120580000Y-103000000D02*
X118620000Y-103000000D01*
%TO.C,R3*%
X163780000Y-76630000D02*
X163780000Y-85870000D01*
X163780000Y-85870000D02*
X167220000Y-85870000D01*
X165500000Y-74670000D02*
X165500000Y-76630000D01*
X165500000Y-87830000D02*
X165500000Y-85870000D01*
X167220000Y-76630000D02*
X163780000Y-76630000D01*
X167220000Y-85870000D02*
X167220000Y-76630000D01*
%TO.C,R4*%
X158030000Y-76630000D02*
X158030000Y-85870000D01*
X158030000Y-85870000D02*
X161470000Y-85870000D01*
X159750000Y-74670000D02*
X159750000Y-76630000D01*
X159750000Y-87830000D02*
X159750000Y-85870000D01*
X161470000Y-76630000D02*
X158030000Y-76630000D01*
X161470000Y-85870000D02*
X161470000Y-76630000D01*
%TO.C,D1*%
X106955000Y-98790000D02*
X110045000Y-98790000D01*
X106955170Y-98790000D02*
G75*
G02*
X108499952Y-93240000I1544830J2560000D01*
G01*
X108500048Y-93240000D02*
G75*
G02*
X110044830Y-98790000I-48J-2990000D01*
G01*
X111000000Y-96230000D02*
G75*
G02*
X106000000Y-96230000I-2500000J0D01*
G01*
X106000000Y-96230000D02*
G75*
G02*
X111000000Y-96230000I2500000J0D01*
G01*
%TO.C,U2*%
X113520000Y-75070000D02*
X113520000Y-87190000D01*
X113520000Y-87190000D02*
X149200000Y-87190000D01*
X149200000Y-75070000D02*
X113520000Y-75070000D01*
X149200000Y-80130000D02*
X149200000Y-75070000D01*
X149200000Y-87190000D02*
X149200000Y-82130000D01*
X149260000Y-72070000D02*
X113460000Y-72070000D01*
X113460000Y-90190000D01*
X149260000Y-90190000D01*
X149260000Y-72070000D01*
X149200000Y-82130000D02*
G75*
G02*
X149200000Y-80130000I0J1000000D01*
G01*
D12*
%TO.C,P1*%
X175249320Y-72067420D02*
X201248760Y-72067420D01*
X175249320Y-77068680D02*
X175249320Y-72067420D01*
X175249320Y-114066320D02*
X175249320Y-119067580D01*
X175249320Y-119067580D02*
X201248760Y-119067580D01*
X176148480Y-77967840D02*
X175249320Y-77068680D01*
X176148480Y-113167160D02*
X175249320Y-114066320D01*
X176148480Y-113167160D02*
X176549800Y-113167160D01*
X176549800Y-77967840D02*
X176148480Y-77967840D01*
X176549800Y-113167160D02*
X176549800Y-77967840D01*
X182549280Y-74066400D02*
X201248760Y-74066400D01*
X182549280Y-117068600D02*
X182549280Y-74066400D01*
X182549280Y-117068600D02*
X201248760Y-117068600D01*
X201248760Y-74066400D02*
X201248760Y-72067420D01*
X201248760Y-117068600D02*
X201248760Y-119067580D01*
D13*
%TO.C,R2*%
X160670000Y-119000000D02*
X162630000Y-119000000D01*
X162630000Y-117280000D02*
X162630000Y-120720000D01*
X162630000Y-120720000D02*
X171870000Y-120720000D01*
X171870000Y-117280000D02*
X162630000Y-117280000D01*
X171870000Y-120720000D02*
X171870000Y-117280000D01*
X173830000Y-119000000D02*
X171870000Y-119000000D01*
%TO.C,C2*%
X106460000Y-112990000D02*
X104278000Y-112990000D01*
X106460000Y-113030000D02*
X104282000Y-113030000D01*
X106460000Y-113070000D02*
X104285000Y-113070000D01*
X106460000Y-113110000D02*
X104289000Y-113110000D01*
X106460000Y-113150000D02*
X104294000Y-113150000D01*
X106460000Y-113190000D02*
X104299000Y-113190000D01*
X106460000Y-113230000D02*
X104305000Y-113230000D01*
X106460000Y-113270000D02*
X104311000Y-113270000D01*
X106460000Y-113310000D02*
X104318000Y-113310000D01*
X106460000Y-113350000D02*
X104325000Y-113350000D01*
X106460000Y-113390000D02*
X104333000Y-113390000D01*
X106460000Y-113430000D02*
X104341000Y-113430000D01*
X106460000Y-113471000D02*
X104350000Y-113471000D01*
X106460000Y-113511000D02*
X104359000Y-113511000D01*
X106460000Y-113551000D02*
X104369000Y-113551000D01*
X106460000Y-113591000D02*
X104379000Y-113591000D01*
X106460000Y-113631000D02*
X104390000Y-113631000D01*
X106460000Y-113671000D02*
X104402000Y-113671000D01*
X106460000Y-113711000D02*
X104414000Y-113711000D01*
X106460000Y-113751000D02*
X104426000Y-113751000D01*
X106460000Y-113791000D02*
X104439000Y-113791000D01*
X106460000Y-113831000D02*
X104453000Y-113831000D01*
X106460000Y-113871000D02*
X104467000Y-113871000D01*
X106460000Y-113911000D02*
X104482000Y-113911000D01*
X106460000Y-113951000D02*
X104498000Y-113951000D01*
X106460000Y-113991000D02*
X104514000Y-113991000D01*
X106460000Y-114031000D02*
X104530000Y-114031000D01*
X106460000Y-114071000D02*
X104548000Y-114071000D01*
X106460000Y-114111000D02*
X104566000Y-114111000D01*
X106460000Y-114151000D02*
X104584000Y-114151000D01*
X106460000Y-114191000D02*
X104604000Y-114191000D01*
X106460000Y-114231000D02*
X104624000Y-114231000D01*
X106460000Y-114271000D02*
X104644000Y-114271000D01*
X106460000Y-114311000D02*
X104666000Y-114311000D01*
X106460000Y-114351000D02*
X104688000Y-114351000D01*
X106460000Y-114391000D02*
X104710000Y-114391000D01*
X106460000Y-114431000D02*
X104734000Y-114431000D01*
X106460000Y-114471000D02*
X104758000Y-114471000D01*
X106460000Y-114511000D02*
X104784000Y-114511000D01*
X106460000Y-114551000D02*
X104810000Y-114551000D01*
X106460000Y-114591000D02*
X104836000Y-114591000D01*
X106460000Y-114631000D02*
X104864000Y-114631000D01*
X106460000Y-114671000D02*
X104893000Y-114671000D01*
X106460000Y-114711000D02*
X104922000Y-114711000D01*
X106460000Y-114751000D02*
X104952000Y-114751000D01*
X106460000Y-114791000D02*
X104984000Y-114791000D01*
X106460000Y-114831000D02*
X105016000Y-114831000D01*
X106460000Y-114871000D02*
X105050000Y-114871000D01*
X106460000Y-114911000D02*
X105084000Y-114911000D01*
X106460000Y-114951000D02*
X105120000Y-114951000D01*
X106460000Y-114991000D02*
X105157000Y-114991000D01*
X106460000Y-115031000D02*
X105195000Y-115031000D01*
X107902000Y-115991000D02*
X107098000Y-115991000D01*
X108133000Y-115951000D02*
X106867000Y-115951000D01*
X108302000Y-115911000D02*
X106698000Y-115911000D01*
X108440000Y-115871000D02*
X106560000Y-115871000D01*
X108559000Y-115831000D02*
X106441000Y-115831000D01*
X108665000Y-115791000D02*
X106335000Y-115791000D01*
X108762000Y-115751000D02*
X106238000Y-115751000D01*
X108850000Y-115711000D02*
X106150000Y-115711000D01*
X108932000Y-115671000D02*
X106068000Y-115671000D01*
X109009000Y-115631000D02*
X105991000Y-115631000D01*
X109081000Y-115591000D02*
X105919000Y-115591000D01*
X109150000Y-115551000D02*
X105850000Y-115551000D01*
X109214000Y-115511000D02*
X105786000Y-115511000D01*
X109276000Y-115471000D02*
X105724000Y-115471000D01*
X109334000Y-115431000D02*
X105666000Y-115431000D01*
X109339000Y-109249759D02*
X109339000Y-109879759D01*
X109390000Y-115391000D02*
X105610000Y-115391000D01*
X109444000Y-115351000D02*
X105556000Y-115351000D01*
X109495000Y-115311000D02*
X105505000Y-115311000D01*
X109544000Y-115271000D02*
X105456000Y-115271000D01*
X109592000Y-115231000D02*
X105408000Y-115231000D01*
X109637000Y-115191000D02*
X105363000Y-115191000D01*
X109654000Y-109564759D02*
X109024000Y-109564759D01*
X109682000Y-115151000D02*
X105318000Y-115151000D01*
X109724000Y-115111000D02*
X105276000Y-115111000D01*
X109765000Y-115071000D02*
X105235000Y-115071000D01*
X109805000Y-115031000D02*
X108540000Y-115031000D01*
X109843000Y-114991000D02*
X108540000Y-114991000D01*
X109880000Y-114951000D02*
X108540000Y-114951000D01*
X109916000Y-114911000D02*
X108540000Y-114911000D01*
X109950000Y-114871000D02*
X108540000Y-114871000D01*
X109984000Y-114831000D02*
X108540000Y-114831000D01*
X110016000Y-114791000D02*
X108540000Y-114791000D01*
X110048000Y-114751000D02*
X108540000Y-114751000D01*
X110078000Y-114711000D02*
X108540000Y-114711000D01*
X110107000Y-114671000D02*
X108540000Y-114671000D01*
X110136000Y-114631000D02*
X108540000Y-114631000D01*
X110164000Y-114591000D02*
X108540000Y-114591000D01*
X110190000Y-114551000D02*
X108540000Y-114551000D01*
X110216000Y-114511000D02*
X108540000Y-114511000D01*
X110242000Y-114471000D02*
X108540000Y-114471000D01*
X110266000Y-114431000D02*
X108540000Y-114431000D01*
X110290000Y-114391000D02*
X108540000Y-114391000D01*
X110312000Y-114351000D02*
X108540000Y-114351000D01*
X110334000Y-114311000D02*
X108540000Y-114311000D01*
X110356000Y-114271000D02*
X108540000Y-114271000D01*
X110376000Y-114231000D02*
X108540000Y-114231000D01*
X110396000Y-114191000D02*
X108540000Y-114191000D01*
X110416000Y-114151000D02*
X108540000Y-114151000D01*
X110434000Y-114111000D02*
X108540000Y-114111000D01*
X110452000Y-114071000D02*
X108540000Y-114071000D01*
X110470000Y-114031000D02*
X108540000Y-114031000D01*
X110486000Y-113991000D02*
X108540000Y-113991000D01*
X110502000Y-113951000D02*
X108540000Y-113951000D01*
X110518000Y-113911000D02*
X108540000Y-113911000D01*
X110533000Y-113871000D02*
X108540000Y-113871000D01*
X110547000Y-113831000D02*
X108540000Y-113831000D01*
X110561000Y-113791000D02*
X108540000Y-113791000D01*
X110574000Y-113751000D02*
X108540000Y-113751000D01*
X110586000Y-113711000D02*
X108540000Y-113711000D01*
X110598000Y-113671000D02*
X108540000Y-113671000D01*
X110610000Y-113631000D02*
X108540000Y-113631000D01*
X110621000Y-113591000D02*
X108540000Y-113591000D01*
X110631000Y-113551000D02*
X108540000Y-113551000D01*
X110641000Y-113511000D02*
X108540000Y-113511000D01*
X110650000Y-113471000D02*
X108540000Y-113471000D01*
X110659000Y-113430000D02*
X108540000Y-113430000D01*
X110667000Y-113390000D02*
X108540000Y-113390000D01*
X110675000Y-113350000D02*
X108540000Y-113350000D01*
X110682000Y-113310000D02*
X108540000Y-113310000D01*
X110689000Y-113270000D02*
X108540000Y-113270000D01*
X110695000Y-113230000D02*
X108540000Y-113230000D01*
X110701000Y-113190000D02*
X108540000Y-113190000D01*
X110706000Y-113150000D02*
X108540000Y-113150000D01*
X110711000Y-113110000D02*
X108540000Y-113110000D01*
X110715000Y-113070000D02*
X108540000Y-113070000D01*
X110718000Y-113030000D02*
X108540000Y-113030000D01*
X110722000Y-112990000D02*
X108540000Y-112990000D01*
X110724000Y-112950000D02*
X104276000Y-112950000D01*
X110727000Y-112910000D02*
X104273000Y-112910000D01*
X110728000Y-112870000D02*
X104272000Y-112870000D01*
X110730000Y-112750000D02*
X104270000Y-112750000D01*
X110730000Y-112790000D02*
X104270000Y-112790000D01*
X110730000Y-112830000D02*
X104270000Y-112830000D01*
X110770000Y-112750000D02*
G75*
G02*
X104230000Y-112750000I-3270000J0D01*
G01*
X104230000Y-112750000D02*
G75*
G02*
X110770000Y-112750000I3270000J0D01*
G01*
%TD*%
D14*
%TO.C,P1*%
X199747620Y-118567200D03*
D15*
X178249060Y-115687540D03*
D16*
X181248800Y-115687540D03*
D15*
X178249060Y-75447460D03*
D16*
X181248800Y-75447460D03*
D14*
X199747620Y-72567800D03*
%TD*%
M02*
