%TF.GenerationSoftware,KiCad,Pcbnew,9.0.0*%
%TF.CreationDate,2025-03-26T11:16:54+02:00*%
%TF.ProjectId,xt-cf,78742d63-662e-46b6-9963-61645f706362,rev?*%
%TF.SameCoordinates,Original*%
%TF.FileFunction,Soldermask,Bot*%
%TF.FilePolarity,Negative*%
%FSLAX46Y46*%
G04 Gerber Fmt 4.6, Leading zero omitted, Abs format (unit mm)*
G04 Created by KiCad (PCBNEW 9.0.0) date 2025-03-26 11:16:54*
%MOMM*%
%LPD*%
G01*
G04 APERTURE LIST*
G04 Aperture macros list*
%AMRoundRect*
0 Rectangle with rounded corners*
0 $1 Rounding radius*
0 $2 $3 $4 $5 $6 $7 $8 $9 X,Y pos of 4 corners*
0 Add a 4 corners polygon primitive as box body*
4,1,4,$2,$3,$4,$5,$6,$7,$8,$9,$2,$3,0*
0 Add four circle primitives for the rounded corners*
1,1,$1+$1,$2,$3*
1,1,$1+$1,$4,$5*
1,1,$1+$1,$6,$7*
1,1,$1+$1,$8,$9*
0 Add four rect primitives between the rounded corners*
20,1,$1+$1,$2,$3,$4,$5,0*
20,1,$1+$1,$4,$5,$6,$7,0*
20,1,$1+$1,$6,$7,$8,$9,0*
20,1,$1+$1,$8,$9,$2,$3,0*%
G04 Aperture macros list end*
%ADD10RoundRect,0.329375X0.724625X-1.124625X0.724625X1.124625X-0.724625X1.124625X-0.724625X-1.124625X0*%
%ADD11O,2.108000X2.908000*%
%ADD12C,2.108000*%
%ADD13RoundRect,0.254000X-0.889000X-3.810000X0.889000X-3.810000X0.889000X3.810000X-0.889000X3.810000X0*%
%ADD14O,2.108000X2.108000*%
%ADD15RoundRect,0.254000X0.900000X-0.900000X0.900000X0.900000X-0.900000X0.900000X-0.900000X-0.900000X0*%
%ADD16C,2.308000*%
%ADD17RoundRect,0.329375X-0.724625X1.124625X-0.724625X-1.124625X0.724625X-1.124625X0.724625X1.124625X0*%
%ADD18C,1.407160*%
%ADD19C,2.809240*%
%ADD20C,2.258060*%
%ADD21RoundRect,0.254000X-0.800000X0.800000X-0.800000X-0.800000X0.800000X-0.800000X0.800000X0.800000X0*%
%ADD22C,6.208000*%
%ADD23C,1.397000*%
G04 APERTURE END LIST*
D10*
%TO.C,U1*%
X114180000Y-116620000D03*
D11*
X116720000Y-116620000D03*
X119260000Y-116620000D03*
X121800000Y-116620000D03*
X124340000Y-116620000D03*
X126880000Y-116620000D03*
X129420000Y-116620000D03*
X131960000Y-116620000D03*
X134500000Y-116620000D03*
X137040000Y-116620000D03*
X139580000Y-116620000D03*
X142120000Y-116620000D03*
X142120000Y-109000000D03*
X139580000Y-109000000D03*
X137040000Y-109000000D03*
X134500000Y-109000000D03*
X131960000Y-109000000D03*
X129420000Y-109000000D03*
X126880000Y-109000000D03*
X124340000Y-109000000D03*
X121800000Y-109000000D03*
X119260000Y-109000000D03*
X116720000Y-109000000D03*
X114180000Y-109000000D03*
%TD*%
D12*
%TO.C,C1*%
X155250000Y-84000000D03*
X155250000Y-79000000D03*
%TD*%
D13*
%TO.C,BUS1*%
X180340000Y-130492500D03*
X177800000Y-130492500D03*
X175260000Y-130492500D03*
X157480000Y-130492500D03*
X154940000Y-130492500D03*
X152400000Y-130492500D03*
X149860000Y-130492500D03*
X147320000Y-130492500D03*
X109220000Y-130492500D03*
X104140000Y-130492500D03*
%TD*%
D12*
%TO.C,R1*%
X106380000Y-103000000D03*
D14*
X121620000Y-103000000D03*
%TD*%
D12*
%TO.C,R3*%
X165500000Y-88870000D03*
D14*
X165500000Y-73630000D03*
%TD*%
D12*
%TO.C,R4*%
X159750000Y-88870000D03*
D14*
X159750000Y-73630000D03*
%TD*%
D15*
%TO.C,D1*%
X108500000Y-97500000D03*
D16*
X108500000Y-94960000D03*
%TD*%
D17*
%TO.C,U2*%
X147870000Y-73510000D03*
D11*
X145330000Y-73510000D03*
X142790000Y-73510000D03*
X140250000Y-73510000D03*
X137710000Y-73510000D03*
X135170000Y-73510000D03*
X132630000Y-73510000D03*
X130090000Y-73510000D03*
X127550000Y-73510000D03*
X125010000Y-73510000D03*
X122470000Y-73510000D03*
X119930000Y-73510000D03*
X117390000Y-73510000D03*
X114850000Y-73510000D03*
X114850000Y-88750000D03*
X117390000Y-88750000D03*
X119930000Y-88750000D03*
X122470000Y-88750000D03*
X125010000Y-88750000D03*
X127550000Y-88750000D03*
X130090000Y-88750000D03*
X132630000Y-88750000D03*
X135170000Y-88750000D03*
X137710000Y-88750000D03*
X140250000Y-88750000D03*
X142790000Y-88750000D03*
X145330000Y-88750000D03*
X147870000Y-88750000D03*
%TD*%
D18*
%TO.C,P1*%
X199747620Y-118567200D03*
D19*
X178249060Y-115687540D03*
D20*
X181248800Y-115687540D03*
D19*
X178249060Y-75447460D03*
D20*
X181248800Y-75447460D03*
D18*
X199747620Y-72567800D03*
%TD*%
D12*
%TO.C,R2*%
X174870000Y-119000000D03*
D14*
X159630000Y-119000000D03*
%TD*%
D21*
%TO.C,C2*%
X107500000Y-111500000D03*
D12*
X107500000Y-114000000D03*
%TD*%
D22*
%TO.C,H2*%
X190500000Y-123000000D03*
%TD*%
%TO.C,H1*%
X190500000Y-67750000D03*
%TD*%
D23*
X105022650Y-83629297D03*
X132250000Y-122500000D03*
X134500000Y-123750000D03*
X105386600Y-107863400D03*
X105250000Y-86250000D03*
X167640000Y-116110000D03*
X167612040Y-108887960D03*
X170000000Y-116250000D03*
X169223279Y-108585000D03*
X170250000Y-107250000D03*
X172500000Y-116000000D03*
X171500000Y-106000000D03*
X174250000Y-116000000D03*
X172750000Y-104775000D03*
X134500000Y-101500000D03*
X132000000Y-100500000D03*
X124625000Y-91875000D03*
X147500000Y-100250000D03*
X149750000Y-99000000D03*
X179095393Y-104404607D03*
X150000000Y-95250000D03*
M02*
