M48
; DRILL file {KiCad 9.0.0} date 2025-03-26T11:16:57+0200
; FORMAT={-:-/ absolute / metric / decimal}
; #@! TF.CreationDate,2025-03-26T11:16:57+02:00
; #@! TF.GenerationSoftware,Kicad,Pcbnew,9.0.0
; #@! TF.FileFunction,Plated,1,2,PTH
FMAT,2
METRIC
; #@! TA.AperFunction,Plated,PTH,ViaDrill
T1C0.635
; #@! TA.AperFunction,Plated,PTH,ComponentDrill
T2C0.800
; #@! TA.AperFunction,Plated,PTH,ComponentDrill
T3C0.899
; #@! TA.AperFunction,Plated,PTH,ComponentDrill
T4C0.900
; #@! TA.AperFunction,Plated,PTH,ComponentDrill
T5C1.750
; #@! TA.AperFunction,Plated,PTH,ComponentDrill
T6C2.301
; #@! TA.AperFunction,Plated,PTH,ComponentDrill
T7C3.200
%
G90
G05
T1
X105.023Y-83.629
X105.25Y-86.25
X105.387Y-107.863
X124.625Y-91.875
X132.0Y-100.5
X132.25Y-122.5
X134.5Y-101.5
X134.5Y-123.75
X147.5Y-100.25
X149.75Y-99.0
X150.0Y-95.25
X167.612Y-108.888
X167.64Y-116.11
X169.223Y-108.585
X170.0Y-116.25
X170.25Y-107.25
X171.5Y-106.0
X172.5Y-116.0
X172.75Y-104.775
X174.25Y-116.0
X179.095Y-104.405
T2
X106.38Y-103.0
X107.5Y-111.5
X107.5Y-114.0
X114.18Y-109.0
X114.18Y-116.62
X114.85Y-73.51
X114.85Y-88.75
X116.72Y-109.0
X116.72Y-116.62
X117.39Y-73.51
X117.39Y-88.75
X119.26Y-109.0
X119.26Y-116.62
X119.93Y-73.51
X119.93Y-88.75
X121.62Y-103.0
X121.8Y-109.0
X121.8Y-116.62
X122.47Y-73.51
X122.47Y-88.75
X124.34Y-109.0
X124.34Y-116.62
X125.01Y-73.51
X125.01Y-88.75
X126.88Y-109.0
X126.88Y-116.62
X127.55Y-73.51
X127.55Y-88.75
X129.42Y-109.0
X129.42Y-116.62
X130.09Y-73.51
X130.09Y-88.75
X131.96Y-109.0
X131.96Y-116.62
X132.63Y-73.51
X132.63Y-88.75
X134.5Y-109.0
X134.5Y-116.62
X135.17Y-73.51
X135.17Y-88.75
X137.04Y-109.0
X137.04Y-116.62
X137.71Y-73.51
X137.71Y-88.75
X139.58Y-109.0
X139.58Y-116.62
X140.25Y-73.51
X140.25Y-88.75
X142.12Y-109.0
X142.12Y-116.62
X142.79Y-73.51
X142.79Y-88.75
X145.33Y-73.51
X145.33Y-88.75
X147.87Y-73.51
X147.87Y-88.75
X155.25Y-79.0
X155.25Y-84.0
X159.63Y-119.0
X159.75Y-73.63
X159.75Y-88.87
X165.5Y-73.63
X165.5Y-88.87
X174.87Y-119.0
T3
X199.748Y-72.568
X199.748Y-118.567
T4
X108.5Y-94.96
X108.5Y-97.5
T5
X181.249Y-75.447
X181.249Y-115.688
T6
X178.249Y-75.447
X178.249Y-115.688
T7
X190.5Y-67.75
X190.5Y-123.0
M30
